<svg width="45" height="45" viewBox="0 0 45 45" fill="none" xmlns="http://www.w3.org/2000/svg">
<path fill-rule="evenodd" clip-rule="evenodd" d="M22.5 9.45C23.2042 9.45 23.8417 9.73542 24.3031 10.1969C24.7646 10.6583 25.05 11.2958 25.05 12V20.7H33.75C34.4542 20.7 35.0917 20.9854 35.5531 21.4469C36.0146 21.9083 36.3 22.5458 36.3 23.25C36.3 23.9542 36.0146 24.5917 35.5531 25.0531C35.0917 25.5146 34.4542 25.8 33.75 25.8H25.05V34.5C25.05 35.2042 24.7646 35.8417 24.3031 36.3031C23.8417 36.7646 23.2042 37.05 22.5 37.05C21.7958 37.05 21.1583 36.7646 20.6969 36.3031C20.2354 35.8417 19.95 35.2042 19.95 34.5V25.8H11.25C10.5458 25.8 9.90835 25.5146 9.44689 25.0531C8.98543 24.5917 8.70001 23.9542 8.70001 23.25C8.70001 22.5458 8.98543 21.9083 9.44689 21.4469C9.90835 20.9854 10.5458 20.7 11.25 20.7H19.95V12C19.95 11.2958 20.2354 10.6583 20.6969 10.1969C21.1583 9.73542 21.7958 9.45 22.5 9.45Z" fill="black"/>
</svg>
