<svg width="45" height="45" viewBox="0 0 45 45" fill="none" xmlns="http://www.w3.org/2000/svg">
<path fill-rule="evenodd" clip-rule="evenodd" d="M40.5 22.5C40.5 12.7252 32.673 4.74882 22.9561 4.50571L22.4993 4.5L22.0425 4.50571C12.3268 4.74883 4.5 12.7255 4.5 22.5C4.5 32.4259 12.574 40.5 22.4993 40.5C32.4258 40.5 40.5 32.4261 40.5 22.5ZM7.5 22.5C7.5 14.3698 14.0039 7.72857 22.0802 7.50577L22.4993 7.5L22.9185 7.50577C30.9959 7.72856 37.5 14.3696 37.5 22.5C37.5 30.7692 30.7689 37.5 22.4993 37.5C14.2309 37.5 7.5 30.769 7.5 22.5Z" fill="black"/>
<path d="M22.4993 4.75793C23.2686 4.75793 23.9026 5.33699 23.9892 6.083L23.9993 6.25793V38.7422C23.9993 39.5706 23.3277 40.2422 22.4993 40.2422C21.73 40.2422 21.096 39.6631 21.0094 38.9171L20.9993 38.7422V6.25793C20.9993 5.42951 21.6709 4.75793 22.4993 4.75793Z" fill="black"/>
<path d="M20.1923 5.38265C20.8895 5.83016 21.0918 6.7581 20.6443 7.45525L20.4169 7.82245L20.0947 8.3692L19.8339 8.82738C19.2127 9.93341 18.5908 11.1515 18.0111 12.442C16.8394 15.0502 15.9955 17.6066 15.6185 19.9641C15.4765 20.8523 15.4036 21.6995 15.4036 22.4999C15.4036 23.2977 15.476 24.1418 15.6171 25.0267C15.9933 27.3861 16.8378 29.9447 18.011 32.555C18.5907 33.8448 19.2126 35.0623 19.8337 36.1677L20.2116 36.8269L20.5797 37.4373C20.6031 37.4747 20.6246 37.5086 20.6441 37.5389C21.0918 38.2359 20.8897 39.1639 20.1927 39.6116C19.4957 40.0594 18.5677 39.8573 18.1199 39.1602L17.8633 38.7454L17.3899 37.9399C17.3337 37.8418 17.2765 37.7409 17.2183 37.6374C16.5555 36.4577 15.8934 35.1615 15.2746 33.7849C14.0015 30.9522 13.0777 28.1533 12.6545 25.499C12.4895 24.4638 12.4036 23.4629 12.4036 22.4999C12.4036 21.5338 12.49 20.5294 12.6562 19.4904C13.0801 16.8388 14.0032 14.0426 15.2745 11.2126C15.8932 9.83542 16.5553 8.53855 17.2182 7.35834L17.7127 6.50088L18.1197 5.83467C18.5672 5.13751 19.4952 4.93514 20.1923 5.38265Z" fill="black"/>
<path d="M25.2559 39.8584C24.5587 39.4109 24.3563 38.483 24.8039 37.7858L25.1288 37.2557L25.4796 36.6519C25.5231 36.5755 25.5681 36.4961 25.6143 36.4137C26.2355 35.3077 26.8574 34.0895 27.4371 32.7991C28.6088 30.1909 29.4527 27.6345 29.8297 25.277C29.9717 24.3888 30.0446 23.5416 30.0446 22.7411C30.0446 21.9434 29.9722 21.0993 29.8311 20.2144C29.4549 17.855 28.6104 15.2964 27.4372 12.686C26.8575 11.3962 26.2356 10.1788 25.6145 9.07341L25.129 8.23191L24.8041 7.70218C24.3564 7.00515 24.5585 6.07716 25.2555 5.62944C25.9525 5.18173 26.8805 5.38383 27.3282 6.08086L27.5014 6.3585L27.7353 6.74673L28.0583 7.30122C28.1144 7.3993 28.1716 7.50016 28.2298 7.60374C28.8927 8.78334 29.5548 10.0796 30.1735 11.4562C31.4467 14.2889 32.3705 17.0878 32.7937 19.7421C32.9587 20.7772 33.0446 21.7782 33.0446 22.7411C33.0446 23.7073 32.9581 24.7117 32.792 25.7507C32.3681 28.4023 31.445 31.1985 30.1736 34.0285C29.555 35.4057 28.8929 36.7025 28.23 37.8827L27.8935 38.4714L27.4307 39.2438L27.3285 39.4064C26.881 40.1036 25.953 40.306 25.2559 39.8584Z" fill="black"/>
<path d="M36.9378 27.1875C37.7662 27.1875 38.4378 27.8591 38.4378 28.6875C38.4378 29.4568 37.8587 30.0908 37.1127 30.1774L36.9378 30.1875H7.3978C6.56937 30.1875 5.8978 29.5159 5.8978 28.6875C5.8978 27.9182 6.47686 27.2842 7.22286 27.1976L7.3978 27.1875H36.9378Z" fill="black"/>
<path d="M38.35 16.8751C39.1784 16.8751 39.85 17.5467 39.85 18.3751C39.85 19.1444 39.2709 19.7784 38.5249 19.865L38.35 19.8751H6.88013C6.0517 19.8751 5.38013 19.2035 5.38013 18.3751C5.38013 17.6059 5.95919 16.9719 6.7052 16.8852L6.88013 16.8751H38.35Z" fill="black"/>
</svg>
