<svg width="45" height="45" viewBox="0 0 45 45" fill="none" xmlns="http://www.w3.org/2000/svg">
<path fill-rule="evenodd" clip-rule="evenodd" d="M26.826 13.821C25.398 13.079 23.823 12.708 22.101 12.708C20.379 12.708 18.804 13.121 17.376 13.947C15.948 14.773 14.8175 15.893 13.9845 17.307C13.1515 18.721 12.735 20.282 12.735 21.99C12.735 23.698 13.1515 25.2625 13.9845 26.6835C14.8175 28.1045 15.948 29.228 17.376 30.054C18.804 30.88 20.379 31.293 22.101 31.293C23.011 31.293 23.8895 31.188 24.7365 30.978C25.5835 30.768 26.259 30.509 26.763 30.201L26.364 27.786C25.818 28.108 25.174 28.3635 24.432 28.5525C23.69 28.7415 22.913 28.836 22.101 28.836C20.841 28.836 19.693 28.5315 18.657 27.9225C17.621 27.3135 16.8055 26.484 16.2105 25.434C15.6155 24.384 15.318 23.236 15.318 21.99C15.318 20.744 15.6155 19.596 16.2105 18.546C16.8055 17.496 17.621 16.6665 18.657 16.0575C19.693 15.4485 20.841 15.144 22.101 15.144C23.361 15.144 24.509 15.41 25.545 15.942C26.581 16.474 27.3965 17.1985 27.9915 18.1155C28.5865 19.0325 28.884 20.037 28.884 21.129C28.884 22.277 28.625 23.264 28.107 24.09H26.994V17.433H24.033L23.928 18.336C23.676 18.014 23.3365 17.755 22.9095 17.559C22.4825 17.363 21.975 17.265 21.387 17.265C20.491 17.265 19.707 17.4715 19.035 17.8845C18.363 18.2975 17.845 18.868 17.481 19.596C17.117 20.324 16.935 21.157 16.935 22.095C16.935 23.033 17.1135 23.8625 17.4705 24.5835C17.8275 25.3045 18.3315 25.8645 18.9825 26.2635C19.6335 26.6625 20.4 26.862 21.282 26.862C21.884 26.862 22.3985 26.7605 22.8255 26.5575C23.2525 26.3545 23.627 26.043 23.949 25.623L24.033 26.715H29.661C30.179 26.015 30.6095 25.1785 30.9525 24.2055C31.2955 23.2325 31.467 22.207 31.467 21.129C31.467 19.575 31.0505 18.154 30.2175 16.866C29.3845 15.578 28.254 14.563 26.826 13.821ZM23.277 23.7225C22.927 24.0515 22.465 24.216 21.891 24.216C21.359 24.216 20.932 24.0235 20.61 23.6385C20.288 23.2535 20.127 22.739 20.127 22.095C20.127 21.409 20.295 20.87 20.631 20.478C20.967 20.086 21.45 19.89 22.08 19.89C22.71 19.89 23.298 20.044 23.844 20.352L23.823 22.326C23.809 22.928 23.627 23.3935 23.277 23.7225Z" fill="black"/>
<path fill-rule="evenodd" clip-rule="evenodd" d="M39 22.5C39 13.3873 31.6127 6 22.5 6C13.3873 6 6 13.3873 6 22.5C6 27.9527 8.64497 32.7877 12.7219 35.7919L12.9484 35.9558C13.689 36.4825 14.4749 36.9496 15.2992 37.35C17.4751 38.4071 19.9183 39 22.5 39C25.0817 39 27.5248 38.4071 29.7008 37.35L30.3441 37.0198C30.8499 36.746 31.3397 36.4465 31.8119 36.1232L32.2781 35.7919L32.6681 35.4955C36.5229 32.4751 39 27.7768 39 22.5ZM9 22.5C9 15.0442 15.0442 9 22.5 9C29.9558 9 36 15.0442 36 22.5C36 26.8479 33.9346 30.8448 30.4981 33.3771L30.0658 33.6836L29.7029 33.9219C29.3277 34.1588 28.9184 34.3897 28.4978 34.5987L28.3752 34.6589L27.8785 34.8876C26.2075 35.6158 24.3841 36 22.5 36C20.4275 36 18.4285 35.5351 16.6104 34.6519C15.9391 34.3258 15.2959 33.9441 14.6873 33.5113L14.139 33.1002C10.9205 30.5588 9 26.6926 9 22.5Z" fill="black"/>
</svg>
