<svg width="45" height="45" viewBox="0 0 45 45" fill="none" xmlns="http://www.w3.org/2000/svg">
<path fill-rule="evenodd" clip-rule="evenodd" d="M16.5 5.39999H28.5C31.3167 5.39999 33.6 7.68334 33.6 10.5V36C33.6 39.3592 29.4064 40.8879 27.2446 38.3168L22.5 32.673L17.7555 38.3168C15.6451 40.8267 11.5986 39.4297 11.4071 36.2368L11.4 36V10.5C11.4 7.68334 13.6834 5.39999 16.5 5.39999ZM30 10.5C30 9.67157 29.3285 8.99999 28.5 8.99999H16.5C15.6716 8.99999 15 9.67157 15 10.5V36L21.6733 28.0633C21.9149 27.8302 22.2075 27.7136 22.5 27.7136C22.7925 27.7136 23.0851 27.8302 23.3268 28.0633L30 36V10.5Z" fill="black"/>
</svg>
