<svg width="45" height="45" viewBox="0 0 45 45" fill="none" xmlns="http://www.w3.org/2000/svg">
<path fill-rule="evenodd" clip-rule="evenodd" d="M15.8333 36.5132C15.8333 37.8866 16.9526 39 18.3333 39C19.714 39 20.8333 37.8866 20.8333 36.5132C20.8333 35.1397 19.714 34.0263 18.3333 34.0263C16.9526 34.0263 15.8333 35.1397 15.8333 36.5132ZM15.8333 29.0526C14.9129 29.0526 14.1667 28.3104 14.1667 27.3947C14.1667 26.4791 14.9129 25.7368 15.8333 25.7368H29.9853C32.2154 25.7297 34.1736 24.2606 34.7933 22.1296L37.4357 12.9294C37.5794 12.4292 37.4788 11.8909 37.1639 11.4755C36.849 11.0601 36.3563 10.8159 35.8333 10.8158H15.3984C14.6916 8.83679 12.8136 7.5108 10.7023 7.5H9.16667C8.24619 7.5 7.5 8.24226 7.5 9.15789C7.5 10.0735 8.24619 10.8158 9.16667 10.8158H10.7023C11.4454 10.8184 12.0979 11.3079 12.3047 12.0179L12.5639 12.9211L12.5643 12.9294L15.2987 22.4494C12.6565 22.7321 10.6983 25.0213 10.8405 27.6609C10.9828 30.3006 13.1759 32.3683 15.8333 32.3684H35.8333C36.7538 32.3684 37.5 31.6262 37.5 30.7105C37.5 29.7949 36.7538 29.0526 35.8333 29.0526H15.8333ZM31.5885 21.2181C31.382 21.9288 30.729 22.4187 29.9853 22.4211H18.7573L18.3324 20.9419L16.3774 14.1316H33.6239L31.5885 21.2181ZM29.1667 36.5132C29.1667 37.8866 30.286 39 31.6667 39C33.0474 39 34.1667 37.8866 34.1667 36.5132C34.1667 35.1397 33.0474 34.0263 31.6667 34.0263C30.286 34.0263 29.1667 35.1397 29.1667 36.5132Z" fill="black"/>
</svg>
