<svg width="45" height="45" viewBox="0 0 45 45" fill="none" xmlns="http://www.w3.org/2000/svg">
<path d="M37.3369 12.6763C37.9316 12.6959 38.5188 12.9424 38.9576 13.4111C39.3686 13.8501 39.5765 14.4062 39.585 14.9637C39.5935 15.5219 39.4023 16.0815 39.0147 16.5259L19.6212 34.6973C19.1543 35.1345 18.5583 35.3401 17.9702 35.3242C17.3807 35.3082 16.7988 35.0698 16.3627 34.6184L7.60106 23.6423C7.2009 23.1402 7.04214 22.5235 7.10893 21.9322C7.17572 21.3409 7.46807 20.7752 7.97014 20.375C8.44219 19.9988 9.01559 19.8359 9.57388 19.8733C10.133 19.9108 10.6771 20.1489 11.0889 20.5749L18.2816 29.5813L35.6713 13.3027C36.14 12.8639 36.7422 12.6566 37.3369 12.6763Z" fill="black"/>
</svg>
