<svg width="45" height="45" viewBox="0 0 45 45" fill="none" xmlns="http://www.w3.org/2000/svg">
<path fill-rule="evenodd" clip-rule="evenodd" d="M24.1409 4.8766L22.4991 6.53821L20.8589 4.8766C20.5437 4.55726 20.0862 4.42888 19.6536 4.53842L12.9648 6.23234C10.3666 6.89033 8.45582 9.12979 8.18934 11.8293L6 34.0934C6.01052 34.785 6.56836 35.3571 7.2692 35.3571L13.6152 35.357L13.6153 39.2143C13.6153 39.9244 14.1836 40.5 14.8846 40.5H30.1153L30.2633 40.4914C30.8945 40.4171 31.3845 39.8736 31.3845 39.2143L31.3842 35.357L37.7306 35.3571C38.4816 35.3571 39.0683 34.7004 38.9936 33.9435L36.8105 11.8293C36.544 9.12979 34.6333 6.89033 32.035 6.23234L25.3462 4.53842C24.9137 4.42888 24.4562 4.55726 24.1409 4.8766ZM19.5721 7.21002L20.7037 8.35626L19.064 10.0195L18.9538 10.1468C18.8188 10.3253 18.7324 10.5367 18.7033 10.7596L18.6922 10.9286L18.692 37.9275L16.1531 37.9278L16.1538 34.0714L16.1453 33.9215C16.0719 33.2821 15.5355 32.7857 14.8846 32.7857L8.6713 32.7848L10.7152 12.0852L10.7486 11.8318C10.9969 10.3267 12.1036 9.10101 13.5805 8.72699L19.5721 7.21002ZM31.4194 8.72699L25.4273 7.20869L21.2301 11.4604L21.2299 37.9275L28.845 37.9278L28.8461 34.0714C28.8461 33.4121 29.336 32.8686 29.9673 32.7944L30.1153 32.7857L36.3268 32.7848L34.2847 12.0852C34.1332 10.5507 33.0963 9.26399 31.662 8.79712L31.4194 8.72699ZM23.7692 31.5C23.0682 31.5 22.4999 32.0756 22.4999 32.7857C22.4999 33.4958 23.0682 34.0714 23.7692 34.0714C24.4701 34.0714 25.0384 33.4958 25.0384 32.7857C25.0384 32.0756 24.4701 31.5 23.7692 31.5ZM22.4999 27.6429C22.4999 26.9328 23.0682 26.3572 23.7692 26.3572C24.4701 26.3572 25.0384 26.9328 25.0384 27.6429C25.0384 28.3529 24.4701 28.9286 23.7692 28.9286C23.0682 28.9286 22.4999 28.3529 22.4999 27.6429ZM23.7692 21.2143C23.0682 21.2143 22.4999 21.7899 22.4999 22.5C22.4999 23.2101 23.0682 23.7857 23.7692 23.7857C24.4701 23.7857 25.0384 23.2101 25.0384 22.5C25.0384 21.7899 24.4701 21.2143 23.7692 21.2143ZM22.4999 17.3572C22.4999 16.6471 23.0682 16.0714 23.7692 16.0714C24.4701 16.0714 25.0384 16.6471 25.0384 17.3572C25.0384 18.0672 24.4701 18.6429 23.7692 18.6429C23.0682 18.6429 22.4999 18.0672 22.4999 17.3572Z" fill="black"/>
<path d="M15 16.5C15.7647 16.5 16.3958 16.9426 16.4883 17.5146L16.5 17.6602L16.4883 31.5C16.4883 31.5 15.8284 33 15 33C14.2353 33 13.5117 33 13.5117 33L13.5 31.8398V17.6602C13.5 17.0194 14.1716 16.5 15 16.5Z" fill="black"/>
<path d="M30 16.5C30.7647 16.5 31.3958 16.9426 31.4883 17.5146L31.5 17.6602V33C31.5 33 30.8284 33 30 33C29.2353 33 28.5 31.5 28.5 31.5V17.6602C28.5 17.0194 29.1716 16.5 30 16.5Z" fill="black"/>
</svg>
