<svg width="45" height="45" viewBox="0 0 45 45" fill="none" xmlns="http://www.w3.org/2000/svg">
<path fill-rule="evenodd" clip-rule="evenodd" d="M33.8137 15.4718C34.3995 14.886 34.3995 13.9363 33.8137 13.3505L32.3995 11.9363C31.8137 11.3505 30.864 11.3505 30.2782 11.9363L22.5 19.7145L14.7218 11.9363C14.136 11.3505 13.1863 11.3505 12.6005 11.9363L11.1863 13.3505C10.6005 13.9363 10.6005 14.886 11.1863 15.4718L18.9645 23.25L11.1863 31.0282C10.6005 31.614 10.6005 32.5637 11.1863 33.1495L12.6005 34.5637C13.1863 35.1495 14.136 35.1495 14.7218 34.5637L22.5 26.7855L30.2782 34.5637C30.864 35.1495 31.8137 35.1495 32.3995 34.5637L33.8137 33.1495C34.3995 32.5637 34.3995 31.614 33.8137 31.0282L26.0355 23.25L33.8137 15.4718Z" fill="black"/>
</svg>
