<svg width="45" height="45" viewBox="0 0 45 45" fill="none" xmlns="http://www.w3.org/2000/svg">
<path fill-rule="evenodd" clip-rule="evenodd" d="M39 13.5C39 11.8431 37.6569 10.5 36 10.5H9C7.34315 10.5 6 11.8431 6 13.5V31.5C6 33.1569 7.34315 34.5 9 34.5H36C37.6569 34.5 39 33.1569 39 31.5V13.5ZM11.4936 13.5H33.5064L22.5 22.0835L11.4936 13.5ZM9 15.3598V31.5H36V15.3598L23.4472 25.1492C23.3522 25.2267 23.2492 25.2912 23.141 25.3422C22.9372 25.4388 22.718 25.4859 22.5 25.4858C22.282 25.4859 22.0629 25.4388 21.8592 25.3423C21.7509 25.2912 21.6478 25.2268 21.5527 25.1492L9 15.3598Z" fill="black"/>
</svg>
