<svg width="45" height="45" viewBox="0 0 45 45" fill="none" xmlns="http://www.w3.org/2000/svg">
<path fill-rule="evenodd" clip-rule="evenodd" d="M22.5 6C31.6127 6 39 13.3873 39 22.5C39 27.7768 36.5229 32.4751 32.6681 35.4955L32.2781 35.7919L31.8119 36.1232C31.3397 36.4465 30.8499 36.746 30.3441 37.0198L29.7008 37.35C27.5248 38.4071 25.0817 39 22.5 39C19.9183 39 17.4751 38.4071 15.2992 37.35C14.4749 36.9496 13.689 36.4825 12.9484 35.9558L12.7219 35.7919C8.64497 32.7877 6 27.9527 6 22.5C6 13.3873 13.3873 6 22.5 6ZM22.5 9C15.0442 9 9 15.0442 9 22.5C9 26.6926 10.9205 30.5588 14.139 33.1002L14.6873 33.5113C15.2959 33.9441 15.9391 34.3258 16.6104 34.6519C17.6076 35.1363 18.6591 35.4949 19.7474 35.7199V26.39C19.7474 26.39 19.4431 26.3914 19.2969 26.3914C17.5825 26.3917 16.1057 26.3914 16.1057 26.3914V22.4047H19.5344V19.4638C19.5344 16.0519 21.6094 14.1929 24.6405 14.1929C26.0923 14.1929 27.3398 14.3024 27.7019 14.3495V17.9151L25.5997 17.9165C23.9517 17.9165 23.6339 18.7033 23.6339 19.8572V22.4019H27.5663L27.0535 26.39L23.8857 26.3443V35.9301C25.2769 35.7889 26.6208 35.4357 27.8785 34.8876L28.3752 34.6589L28.4978 34.5987C28.9184 34.3897 29.3277 34.1588 29.7029 33.9219L30.0658 33.6836L30.4981 33.3771C33.9346 30.8448 36 26.8479 36 22.5C36 15.0442 29.9558 9 22.5 9Z" fill="black"/>
</svg>
