<svg width="45" height="45" viewBox="0 0 45 45" fill="none" xmlns="http://www.w3.org/2000/svg">
<path fill-rule="evenodd" clip-rule="evenodd" d="M42.1916 17.0841L41.9918 17.071L41.799 17.0834C41.6711 17.0999 41.5449 17.1328 41.4238 17.1816L28.7342 22.6139L28.2991 21.6619L5.28827 30.9462L6.56168 34.0119L6.69817 34.3195C7.64851 36.3286 9.39958 37.5 11.4738 37.5C12.2402 37.5 13.0289 37.34 13.814 37.0237L25.6975 32.2283L26.0185 32.0924C29.0769 30.7346 30.8439 28.1072 29.9198 25.4337L29.8886 25.3533L42.5779 19.921L42.7336 19.8471C43.3821 19.4917 43.6793 18.6933 43.3879 17.992C43.1798 17.4928 42.7175 17.1534 42.1916 17.0841ZM9.37065 32.6297L26.653 25.6586L26.9924 26.532L27.0301 26.6748C27.1768 27.4551 26.4551 28.5162 24.7303 29.2819L24.4595 29.396L12.6255 34.171L12.38 34.2607C12.0574 34.3664 11.7536 34.4168 11.4738 34.4168C10.6563 34.4168 9.98959 33.9723 9.53835 33.0183L9.43274 32.778L9.37065 32.6297Z" fill="black"/>
<path fill-rule="evenodd" clip-rule="evenodd" d="M10.6692 16.2083C10.8894 17.8474 12.3849 19.0206 14.0632 18.9338L14.3041 18.9128L14.5432 18.8746C16.1933 18.5508 17.3343 17.0469 17.1136 15.4042C16.8838 13.6865 15.2532 12.4804 13.4784 12.6998C11.7015 12.9188 10.438 14.4871 10.6692 16.2083ZM15.7213 15.585C15.8408 16.4744 15.2323 17.2992 14.3278 17.5065L14.1296 17.5413L13.9279 17.5557C12.994 17.5742 12.1813 16.9195 12.0614 16.0271C11.9335 15.0745 12.6413 14.1959 13.6532 14.0712C14.6699 13.9455 15.5933 14.6285 15.7213 15.585Z" fill="black"/>
<path fill-rule="evenodd" clip-rule="evenodd" d="M16.6657 4.5L15.8046 6.61132L13.8915 7.9439L16.0949 8.76896L17.4849 10.603L18.3459 8.49103L20.259 7.15845L18.0563 6.33339L16.6657 4.5ZM17.044 7.30278L17.1455 7.43638L17.3542 7.51492L17.1704 7.64247L17.1065 7.79957L17.0057 7.66597L16.797 7.5881L16.9801 7.45987L17.044 7.30278Z" fill="black"/>
<path d="M22.1822 20.4605C21.5651 20.4149 21.1695 19.8769 21.1275 19.2776L21.1249 19.113L21.3066 14.2323C21.3295 13.6051 21.7415 13.04 22.3533 12.9973L22.5103 12.9978L22.7438 13.0141C23.3603 13.0596 23.7548 13.5973 23.7976 14.1974L23.8005 14.3623L23.6188 19.2423C23.5959 19.8691 23.1844 20.4333 22.5699 20.4774L22.4122 20.4773L22.1822 20.4605Z" fill="black"/>
<path d="M7.89666 21.1407L7.85823 21.13L7.76653 21.1336L7.37297 21.1882C6.5038 21.3197 5.93129 21.2935 5.24111 20.9408C4.27186 20.4442 3.38834 19.5599 3.03712 18.1889C2.86203 17.5 3.32526 16.8316 4.02914 16.6861C4.65705 16.5544 5.29963 16.875 5.53462 17.4437L5.58829 17.6048C5.73723 18.187 6.10699 18.5625 6.49063 18.7584C6.51593 18.7713 6.54472 18.7788 6.59995 18.7785L6.75244 18.7668L7.0162 18.73C8.00641 18.5782 8.59081 18.61 9.3249 19.0586C9.91243 19.4188 10.1918 19.8067 10.4736 20.4977L10.717 21.1137C10.7656 21.2189 10.8021 21.2709 10.8435 21.3072C11.2967 21.7038 11.928 21.7794 12.8736 21.4886C13.5392 21.2825 14.2726 21.6071 14.5169 22.2493C14.7701 22.9191 14.3807 23.6333 13.6882 23.8472C13.2734 23.975 12.8733 24.0603 12.4874 24.1049C11.0684 24.27 9.92169 23.8815 9.06097 23.1285C8.74925 22.8561 8.52332 22.5432 8.34266 22.1716L8.25291 21.9751L7.97608 21.2723L7.92748 21.1763C7.92115 21.1662 7.91556 21.1586 7.9105 21.1529L7.89666 21.1407Z" fill="black"/>
</svg>
