<svg width="45" height="45" viewBox="0 0 45 45" fill="none" xmlns="http://www.w3.org/2000/svg">
<path fill-rule="evenodd" clip-rule="evenodd" d="M38.5263 8.37218C38.5263 6.20376 36.7451 4.5 34.6541 4.5H9.87218C7.7812 4.5 6 6.2812 6 8.37218C6 18.2075 6 31.7601 6 37.8008C6 39.9692 7.7812 41.6729 9.87218 41.6729H34.6541C36.7451 41.6729 38.5263 39.9692 38.5263 37.8008C38.5263 31.7601 38.5263 18.0526 38.5263 8.37218ZM9.63073 7.21035H34.6631C35.1688 7.21035 35.5059 7.72664 35.5059 8.50107V19.8595C35.5059 20.6339 35.1688 21.1502 34.6631 21.1502H9.63073C9.12503 21.1502 8.78789 20.6339 8.78789 19.8595V8.50107C8.78789 7.72664 9.12503 7.21035 9.63073 7.21035ZM14.5962 39.0398H9.56233C9.17511 39.0398 8.78789 38.6525 8.78789 38.2653V33.2315C8.78789 32.7668 9.17511 32.4571 9.56233 32.4571H14.5962C15.0608 32.4571 15.3706 32.7668 15.3706 33.2315V38.2653C15.3706 38.6525 15.0608 39.0398 14.5962 39.0398ZM14.5962 30.5211H9.56233C9.17511 30.5211 8.78789 30.1338 8.78789 29.7466V24.7128C8.78789 24.2481 9.17511 23.9383 9.56233 23.9383H14.5962C15.0608 23.9383 15.3706 24.2481 15.3706 24.7128V29.7466C15.3706 30.1338 15.0608 30.5211 14.5962 30.5211ZM23.5797 39.0398H18.5459C18.1587 39.0398 17.7715 38.6525 17.7715 38.2653V33.2315C17.7715 32.7668 18.1587 32.4571 18.5459 32.4571H23.5797C24.0444 32.4571 24.3542 32.7668 24.3542 33.2315V38.2653C24.3542 38.6525 24.0444 39.0398 23.5797 39.0398ZM23.5797 30.5211H18.5459C18.1587 30.5211 17.7715 30.1338 17.7715 29.7466V24.7128C17.7715 24.2481 18.1587 23.9383 18.5459 23.9383H23.5797C24.0444 23.9383 24.3542 24.2481 24.3542 24.7128V29.7466C24.3542 30.1338 24.0444 30.5211 23.5797 30.5211ZM27.1421 38.4203V24.8676C27.1421 24.403 27.5035 24.0932 28.0456 24.0932H34.3702C34.9123 24.0932 35.2737 24.403 35.2737 24.8676V38.4203C35.2737 38.8849 34.9123 39.1947 34.3702 39.1947H28.0456C27.5035 39.1947 27.1421 38.8849 27.1421 38.4203Z" fill="black"/>
</svg>
