<svg width="45" height="45" viewBox="0 0 45 45" fill="none" xmlns="http://www.w3.org/2000/svg">
<path d="M23.2471 11.3836C28.2444 10.3201 33.1587 13.5095 34.2227 18.5067L34.2471 18.6629C34.326 19.388 33.8819 20.0717 33.1875 20.2947L33.0361 20.3358L24.499 22.1522H32.0264C33.6556 22.1522 34.9765 23.4732 34.9766 25.1024V25.7508H35C36.6568 25.7508 38 27.094 38 28.7508V30.6971C37.9998 32.3538 36.6567 33.6971 35 33.6971H34.96C34.7818 35.7136 33.0892 37.2957 31.0264 37.2957H14.5098C12.4469 37.2957 10.7543 35.7137 10.5762 33.6971H10.5361C8.8794 33.6971 7.53633 32.3538 7.53613 30.6971V28.7508C7.53616 27.094 8.87929 25.7508 10.5361 25.7508H10.5596V25.1024C10.5596 24.6257 10.6752 24.1766 10.876 23.7781C10.8377 23.6882 10.8082 23.5931 10.7871 23.494C9.72358 18.4968 12.912 13.584 17.9092 12.5203L23.2471 11.3836ZM12.4922 33.6971C12.6592 34.6615 13.4977 35.3963 14.5098 35.3963H31.0264C32.0384 35.3963 32.8778 34.6615 33.0449 33.6971H12.4922ZM10.5361 27.6512C9.92863 27.6512 9.43655 28.1433 9.43652 28.7508V30.6971C9.43672 31.3047 9.92905 31.7967 10.5361 31.7967H35C35.5692 31.7967 36.0383 31.3643 36.0947 30.8094L36.0996 30.6971V28.7508C36.0996 28.1433 35.6075 27.6512 35 27.6512H30.8398L29.4551 29.0359C28.3225 30.1683 26.4868 30.1676 25.3545 29.0359L23.9688 27.6512H10.5361ZM12.6162 24.6805L12.542 24.6922C12.4885 24.8182 12.459 24.9569 12.459 25.1024V25.7508H24.7549L26.6973 27.6922C27.0878 28.0826 27.7208 28.0826 28.1113 27.6922L30.0527 25.7508H33.0762V25.1024C33.0761 24.5225 32.6062 24.0516 32.0264 24.0516H15.5723L12.6162 24.6805ZM32.2812 18.5545C31.288 14.7848 27.4964 12.4229 23.6426 13.243L18.3047 14.3787C14.5924 15.1689 12.138 18.6318 12.5244 22.324C12.8328 22.2146 13.1639 22.1522 13.5098 22.1522H15.375L32.2812 18.5545ZM14.6699 6.50079C15.1244 6.26177 15.9359 6.69901 16.4844 7.47638C17.0328 8.25504 17.1101 9.08081 16.6572 9.32111C16.2043 9.55981 15.3947 9.12263 14.8447 8.34552C14.2963 7.56696 14.2173 6.74126 14.6699 6.50079ZM26.5459 7.23029C27.0554 6.42567 27.8444 5.94923 28.3086 6.16681C28.7727 6.38456 28.7351 7.21174 28.2256 8.01642C27.7161 8.81966 26.927 9.29604 26.4629 9.0799C25.9988 8.86216 26.0365 8.03358 26.5459 7.23029ZM21.4717 5.6131C22.0007 5.60009 22.4482 6.33047 22.4707 7.24396C22.4932 8.15746 22.0818 8.90966 21.5527 8.92267C21.0239 8.93525 20.5762 8.20408 20.5537 7.29083C20.5313 6.37752 20.9427 5.6262 21.4717 5.6131Z" fill="black"/>
<path d="M23.2471 11.3836L23.195 11.1391L23.195 11.1391L23.2471 11.3836ZM34.2227 18.5067L34.47 18.468L34.4672 18.4546L34.2227 18.5067ZM34.2471 18.6629L34.4959 18.6358L34.4941 18.6243L34.2471 18.6629ZM33.1875 20.2947L33.253 20.5363L33.264 20.5328L33.1875 20.2947ZM33.0361 20.3358L33.0882 20.5807L33.1015 20.5771L33.0361 20.3358ZM24.499 22.1522L24.447 21.9076L24.499 22.4022V22.1522ZM32.0264 22.1522V21.9022V21.9022V22.1522ZM34.9766 25.1024H35.2266V25.1023L34.9766 25.1024ZM34.9766 25.7508H34.7266V26.0008H34.9766V25.7508ZM38 28.7508H38.25V28.7508L38 28.7508ZM38 30.6971L38.25 30.6971V30.6971H38ZM34.96 33.6971V33.4471H34.7311L34.7109 33.6751L34.96 33.6971ZM31.0264 37.2957V37.5457H31.0264L31.0264 37.2957ZM10.5762 33.6971L10.8252 33.6751L10.8051 33.4471H10.5762V33.6971ZM7.53613 30.6971H7.28613V30.6971L7.53613 30.6971ZM7.53613 28.7508L7.28613 28.7508V28.7508H7.53613ZM10.5361 25.7508V25.5008V25.5008V25.7508ZM10.5596 25.7508V26.0008H10.8096V25.7508H10.5596ZM10.5596 25.1024L10.3096 25.1023V25.1024H10.5596ZM10.876 23.7781L11.0992 23.8906L11.1514 23.787L11.106 23.6803L10.876 23.7781ZM10.7871 23.494L10.5426 23.546L10.5426 23.5461L10.7871 23.494ZM17.9092 12.5203L17.9612 12.7648L17.9613 12.7648L17.9092 12.5203ZM12.4922 33.6971V33.4471H12.1952L12.2459 33.7397L12.4922 33.6971ZM31.0264 35.3963V35.6463H31.0264L31.0264 35.3963ZM33.0449 33.6971L33.2912 33.7398L33.342 33.4471H33.0449V33.6971ZM10.5361 27.6512V27.4012V27.4012V27.6512ZM9.43652 28.7508L9.18652 28.7508V28.7508H9.43652ZM9.43652 30.6971H9.18652V30.6972L9.43652 30.6971ZM36.0947 30.8094L36.3434 30.8347L36.3442 30.8275L36.3445 30.8202L36.0947 30.8094ZM36.0996 30.6971L36.3496 30.708V30.6971H36.0996ZM36.0996 28.7508H36.3496V28.7508L36.0996 28.7508ZM30.8398 27.6512V27.4012H30.7363L30.6631 27.4744L30.8398 27.6512ZM29.4551 29.0359L29.6318 29.2127L29.6319 29.2127L29.4551 29.0359ZM25.3545 29.0359L25.5312 28.8591L25.5312 28.8591L25.3545 29.0359ZM23.9688 27.6512L24.1455 27.4743L24.0723 27.4012H23.9688V27.6512ZM12.6162 24.6805L12.6553 24.9278L12.6682 24.925L12.6162 24.6805ZM12.542 24.6922L12.503 24.4453L12.3661 24.4669L12.3119 24.5944L12.542 24.6922ZM12.459 25.1024L12.209 25.1023V25.1024H12.459ZM12.459 25.7508H12.209V26.0008H12.459V25.7508ZM24.7549 25.7508L24.9316 25.574L24.8584 25.5008H24.7549V25.7508ZM26.6973 27.6922L26.874 27.5154L26.874 27.5154L26.6973 27.6922ZM28.1113 27.6922L28.2881 27.869L28.2881 27.869L28.1113 27.6922ZM30.0527 25.7508V25.5008H29.9492L29.876 25.574L30.0527 25.7508ZM33.0762 25.7508V26.0008H33.3262V25.7508H33.0762ZM33.0762 25.1024H33.3262V25.1023L33.0762 25.1024ZM32.0264 24.0516V23.8016V23.8016V24.0516ZM15.5723 24.0516V23.8016H15.546L15.5202 23.807L15.5723 24.0516ZM32.2812 18.5545L32.3333 18.799L32.5898 18.7444L32.523 18.4908L32.2812 18.5545ZM23.6426 13.243L23.6946 13.4875L23.6946 13.4875L23.6426 13.243ZM18.3047 14.3787L18.2527 14.1342L18.2526 14.1342L18.3047 14.3787ZM12.5244 22.324L12.2758 22.3501L12.3088 22.6658L12.608 22.5596L12.5244 22.324ZM13.5098 22.1522V21.9022H13.5097L13.5098 22.1522ZM15.375 22.1522V22.4022H15.4013L15.427 22.3967L15.375 22.1522ZM14.6699 6.50079L14.5535 6.27953L14.5526 6.28002L14.6699 6.50079ZM16.4844 7.47638L16.6888 7.33242L16.6886 7.33225L16.4844 7.47638ZM16.6572 9.32111L16.7738 9.54227L16.7744 9.54194L16.6572 9.32111ZM14.8447 8.34552L14.6403 8.48949L14.6407 8.48993L14.8447 8.34552ZM26.5459 7.23029L26.757 7.36418L26.7571 7.36404L26.5459 7.23029ZM28.3086 6.16681L28.4148 5.94048L28.4147 5.94044L28.3086 6.16681ZM28.2256 8.01642L28.4367 8.15033L28.4368 8.15016L28.2256 8.01642ZM26.4629 9.0799L26.3567 9.30622L26.3574 9.30653L26.4629 9.0799ZM21.4717 5.6131L21.4655 5.36317L21.4655 5.36317L21.4717 5.6131ZM22.4707 7.24396L22.7206 7.23781V7.23781L22.4707 7.24396ZM21.5527 8.92267L21.5587 9.1726L21.5589 9.17259L21.5527 8.92267ZM20.5537 7.29083L20.3038 7.29695V7.29698L20.5537 7.29083ZM23.2471 11.3836L23.2991 11.6281C28.1614 10.5934 32.9429 13.6966 33.9781 18.5587L34.2227 18.5067L34.4672 18.4546C33.3744 13.3224 28.3274 10.0469 23.195 11.1391L23.2471 11.3836ZM34.2227 18.5067L33.9757 18.5452L34.0001 18.7015L34.2471 18.6629L34.4941 18.6243L34.4697 18.4681L34.2227 18.5067ZM34.2471 18.6629L33.9985 18.6899C34.0646 19.2969 33.6925 19.8699 33.111 20.0567L33.1875 20.2947L33.264 20.5328C34.0713 20.2734 34.5874 19.479 34.4956 18.6359L34.2471 18.6629ZM33.1875 20.2947L33.1221 20.0534L32.9707 20.0945L33.0361 20.3358L33.1015 20.5771L33.2529 20.536L33.1875 20.2947ZM33.0361 20.3358L32.9841 20.0912L24.447 21.9076L24.499 22.1522L24.5511 22.3967L33.0882 20.5803L33.0361 20.3358ZM24.499 22.1522V22.4022H32.0264V22.1522V21.9022H24.499V22.1522ZM32.0264 22.1522V22.4022C33.5175 22.4022 34.7265 23.6113 34.7266 25.1024L34.9766 25.1024L35.2266 25.1023C35.2265 23.3351 33.7936 21.9022 32.0264 21.9022V22.1522ZM34.9766 25.1024H34.7266V25.7508H34.9766H35.2266V25.1024H34.9766ZM34.9766 25.7508V26.0008H35V25.7508V25.5008H34.9766V25.7508ZM35 25.7508V26.0008C36.5188 26.0008 37.75 27.232 37.75 28.7508L38 28.7508L38.25 28.7508C38.25 26.9559 36.7949 25.5008 35 25.5008V25.7508ZM38 28.7508H37.75V30.6971H38H38.25V28.7508H38ZM38 30.6971L37.75 30.6971C37.7498 32.2157 36.5186 33.4471 35 33.4471V33.6971V33.9471C36.7948 33.9471 38.2498 32.4918 38.25 30.6971L38 30.6971ZM35 33.6971V33.4471H34.96V33.6971V33.9471H35V33.6971ZM34.96 33.6971L34.7109 33.6751C34.5441 35.5639 32.9584 37.0457 31.0264 37.0457L31.0264 37.2957L31.0264 37.5457C33.22 37.5457 35.0196 35.8634 35.209 33.7191L34.96 33.6971ZM31.0264 37.2957V37.0457H14.5098V37.2957V37.5457H31.0264V37.2957ZM14.5098 37.2957V37.0457C12.5777 37.0457 10.9921 35.5639 10.8252 33.6751L10.5762 33.6971L10.3271 33.7191C10.5166 35.8634 12.3161 37.5457 14.5098 37.5457V37.2957ZM10.5762 33.6971V33.4471H10.5361V33.6971V33.9471H10.5762V33.6971ZM10.5361 33.6971V33.4471C9.0175 33.4471 7.78632 32.2157 7.78613 30.6971L7.53613 30.6971L7.28613 30.6971C7.28635 32.4918 8.7413 33.9471 10.5361 33.9471V33.6971ZM7.53613 30.6971H7.78613V28.7508H7.53613H7.28613V30.6971H7.53613ZM7.53613 28.7508L7.78613 28.7508C7.78615 27.232 9.01737 26.0008 10.5361 26.0008V25.7508V25.5008C8.74122 25.5008 7.28616 26.9559 7.28613 28.7508L7.53613 28.7508ZM10.5361 25.7508V26.0008H10.5596V25.7508V25.5008H10.5361V25.7508ZM10.5596 25.7508H10.8096V25.1024H10.5596H10.3096V25.7508H10.5596ZM10.5596 25.1024L10.8096 25.1024C10.8096 24.6667 10.9152 24.256 11.0992 23.8906L10.876 23.7781L10.6527 23.6656C10.4352 24.0973 10.3096 24.5848 10.3096 25.1023L10.5596 25.1024ZM10.876 23.7781L11.106 23.6803C11.0745 23.6062 11.0497 23.5265 11.0316 23.4418L10.7871 23.494L10.5426 23.5461C10.5668 23.6597 10.6009 23.7702 10.6459 23.876L10.876 23.7781ZM10.7871 23.494L11.0316 23.4419C9.99685 18.5798 13.0991 13.7997 17.9612 12.7648L17.9092 12.5203L17.8571 12.2758C12.725 13.3682 9.45032 18.4138 10.5426 23.546L10.7871 23.494ZM17.9092 12.5203L17.9613 12.7648L23.2991 11.6281L23.2471 11.3836L23.195 11.1391L17.8571 12.2758L17.9092 12.5203ZM12.4922 33.6971L12.2459 33.7397C12.4332 34.8214 13.3735 35.6463 14.5098 35.6463V35.3963V35.1463C13.622 35.1463 12.8852 34.5016 12.7385 33.6544L12.4922 33.6971ZM14.5098 35.3963V35.6463H31.0264V35.3963V35.1463H14.5098V35.3963ZM31.0264 35.3963L31.0264 35.6463C32.1625 35.6462 33.1038 34.8215 33.2912 33.7398L33.0449 33.6971L32.7986 33.6544C32.6518 34.5015 31.9142 35.1463 31.0264 35.1463L31.0264 35.3963ZM33.0449 33.6971V33.4471H12.4922V33.6971V33.9471H33.0449V33.6971ZM10.5361 27.6512V27.4012C9.79055 27.4012 9.18655 28.0052 9.18652 28.7508L9.43652 28.7508L9.68652 28.7508C9.68654 28.2814 10.0667 27.9012 10.5361 27.9012V27.6512ZM9.43652 28.7508H9.18652V30.6971H9.43652H9.68652V28.7508H9.43652ZM9.43652 30.6971L9.18652 30.6972C9.18677 31.4428 9.79099 32.0467 10.5361 32.0467V31.7967V31.5467C10.0671 31.5467 9.68668 31.1666 9.68652 30.697L9.43652 30.6971ZM10.5361 31.7967V32.0467H35V31.7967V31.5467H10.5361V31.7967ZM35 31.7967V32.0467C35.6986 32.0467 36.2742 31.5161 36.3434 30.8347L36.0947 30.8094L35.846 30.7841C35.8025 31.2124 35.4399 31.5467 35 31.5467V31.7967ZM36.0947 30.8094L36.3445 30.8202L36.3494 30.7079L36.0996 30.6971L35.8498 30.6862L35.845 30.7985L36.0947 30.8094ZM36.0996 30.6971H36.3496V28.7508H36.0996H35.8496V30.6971H36.0996ZM36.0996 28.7508L36.3496 28.7508C36.3496 28.0052 35.7456 27.4012 35 27.4012V27.6512V27.9012C35.4694 27.9012 35.8496 28.2814 35.8496 28.7508L36.0996 28.7508ZM35 27.6512V27.4012H30.8398V27.6512V27.9012H35V27.6512ZM30.8398 27.6512L30.6631 27.4744L29.2783 28.8592L29.4551 29.0359L29.6319 29.2127L31.0166 27.828L30.8398 27.6512ZM29.4551 29.0359L29.2783 28.8592C28.2435 29.8939 26.566 29.8932 25.5312 28.8591L25.3545 29.0359L25.1778 29.2128C26.4076 30.4419 28.4016 30.4428 29.6318 29.2127L29.4551 29.0359ZM25.3545 29.0359L25.5312 28.8591L24.1455 27.4743L23.9688 27.6512L23.792 27.828L25.1778 29.2128L25.3545 29.0359ZM23.9688 27.6512V27.4012H10.5361V27.6512V27.9012H23.9688V27.6512ZM12.6162 24.6805L12.5772 24.4335L12.503 24.4453L12.542 24.6922L12.581 24.9391L12.6552 24.9274L12.6162 24.6805ZM12.542 24.6922L12.3119 24.5944C12.2454 24.751 12.209 24.9229 12.209 25.1023L12.459 25.1024L12.709 25.1024C12.709 24.9909 12.7315 24.8854 12.7721 24.79L12.542 24.6922ZM12.459 25.1024H12.209V25.7508H12.459H12.709V25.1024H12.459ZM12.459 25.7508V26.0008H24.7549V25.7508V25.5008H12.459V25.7508ZM24.7549 25.7508L24.5781 25.9276L26.5205 27.869L26.6973 27.6922L26.874 27.5154L24.9316 25.574L24.7549 25.7508ZM26.6973 27.6922L26.5205 27.869C27.0086 28.3569 27.8 28.357 28.2881 27.869L28.1113 27.6922L27.9346 27.5154C27.6417 27.8082 27.1669 27.8082 26.874 27.5154L26.6973 27.6922ZM28.1113 27.6922L28.2881 27.869L30.2295 25.9276L30.0527 25.7508L29.876 25.574L27.9346 27.5154L28.1113 27.6922ZM30.0527 25.7508V26.0008H33.0762V25.7508V25.5008H30.0527V25.7508ZM33.0762 25.7508H33.3262V25.1024H33.0762H32.8262V25.7508H33.0762ZM33.0762 25.1024L33.3262 25.1023C33.3261 24.3848 32.7446 23.8016 32.0264 23.8016V24.0516V24.3016C32.4678 24.3016 32.8261 24.6603 32.8262 25.1024L33.0762 25.1024ZM32.0264 24.0516V23.8016H15.5723V24.0516V24.3016H32.0264V24.0516ZM15.5723 24.0516L15.5202 23.807L12.5642 24.436L12.6162 24.6805L12.6682 24.925L15.6243 24.2961L15.5723 24.0516ZM32.2812 18.5545L32.523 18.4908C31.4959 14.5927 27.5754 12.1505 23.5905 12.9985L23.6426 13.243L23.6946 13.4875C27.4173 12.6953 31.0801 14.9769 32.0395 18.6182L32.2812 18.5545ZM23.6426 13.243L23.5905 12.9985L18.2527 14.1342L18.3047 14.3787L18.3567 14.6232L23.6946 13.4875L23.6426 13.243ZM18.3047 14.3787L18.2526 14.1342C14.4139 14.9513 11.8762 18.532 12.2758 22.3501L12.5244 22.324L12.7731 22.298C12.3998 18.7315 14.7709 15.3865 18.3567 14.6232L18.3047 14.3787ZM12.5244 22.324L12.608 22.5596C12.8914 22.4591 13.1942 22.4022 13.5098 22.4022L13.5098 22.1522L13.5097 21.9022C13.1335 21.9022 12.7742 21.9701 12.4408 22.0884L12.5244 22.324ZM13.5098 22.1522V22.4022H15.375V22.1522V21.9022H13.5098V22.1522ZM15.375 22.1522L15.427 22.3967L32.3333 18.799L32.2812 18.5545L32.2292 18.31L15.323 21.9076L15.375 22.1522ZM14.6699 6.50079L14.7863 6.72205C14.9029 6.66071 15.1217 6.66524 15.4234 6.8276C15.713 6.98338 16.025 7.25893 16.2801 7.62051L16.4844 7.47638L16.6886 7.33225C16.3953 6.91645 16.0273 6.5847 15.6603 6.38728C15.3056 6.19642 14.8914 6.10185 14.5535 6.27953L14.6699 6.50079ZM16.4844 7.47638L16.28 7.62034C16.5358 7.98347 16.6711 8.34375 16.6974 8.62394C16.7243 8.91148 16.6374 9.04861 16.54 9.10027L16.6572 9.32111L16.7744 9.54194C17.1299 9.35331 17.2308 8.9574 17.1952 8.57732C17.1589 8.18988 16.9814 7.74795 16.6888 7.33242L16.4844 7.47638ZM16.6572 9.32111L16.5407 9.09994C16.4251 9.16087 16.2074 9.15658 15.9059 8.99416C15.6168 8.83835 15.3047 8.56279 15.0488 8.20111L14.8447 8.34552L14.6407 8.48993C14.9346 8.90536 15.3024 9.23694 15.6688 9.43433C16.0228 9.6251 16.4365 9.72005 16.7738 9.54227L16.6572 9.32111ZM14.8447 8.34552L15.0491 8.20155C14.7933 7.83836 14.6574 7.478 14.6308 7.19772C14.6035 6.91003 14.6902 6.77314 14.7872 6.72157L14.6699 6.50079L14.5526 6.28002C14.1971 6.46892 14.0969 6.86511 14.1331 7.24503C14.1699 7.63235 14.3478 8.07412 14.6403 8.48949L14.8447 8.34552ZM26.5459 7.23029L26.7571 7.36404C26.9941 6.98977 27.2921 6.69902 27.5734 6.52927C27.8667 6.35229 28.0841 6.33767 28.2025 6.39317L28.3086 6.16681L28.4147 5.94044C28.0689 5.77837 27.6597 5.89318 27.3151 6.10118C26.9584 6.31641 26.6072 6.66618 26.3347 7.09654L26.5459 7.23029ZM28.3086 6.16681L28.2024 6.39314C28.3022 6.43994 28.3954 6.57223 28.3825 6.86026C28.3698 7.14106 28.2521 7.50728 28.0144 7.88268L28.2256 8.01642L28.4368 8.15016C28.7086 7.72088 28.8644 7.27118 28.8819 6.88277C28.8991 6.50161 28.7792 6.11144 28.4148 5.94048L28.3086 6.16681ZM28.2256 8.01642L28.0145 7.88251C27.7775 8.25609 27.4794 8.54657 27.1981 8.71638C26.9047 8.89344 26.687 8.90846 26.5684 8.85326L26.4629 9.0799L26.3574 9.30653C26.703 9.46748 27.1119 9.35239 27.4564 9.14447C27.8129 8.92932 28.1642 8.57999 28.4367 8.15033L28.2256 8.01642ZM26.4629 9.0799L26.5691 8.85357C26.4695 8.80683 26.3761 8.67432 26.3891 8.38593C26.4017 8.10494 26.5195 7.73876 26.757 7.36418L26.5459 7.23029L26.3348 7.0964C26.0629 7.52511 25.9071 7.97486 25.8896 8.36342C25.8724 8.74457 25.9922 9.13522 26.3567 9.30622L26.4629 9.0799ZM21.4717 5.6131L21.4778 5.86302C21.6156 5.85963 21.7901 5.95391 21.948 6.21169C22.102 6.46306 22.2104 6.82939 22.2208 7.25011L22.4707 7.24396L22.7206 7.23781C22.7085 6.74503 22.582 6.28943 22.3743 5.95049C22.1706 5.61796 21.8568 5.35355 21.4655 5.36317L21.4717 5.6131ZM22.4707 7.24396L22.2208 7.2501C22.2311 7.67079 22.1407 8.0422 21.9992 8.30105C21.854 8.56653 21.6843 8.66936 21.5466 8.67274L21.5527 8.92267L21.5589 9.17259C21.9502 9.16297 22.2507 8.88319 22.4379 8.54095C22.6287 8.19207 22.7327 7.73063 22.7206 7.23781L22.4707 7.24396ZM21.5527 8.92267L21.5468 8.67274C21.4091 8.67602 21.2346 8.58152 21.0765 8.3234C20.9225 8.07175 20.814 7.70525 20.8036 7.28469L20.5537 7.29083L20.3038 7.29698C20.3159 7.78967 20.4425 8.24537 20.6501 8.58448C20.8538 8.91711 21.1675 9.18191 21.5587 9.1726L21.5527 8.92267ZM20.5537 7.29083L20.8036 7.28471C20.7933 6.86412 20.8837 6.493 21.0253 6.23441C21.1704 5.96922 21.3401 5.86644 21.4779 5.86302L21.4717 5.6131L21.4655 5.36317C21.0744 5.37286 20.7739 5.65228 20.5866 5.99436C20.3958 6.34303 20.2917 6.80423 20.3038 7.29695L20.5537 7.29083Z" fill="black"/>
</svg>
