<svg width="45" height="45" viewBox="0 0 45 45" fill="none" xmlns="http://www.w3.org/2000/svg">
<path fill-rule="evenodd" clip-rule="evenodd" d="M36.5108 7.53093L36.9931 7.5859L37.7545 7.69468L37.8632 8.45609C38.5 12.9135 35.5752 17.058 31.2486 18.0103C32.4747 18.2527 33.6608 18.7676 34.7128 19.5566C35.1014 19.848 35.4641 20.1718 35.8049 20.5337L36.1386 20.9087L36.8976 21.863L36.4223 22.4967C34.6412 24.8716 31.8614 26.0556 29.1043 25.9028C29.3424 26.1027 29.5697 26.3189 29.788 26.5508L30.1217 26.9257L30.8807 27.88L30.5831 28.2769L17.1664 14.8602L17.5329 14.5686L18.1667 15.0439C18.6844 15.4323 19.1459 15.8685 19.5493 16.342C19.4376 14.4018 19.9859 12.413 21.2437 10.7361C21.535 10.3476 21.8587 9.98499 22.2207 9.64421L22.5955 9.31057L23.5498 8.55157L24.1835 9.02688C25.9375 10.3424 27.0452 12.2076 27.4382 14.2108C28.1788 10.8302 30.9474 8.1042 34.5757 7.58589C35.2171 7.49427 35.8663 7.47595 36.5108 7.53093ZM14.9055 17.2116L8.10094 10.407C7.46411 9.77021 7.46411 8.73771 8.10094 8.10088C8.73777 7.46405 9.77027 7.46405 10.4071 8.10088L17.1664 14.8602L16.5787 15.3276L16.2038 15.6613C15.8419 16.002 15.5182 16.3647 15.2268 16.7531C15.114 16.9035 15.0069 17.0564 14.9055 17.2116ZM16.3978 18.7039L14.9055 17.2116C13.8757 18.7869 13.4306 20.5939 13.5337 22.3606C13.13 21.8865 12.6681 21.4497 12.1498 21.061L11.5161 20.5857L10.5618 21.3447L10.1869 21.6783C9.82503 22.0191 9.50133 22.3817 9.20997 22.7702C6.40752 26.5067 7.12723 31.791 10.8009 34.6456L10.9978 34.8882L11.3315 35.2632C11.6723 35.6251 12.035 35.9489 12.4236 36.2403C16.1997 39.0723 21.5566 38.3069 24.3886 34.5308L24.8639 33.8971L24.1049 32.9428L23.78 32.5773C23.5588 32.342 23.3283 32.1232 23.087 31.9198C24.89 32.0198 26.7027 31.5481 28.2395 30.5456L35.043 37.3491C35.6798 37.9859 36.7123 37.9859 37.3492 37.3491C37.986 36.7123 37.986 35.6798 37.3492 35.0429L30.5831 28.2769L30.4055 28.5137C29.789 29.3357 29.0529 30.015 28.2395 30.5456L26.7465 29.0526C27.1333 28.8359 27.5009 28.5777 27.8423 28.2788L28.0887 28.0517L28.2376 27.8983L28.0289 27.6894L27.8932 27.5648L27.754 27.4441L27.4654 27.2145C26.3183 26.3542 24.9615 25.9228 23.6072 25.9133L21.7533 24.0594C22.507 23.8946 23.2801 23.834 24.0491 23.8773C23.8109 23.6772 23.5836 23.461 23.3652 23.229L23.0315 22.8541L22.8371 22.6098L22.5744 22.4012C22.2067 22.092 21.8712 21.7575 21.5685 21.4021C21.6115 22.1654 21.5527 22.9367 21.3885 23.6946L19.5348 21.8409C19.5238 20.31 18.9733 18.7982 17.9318 17.6075L17.7045 17.3609L17.5501 17.2109L17.3425 17.4203C17.1738 17.5988 17.0153 17.7869 16.8676 17.9838C16.6931 18.2165 16.5366 18.457 16.3978 18.7039ZM16.3978 18.7039L19.5348 21.8409C19.544 23.1125 19.1811 24.3972 18.4184 25.5221L18.2964 25.6895L18.1479 25.8012L17.833 26.0733L17.5354 26.3562L17.446 26.4484L17.3981 26.402L17.1709 26.1556C15.3763 24.1052 15.0453 21.1086 16.3978 18.7039ZM21.3885 23.6946C21.3533 23.8574 21.3132 24.0194 21.2682 24.1807C21.4289 24.1354 21.5906 24.095 21.7533 24.0594L21.3885 23.6946ZM23.6072 25.9133C22.55 25.9059 21.4943 26.1557 20.541 26.6594L20.2341 26.8326L19.9353 27.0237L19.7716 27.1379L19.5735 27.3897L19.4138 27.5735L19.2483 27.7533L19.0001 27.9993L19.1075 28.1075L19.3824 28.3528L19.671 28.5824C21.7931 30.1739 24.5721 30.2706 26.7465 29.0526L23.6072 25.9133ZM35.8943 9.55261L35.6002 9.55365C35.3547 9.56061 35.1095 9.5815 34.8658 9.61631C31.7449 10.0621 29.4609 12.6571 29.2974 15.6898L29.2881 16.005L29.2899 16.1569L29.5869 16.158L29.771 16.1501L29.9548 16.1371L30.3212 16.0953C33.4421 15.6495 35.726 13.0545 35.8895 10.0216L35.8988 9.70639L35.8943 9.55261ZM23.5676 11.1934L23.3593 11.4033C23.1907 11.5818 23.0321 11.7699 22.8845 11.9667C21.0096 14.4664 21.2089 17.8777 23.1878 20.1386L23.415 20.385L23.4634 20.431L23.552 20.3394L23.6985 20.1967L23.849 20.057L24.1626 19.7858L24.3138 19.6721L24.4352 19.505C26.1162 17.0259 25.8553 13.7701 23.9486 11.5905L23.7213 11.3439L23.5676 11.1934ZM25.95 21.0081L26.2491 20.8168L26.5562 20.6435C28.7323 19.4933 31.4397 19.6656 33.4822 21.1975L33.7709 21.427L33.9101 21.5477L34.0458 21.6724L34.255 21.8809L34.1055 22.0346L33.8592 22.2618C31.5984 24.2406 28.1874 24.44 25.6879 22.5653L25.3992 22.3358L25.1243 22.0904L25.0175 21.9835L25.2651 21.7363L25.4307 21.5564L25.5903 21.3726L25.7906 21.1189L25.95 21.0081ZM15.5628 27.6787L15.5503 27.4176C15.8749 27.7988 16.2372 28.156 16.6364 28.4838L16.826 28.6336L17.0146 28.8712L17.3395 29.2366C17.5606 29.472 17.791 29.6908 18.0319 29.8943C17.0971 29.8418 16.1562 29.9426 15.2513 30.198C15.4822 29.3705 15.5845 28.5211 15.5628 27.6787ZM11.5327 23.2283L11.3256 23.4374C11.157 23.6159 10.9984 23.804 10.8508 24.0008C8.97594 26.5005 9.17521 29.9118 11.1541 32.1727L11.3813 32.4191L11.4302 32.4658L11.5185 32.3733L11.6653 32.2304L11.8161 32.0904L12.1309 31.8184L12.279 31.707L12.4015 31.5391C14.0825 29.06 13.8216 25.8042 11.9149 23.6246L11.6876 23.378L11.5327 23.2283ZM13.9183 33.0408L14.2172 32.8497L14.5241 32.6765C16.6986 31.5275 19.406 31.6997 21.4485 33.2316L21.7372 33.4611L21.8764 33.5819L22.0121 33.7065L22.2202 33.9142L22.0718 34.0687L21.8254 34.2959C19.5647 36.2747 16.1537 36.4741 13.6541 34.5994L13.3655 34.3699L13.2263 34.2491L13.0906 34.1245L12.9826 34.0167L13.2314 33.7704L13.397 33.5905L13.5566 33.4067L13.7541 33.1569L13.9183 33.0408Z" fill="black"/>
</svg>
