<svg width="45" height="45" viewBox="0 0 45 45" fill="none" xmlns="http://www.w3.org/2000/svg">
<path fill-rule="evenodd" clip-rule="evenodd" d="M28.9939 11.973C26.9439 11.0131 24.7493 10.5 22.5 10.5C15.7374 10.5 9.46954 15.1378 6.1377 22.6125C5.9541 23.019 5.9541 23.481 6.1377 23.8875C7.39669 26.7119 9.07487 29.1313 11.0406 31.0484L13.2698 28.6799C11.7889 27.2045 10.4942 25.3732 9.46959 23.25C12.3231 17.3372 17.2714 13.6875 22.5001 13.6875C23.9161 13.6875 25.3115 13.9552 26.6504 14.463L28.9939 11.973ZM24.182 17.0856C23.6377 16.9469 23.0727 16.875 22.5001 16.875C18.8563 16.875 15.9024 19.7292 15.9024 23.25C15.9024 24.0243 16.0453 24.7664 16.3069 25.4529L19.3946 22.1723C19.6913 21.3742 20.3081 20.7236 21.0955 20.365L24.182 17.0856ZM25.6057 24.3274L28.6919 21.0484C28.9579 21.7468 29.0978 22.4915 29.0978 23.25C29.0978 26.7708 26.1439 29.625 22.5001 29.625C21.9183 29.625 21.3542 29.5522 20.8168 29.4156L23.9043 26.1351C24.692 25.7766 25.3091 25.1258 25.6057 24.3274ZM18.3496 32.037C19.6885 32.5448 21.084 32.8125 22.5001 32.8125C27.7287 32.8125 32.677 29.1628 35.5305 23.25C34.5059 21.1268 33.2111 19.2954 31.7303 17.8201L33.9594 15.4516C35.9251 17.3687 37.6033 19.7881 38.8623 22.6125C39.0459 23.019 39.0459 23.481 38.8623 23.8875C35.5305 31.3622 29.2626 36 22.5 36C20.2507 36 18.0561 35.4869 16.0061 34.527L18.3496 32.037Z" fill="black"/>
<path d="M33.4077 9.47196C33.9755 8.8687 34.9248 8.83993 35.5281 9.4077C36.0849 9.9318 36.1523 10.781 35.7127 11.383L35.5923 11.5281L11.5923 37.0281C11.0245 37.6313 10.0752 37.6601 9.47196 37.0923C8.9151 36.5682 8.84775 35.719 9.28726 35.117L9.4077 34.972L33.4077 9.47196Z" fill="black"/>
</svg>
