<svg width="45" height="45" viewBox="0 0 45 45" fill="none" xmlns="http://www.w3.org/2000/svg">
<mask id="path-1-inside-1_295_2352" fill="white">
<path fill-rule="evenodd" clip-rule="evenodd" d="M8.03352 19.5C7.47052 19.5 7 19.937 7 20.5C7 28.7843 13.7157 35.5 22 35.5C30.2843 35.5 37 28.7843 37 20.5C37 19.937 36.5295 19.5 35.9665 19.5H8.03352Z"/>
</mask>
<path d="M22 32.5C15.3726 32.5 10 27.1274 10 20.5H4C4 30.4411 12.0589 38.5 22 38.5V32.5ZM34 20.5C34 27.1274 28.6274 32.5 22 32.5V38.5C31.9411 38.5 40 30.4411 40 20.5H34ZM35.9665 16.5H8.03352V22.5H35.9665V16.5ZM40 20.5C40 18.1527 38.0559 16.5 35.9665 16.5V22.5C35.003 22.5 34 21.7213 34 20.5H40ZM10 20.5C10 21.7213 8.99698 22.5 8.03352 22.5V16.5C5.94405 16.5 4 18.1527 4 20.5H10Z" fill="black" mask="url(#path-1-inside-1_295_2352)"/>
<path d="M24.3972 6.00672C24.734 5.97502 25.0827 6.07154 25.3636 6.30428C25.5149 6.4294 26.8184 7.58083 26.8657 9.05795C26.8833 9.61273 26.7458 10.44 25.9278 11.2074C25.5064 11.6048 25.3015 12.5851 25.3623 13.4967C25.3857 13.8501 25.432 14.1097 25.4818 14.2465C26.2617 14.9049 26.3763 15.2321 26.353 15.5819C26.3296 15.9305 26.1731 16.2389 25.9361 16.4606C25.6977 16.6838 25.3778 16.8187 25.031 16.8187C24.6545 16.7964 24.1922 16.6905 23.7592 16.309C23.479 16.0621 23.204 15.6926 23.0004 15.1242C22.7086 14.3098 22.6107 13.0686 22.8283 11.8865C23.0026 10.9399 23.3793 10.0405 23.9808 9.40621C23.3897 8.10826 23.231 7.7824 23.2008 7.44504C23.7511 5.98924 24.1109 6.03366 24.3972 6.00672Z" fill="#010002"/>
<path d="M18.93 6.00594C19.2674 5.97399 19.6173 6.07062 19.9 6.30425C20.0513 6.42937 21.3542 7.58077 21.4015 9.05725C21.4198 9.61145 21.2819 10.4395 20.4645 11.2076C20.043 11.6045 19.8387 12.5846 19.8987 13.4957C19.9221 13.8493 19.968 14.1094 20.0178 14.2461C20.7983 14.9048 20.9127 15.2319 20.8893 15.5826C20.8655 15.931 20.7089 16.2392 20.4722 16.4607C20.2338 16.6838 19.9141 16.8186 19.5674 16.8186C19.1906 16.7964 18.7284 16.6905 18.2957 16.3093C18.0155 16.0625 17.7405 15.693 17.5368 15.1247C17.2449 14.3099 17.147 13.0687 17.3645 11.8865C17.5386 10.941 17.9147 10.0424 18.5153 9.40805C17.9285 8.11466 17.7677 7.78916 17.7356 7.45117C18.2814 5.98781 18.6428 6.03314 18.93 6.00594Z" fill="#010002"/>
<path d="M15 39L29 39" stroke="black" stroke-width="3" stroke-linecap="round" stroke-linejoin="round"/>
</svg>
