<svg width="45" height="45" viewBox="0 0 45 45" fill="none" xmlns="http://www.w3.org/2000/svg">
<path fill-rule="evenodd" clip-rule="evenodd" d="M39 22.5C39 31.6127 31.6127 39 22.5 39C13.3873 39 6 31.6127 6 22.5C6 17.0473 8.64497 12.2123 12.7219 9.20809L12.9484 9.04416C13.689 8.5175 14.4749 8.05044 15.2992 7.65C17.4751 6.59291 19.9183 6 22.5 6C25.0817 6 27.5248 6.59291 29.7008 7.65L30.3441 7.98022C30.8499 8.25402 31.3397 8.55347 31.8119 8.87683L32.2781 9.20809L32.6681 9.50449C36.5229 12.5249 39 17.2232 39 22.5ZM9 22.5C9 29.9558 15.0442 36 22.5 36C29.9558 36 36 29.9558 36 22.5C36 18.1521 33.9346 14.1552 30.4981 11.6229L30.0658 11.3164L29.7029 11.0781C29.3277 10.8412 28.9184 10.6103 28.4978 10.4013L28.3752 10.3411L27.8785 10.1124C26.2075 9.38423 24.3841 9 22.5 9C20.4275 9 18.4285 9.46491 16.6104 10.3481C15.9391 10.6742 15.2959 11.0559 14.6873 11.4887L14.139 11.8998C10.9205 14.4412 9 18.3074 9 22.5Z" fill="black"/>
<path fill-rule="evenodd" clip-rule="evenodd" d="M24.7984 16.7188C24.7984 15.4382 23.7694 14.4 22.5 14.4C21.2307 14.4 20.2017 15.4382 20.2017 16.7188C20.2017 17.9994 21.2307 19.0376 22.5 19.0376C23.7694 19.0376 24.7984 17.9994 24.7984 16.7188Z" fill="black"/>
<path fill-rule="evenodd" clip-rule="evenodd" d="M24.2238 28.8924C24.2238 29.8529 23.452 30.6315 22.5 30.6315C21.548 30.6315 20.7762 29.8529 20.7762 28.8924V23.0954C20.7762 22.135 21.548 21.3563 22.5 21.3563C23.452 21.3563 24.2238 22.135 24.2238 23.0954V28.8924Z" fill="black"/>
</svg>
