<svg width="45" height="45" viewBox="0 0 45 45" fill="none" xmlns="http://www.w3.org/2000/svg">
<g clip-path="url(#clip0_1400_1414)">
<path d="M22.5 10.2038C26.505 10.2038 26.98 10.2188 28.5625 10.2913C32.6275 10.4763 34.5262 12.405 34.7112 16.44C34.7837 18.0212 34.7975 18.4963 34.7975 22.5013C34.7975 26.5075 34.7825 26.9813 34.7112 28.5625C34.525 32.5938 32.6313 34.5262 28.5625 34.7112C26.98 34.7837 26.5075 34.7988 22.5 34.7988C18.495 34.7988 18.02 34.7837 16.4388 34.7112C12.3638 34.525 10.475 32.5875 10.29 28.5613C10.2175 26.98 10.2025 26.5062 10.2025 22.5C10.2025 18.495 10.2188 18.0213 10.29 16.4388C10.4763 12.405 12.37 10.475 16.4388 10.29C18.0213 10.2188 18.495 10.2038 22.5 10.2038ZM22.5 7.5C18.4262 7.5 17.9162 7.5175 16.3162 7.59C10.8688 7.84 7.84125 10.8625 7.59125 16.315C7.5175 17.9163 7.5 18.4262 7.5 22.5C7.5 26.5738 7.5175 27.085 7.59 28.685C7.84 34.1325 10.8625 37.16 16.315 37.41C17.9163 37.4825 18.4262 37.5 22.5 37.5C26.5738 37.5 27.085 37.4825 28.685 37.41C34.1275 37.16 37.1625 34.1375 37.4088 28.685C37.4825 27.085 37.5 26.5738 37.5 22.5C37.5 18.4262 37.4825 17.9162 37.41 16.3162C37.165 10.8737 34.1387 7.84125 28.6862 7.59125C27.085 7.5175 26.5738 7.5 22.5 7.5ZM22.5 14.7975C18.2462 14.7975 14.7975 18.2462 14.7975 22.5C14.7975 26.7538 18.2462 30.2038 22.5 30.2038C26.7538 30.2038 30.2025 26.755 30.2025 22.5C30.2025 18.2462 26.7538 14.7975 22.5 14.7975ZM22.5 27.5C19.7387 27.5 17.5 25.2625 17.5 22.5C17.5 19.7387 19.7387 17.5 22.5 17.5C25.2613 17.5 27.5 19.7387 27.5 22.5C27.5 25.2625 25.2613 27.5 22.5 27.5ZM30.5075 12.6938C29.5125 12.6938 28.7063 13.5 28.7063 14.4937C28.7063 15.4875 29.5125 16.2937 30.5075 16.2937C31.5013 16.2937 32.3062 15.4875 32.3062 14.4937C32.3062 13.5 31.5013 12.6938 30.5075 12.6938Z" fill="black"/>
</g>
<defs>
<clipPath id="clip0_1400_1414">
<rect width="30" height="30" fill="white" transform="translate(7.5 7.5)"/>
</clipPath>
</defs>
</svg>
