<svg width="45" height="45" viewBox="0 0 45 45" fill="none" xmlns="http://www.w3.org/2000/svg">
<path fill-rule="evenodd" clip-rule="evenodd" d="M22.5 9.15002C22.9142 9.15002 23.2892 9.31792 23.5607 9.58936C23.7869 9.81557 23.9412 10.1137 23.9863 10.4465L24 10.65V12.5322C27.7443 12.9144 31.078 14.7056 33.4584 17.3661C35.5674 19.7232 36.9282 22.7626 37.1636 26.1131L37.1914 26.6446L37.2 28.928C37.2 29.3069 37.0464 29.6499 36.7981 29.8982C36.5912 30.1051 36.3185 30.2462 36.0141 30.2875L35.828 30.3H9.44201C8.98858 30.3 8.57808 30.1162 8.28093 29.8191C8.02623 29.5644 7.85482 29.2264 7.81104 28.8495L7.79999 28.658V27.15C7.79999 23.3944 9.21587 19.9653 11.5415 17.3661C13.7153 14.9367 16.6839 13.232 20.0342 12.6633L20.5396 12.5866L21.0001 10.6321C21.0049 10.225 21.1718 9.8569 21.4393 9.58936C21.6655 9.36316 21.9637 9.20887 22.2965 9.16372L22.5 9.15002ZM37.35 32.25C37.7642 32.25 38.1392 32.4179 38.4107 32.6894C38.6821 32.9608 38.85 33.3358 38.85 33.75C38.85 34.1642 38.6821 34.5392 38.4107 34.8107C38.1392 35.0821 37.7642 35.25 37.35 35.25H7.64999C7.23578 35.25 6.86078 35.0821 6.58933 34.8107C6.31789 34.5392 6.14999 34.1642 6.14999 33.75C6.14999 33.3358 6.31789 32.9608 6.58933 32.6894C6.86078 32.4179 7.23578 32.25 7.64999 32.25H37.35ZM14.2312 18.8812C16.3499 16.7624 19.275 15.45 22.5 15.45C25.725 15.45 28.6501 16.7624 30.7688 18.8812C32.5843 20.6967 33.8079 23.1042 34.1208 25.7853L34.1702 26.3111L34.196 26.8434L10.8009 27.2971C10.7936 26.7046 10.8306 26.1218 10.9088 25.552C11.2638 22.9647 12.4685 20.6439 14.2312 18.8812Z" fill="black"/>
</svg>
