<svg width="45" height="45" viewBox="0 0 45 45" fill="none" xmlns="http://www.w3.org/2000/svg">
<path fill-rule="evenodd" clip-rule="evenodd" d="M39 33.45C39 34.3613 38.2613 35.1 37.35 35.1H7.65C6.73873 35.1 6 34.3613 6 33.45C6 32.5387 6.73873 31.8 7.65 31.8H37.35C38.2613 31.8 39 32.5387 39 33.45ZM39 23.55C39 24.4613 38.2613 25.2 37.35 25.2H7.65C6.73873 25.2 6 24.4613 6 23.55C6 22.6387 6.73873 21.9 7.65 21.9H37.35C38.2613 21.9 39 22.6387 39 23.55ZM39 13.65C39 14.5613 38.2613 15.3 37.35 15.3H7.65C6.73873 15.3 6 14.5613 6 13.65C6 12.7387 6.73873 12 7.65 12H37.35C38.2613 12 39 12.7387 39 13.65Z" fill="black"/>
</svg>
