<svg width="45" height="45" viewBox="0 0 45 45" fill="none" xmlns="http://www.w3.org/2000/svg">
<path fill-rule="evenodd" clip-rule="evenodd" d="M28.9023 13.661C28.1797 12.6513 26.9534 12 25.6534 12H19.5311L19.3122 12.0059C18.2228 12.065 17.2076 12.5778 16.2002 13.8546C14.0407 14.1323 11.99 15.1697 10.5589 16.7726C9.66081 17.7548 9.15287 18.9702 9.03338 20.2159C7.51235 21.8238 6.23593 23.6185 5.20591 25.5124C4.72644 26.3366 4.48855 27.2638 4.50042 28.1902C4.51211 29.1022 4.76564 30.0136 5.26912 30.8257C6.15811 32.3287 7.92731 33.2393 9.71221 33.2393C10.3459 33.2393 10.9748 33.1554 11.5386 32.8824L17.2834 30.6051L17.4918 30.6708C18.192 30.8796 18.9599 30.9844 20.1768 30.9613C20.7834 31.6656 21.6548 32.0841 22.5922 32.0841C23.5279 32.0841 24.3974 31.6671 25.5379 30.9867C26.3412 30.9867 27.1317 30.859 27.8867 30.6151L33.6795 32.9535L33.9604 33.047C34.4372 33.1856 34.9541 33.2393 35.4723 33.2393C37.0936 33.2393 38.9109 32.4867 40.021 30.9568C40.531 30.1409 40.7878 29.2236 40.7996 28.3057C40.8114 27.3875 40.5778 26.4685 40.1067 25.6501C39.0828 23.6083 37.6841 21.7268 36.0609 20.0585C35.8979 18.9154 35.4051 17.8102 34.5761 16.897C33.1839 15.2831 31.208 14.2516 28.9023 13.661ZM7.56527 26.907C8.20652 25.7127 8.91723 24.6497 9.71893 23.6332C9.92412 24.015 10.1732 24.3786 10.4658 24.716L10.6934 24.964L14.3717 28.8048L10.5176 30.3644C10.0967 30.5229 9.57725 30.5468 9.0749 30.4331L8.82569 30.3648C8.32888 30.204 7.8628 29.8978 7.56527 29.4219C7.32678 29.0316 7.20624 28.5983 7.20624 28.1644C7.20624 27.7306 7.32678 27.2973 7.56527 26.907ZM35.464 23.6405L35.2955 23.9475C35.058 24.3514 34.7694 24.7333 34.4297 25.0833L30.8509 28.8208L34.6669 30.3643L34.8814 30.4304C35.324 30.5392 35.8431 30.5084 36.3232 30.3507C36.8164 30.1887 37.2779 29.8876 37.5607 29.423C37.7993 29.0326 37.9201 28.6006 37.9276 28.1733C37.9351 27.7452 37.8291 27.3217 37.5966 26.9252C36.9774 25.7692 36.2664 24.6744 35.464 23.6405ZM19.5311 14.7567H25.6534C26.0083 14.7567 26.3643 14.9034 26.6106 15.2005C26.9136 16.1108 26.9864 16.4149 26.9286 16.6581L26.9115 16.7179L23.059 28.9081L18.2749 16.7238C18.1216 16.2255 18.1931 15.726 18.4971 15.3025C18.7169 15.0245 19.0129 14.8151 19.3729 14.7671L19.5311 14.7567ZM15.46 16.7939C14.3729 17.1207 13.3833 17.7463 12.6164 18.594C12.1054 19.1459 11.8444 19.8366 11.8414 20.7163C11.8414 21.605 12.1735 22.4006 12.7826 23.0567L16.6184 27.064L16.7925 27.205C17.1491 27.4769 17.5612 27.6952 18.1212 27.9659C18.3919 28.0506 18.6711 28.1116 18.9549 28.1483L15.6541 17.5646L15.5722 17.3146C15.5233 17.1454 15.4859 16.9713 15.46 16.7939ZM29.532 17.5591C29.6165 17.3056 29.6781 17.0632 29.7173 16.8232C30.7738 17.1633 31.7576 17.7441 32.5167 18.543C33.0907 19.163 33.3661 19.9546 33.3578 20.7463C33.3503 21.4659 33.1094 22.1862 32.6504 22.7755L32.468 22.9901L28.6124 27.0184C28.0133 27.5808 27.2733 27.9379 26.4844 28.0956L26.1864 28.1454L29.532 17.5591Z" fill="black"/>
</svg>
