<svg width="45" height="45" viewBox="0 0 45 45" fill="none" xmlns="http://www.w3.org/2000/svg">
<path fill-rule="evenodd" clip-rule="evenodd" d="M39 22.5C39 13.3873 31.6127 6 22.5 6C13.3873 6 6 13.3873 6 22.5C6 27.9527 8.64497 32.7877 12.7219 35.7919L12.9484 35.9558C13.689 36.4825 14.4749 36.9496 15.2992 37.35C17.4751 38.4071 19.9183 39 22.5 39C25.0817 39 27.5248 38.4071 29.7008 37.35L30.3441 37.0198C30.8499 36.746 31.3397 36.4465 31.8119 36.1232L32.2781 35.7919L32.6681 35.4955C36.5229 32.4751 39 27.7768 39 22.5ZM9 22.5C9 15.0442 15.0442 9 22.5 9C29.9558 9 36 15.0442 36 22.5C36 26.8479 33.9346 30.8448 30.4981 33.3771L30.0658 33.6836L29.7029 33.9219C29.3277 34.1588 28.9184 34.3897 28.4978 34.5987L28.3752 34.6589L27.8785 34.8876C26.2075 35.6158 24.3841 36 22.5 36C20.4275 36 18.4285 35.5351 16.6104 34.6519C15.9391 34.3258 15.2959 33.9441 14.6873 33.5113L14.139 33.1002C10.9205 30.5588 9 26.6926 9 22.5Z" fill="black"/>
<path d="M18 27.3801V16.8215C17.9999 16.3724 18.2414 15.9579 18.6321 15.7364C19.0229 15.515 19.5025 15.5208 19.8878 15.7517L28.6858 21.031C29.062 21.2562 29.2923 21.6624 29.2923 22.1008C29.2923 22.5392 29.062 22.9455 28.6858 23.1706L19.8878 28.45C19.5021 28.6811 19.022 28.6866 18.631 28.4646C18.2401 28.2425 17.999 27.8272 18 27.3777V27.3801Z" fill="black"/>
</svg>
