<svg width="45" height="45" viewBox="0 0 45 45" fill="none" xmlns="http://www.w3.org/2000/svg">
<path fill-rule="evenodd" clip-rule="evenodd" d="M36.4817 25.9528C40.9337 21.5008 40.9337 14.2828 36.4817 9.83079C32.0298 5.37882 24.8117 5.37882 20.3597 9.83079C18.6388 11.5517 17.433 14.5535 16.6203 18.8689C16.3792 20.1496 15.7571 21.3277 14.8356 22.2492L14.6145 22.4703L14.4556 22.6407C13.3434 23.9209 13.3903 25.8589 14.5964 27.0836L13.4219 28.2598L13.307 28.1857L13.0789 28.0569C11.5375 27.2507 9.58972 27.4951 8.29469 28.7901C6.69842 30.3864 6.69842 32.9744 8.29469 34.5707L8.49466 34.7578L8.735 34.9526C9.2275 35.3219 9.78839 35.5684 10.3731 35.6867L10.59 35.7226L10.6258 35.9394L10.6944 36.2251C10.8784 36.8863 11.2303 37.5063 11.7418 38.0178C13.3381 39.6141 15.9262 39.6141 17.5224 38.0178L17.6932 37.8365L17.8659 37.6283C18.9093 36.2825 18.9963 34.4349 18.1268 33.0055L18.0528 32.8906L19.2301 31.7133L19.3818 31.8576C20.6684 32.9746 22.6188 32.9214 23.8422 31.6981L24.0656 31.4749L24.3494 31.2079C25.223 30.4345 26.2915 29.9097 27.4429 29.6928C31.7588 28.8797 34.7609 27.6737 36.4817 25.9528ZM15.0857 34.4833L15.189 34.5707C15.4965 34.8782 15.4965 35.3768 15.189 35.6844C14.8814 35.9919 14.3828 35.9919 14.0753 35.6844L13.9843 35.5755L13.9157 35.4548C13.8202 35.2457 13.8192 35.0012 13.9208 34.7881L14.2609 34.0754L14.972 34.4164L15.0857 34.4833ZM11.7418 31.1235C11.4343 30.816 10.9357 30.816 10.6281 31.1235C10.3206 31.4311 10.3206 31.9297 10.6281 32.2372C10.8321 32.4412 11.1258 32.5135 11.3933 32.4405L11.5244 32.3917L12.2361 32.0506L11.8963 31.341L11.8654 31.2828L11.8294 31.227L11.7418 31.1235ZM22.6931 12.1642C25.8564 9.001 30.985 9.001 34.1483 12.1642C37.3115 15.3275 37.3115 20.4561 34.1483 23.6194C33.003 24.7647 30.5533 25.7488 26.832 26.4499L26.3891 26.544L25.9524 26.6581C24.3631 27.1129 22.9099 27.9649 21.7334 29.1402L21.5275 29.3459L16.9666 24.785L17.169 24.5827L17.482 24.2549C18.7013 22.917 19.5272 21.2643 19.8633 19.4796C20.564 15.7588 21.5479 13.3095 22.6931 12.1642Z" fill="black"/>
</svg>
