<svg width="45" height="45" viewBox="0 0 45 45" fill="none" xmlns="http://www.w3.org/2000/svg">
<path fill-rule="evenodd" clip-rule="evenodd" d="M22.5 6C31.6127 6 39 13.3873 39 22.5C39 27.9527 36.355 32.7877 32.2781 35.7919C31.5111 36.3571 30.6934 36.8575 29.8332 37.285C29.8061 37.2984 29.779 37.3118 29.7518 37.3251C29.7348 37.3334 29.7178 37.3417 29.7008 37.35C27.5248 38.4071 25.0817 39 22.5 39C19.9183 39 17.4751 38.4071 15.2992 37.35C14.4749 36.9496 13.689 36.4825 12.9484 35.9558C12.8724 35.9018 12.7969 35.8472 12.7219 35.7919C8.64497 32.7877 6 27.9527 6 22.5C6 13.3873 13.3873 6 22.5 6ZM22.5 9.3C29.7902 9.3 35.7 15.2098 35.7 22.5C35.7 26.4921 33.9279 30.0702 31.1274 32.4907C29.4289 29.4816 26.2017 27.45 22.5 27.45C18.7983 27.45 15.5711 29.4816 13.8726 32.4907C11.0721 30.0702 9.3 26.4921 9.3 22.5C9.3 15.2098 15.2098 9.3 22.5 9.3ZM22.5 30.75C19.9444 30.75 17.7281 32.2025 16.6315 34.327C18.3992 35.2058 20.3919 35.7 22.5 35.7C24.6081 35.7 26.6008 35.2058 28.3685 34.327C27.2719 32.2025 28.3685 34.327 28.3685 34.327C27.2719 32.2025 25.0556 30.75 22.5 30.75ZM22.5 12.6C26.1451 12.6 29.1 15.5549 29.1 19.2C29.1 22.8451 26.1451 25.8 22.5 25.8C18.8549 25.8 15.9 22.8451 15.9 19.2C15.9 15.5549 18.8549 12.6 22.5 12.6ZM22.5 15.9C24.3225 15.9 25.8 17.3775 25.8 19.2C25.8 21.0225 24.3225 22.5 22.5 22.5C20.6775 22.5 19.2 21.0225 19.2 19.2C19.2 17.3775 20.6775 15.9 22.5 15.9Z" fill="black"/>
</svg>
