<svg width="45" height="45" viewBox="0 0 45 45" fill="none" xmlns="http://www.w3.org/2000/svg">
<path fill-rule="evenodd" clip-rule="evenodd" d="M25.9174 18.3845C26.616 18.3845 26.7853 18.8492 26.4547 19.5412L20.8737 30.3743C20.5715 31.0584 20.0945 31.4198 19.4648 31.4198C18.8074 31.4198 18.5528 31.0121 18.7477 30.3401L18.8007 30.1804L24.3175 19.4717C24.7583 18.7573 25.294 18.3845 25.9174 18.3845ZM26.2907 24.5464C27.7064 24.5464 28.7687 25.3342 28.8766 26.6116L28.8857 26.829V28.3159C28.8857 29.7208 27.7851 30.5985 26.2907 30.5985C24.865 30.5985 23.8116 29.8145 23.7046 28.5339L23.6956 28.3159V26.829C23.6956 25.42 24.7858 24.5464 26.2907 24.5464ZM27.3409 26.7244C27.2808 26.1426 26.8951 25.808 26.2906 25.808C25.6202 25.808 25.232 26.2009 25.232 26.8891V28.2559L25.24 28.4217C25.2987 29.0068 25.6761 29.3369 26.2906 29.3369C26.95 29.3369 27.3492 28.9387 27.3492 28.2559V26.8891L27.3409 26.7244ZM21.456 21.3402C21.3481 20.0628 20.2858 19.275 18.87 19.275C17.3652 19.275 16.275 20.1486 16.275 21.5576V23.0445L16.284 23.2625C16.3909 24.5431 17.4444 25.3271 18.87 25.3271C20.3644 25.3271 21.465 24.4494 21.465 23.0445V21.5576L21.456 21.3402ZM18.8699 20.5366C19.4744 20.5366 19.8602 20.8712 19.9203 21.453L19.9285 21.6177V22.9844C19.9285 23.6673 19.5294 24.0655 18.8699 24.0655C18.2654 24.0655 17.8797 23.7309 17.8196 23.1491L17.8113 22.9844V21.6177C17.8113 20.9295 18.1995 20.5366 18.8699 20.5366Z" fill="black"/>
<path fill-rule="evenodd" clip-rule="evenodd" d="M36.1724 4.77413L35.7655 4.67812L35.3566 4.60302C33.3083 4.27964 31.2108 4.73759 29.4854 5.9378L29.2344 6.12595L29.1969 6.15821L29.1441 6.22166L28.8996 6.56007L28.8659 6.63198L28.8121 6.76362L28.7634 6.97938L28.7354 7.14711L28.7299 7.25534L28.7772 7.62685L28.9488 8.03355L29.2324 8.37375L29.5441 8.58756L30.2002 8.72L30.3676 8.74376L30.4724 8.74362L30.5534 8.72404L30.8674 8.61399L31.564 8.26545C31.8616 8.12548 32.1847 7.98699 32.5405 7.85094L32.811 7.75051L33.1103 7.69281L33.1293 7.68953C34.0257 7.53498 36.1658 7.16598 37.9974 9.31113L38.1472 9.6384L38.2872 9.98211C39.2868 12.617 38.612 15.2337 37.2267 16.8548L37.1934 14.9864L37.1771 14.6882C36.9741 12.47 35.1495 10.7715 32.9171 10.7084L32.7857 10.701L22.9716 10.8641L22.813 10.8731L22.7045 10.8851C21.4433 10.9305 20.1198 11.5083 19.1381 12.4907L5.69775 25.5973L5.50017 25.801L5.31941 26.0167C4.63044 26.9021 4.35269 28.0496 4.57482 29.1625L4.60349 29.2905L4.60808 29.3357L4.65286 29.5749C4.72825 29.8898 4.86582 30.1874 5.05826 30.4501L5.10899 30.513L5.17256 30.6167C5.32043 30.8422 5.49146 31.0528 5.68246 31.2445L7.8009 33.3122L9.06526 34.5295L10.2302 35.6361L11.3031 36.6365L12.2918 37.5351L12.9078 38.0797L13.4919 38.5824L14.0463 39.0445L14.5733 39.4672C14.659 39.5345 14.7437 39.6001 14.8273 39.6642L15.3174 40.0304L15.7857 40.3605C15.8621 40.4126 15.9376 40.4633 16.0124 40.5125L16.4522 40.791C16.8835 41.0529 17.2905 41.2657 17.6833 41.4353L18.0717 41.5906L18.4528 41.7185C18.5789 41.7566 18.7041 41.7905 18.8289 41.8201L19.2023 41.8969C19.575 41.9617 19.9469 41.9911 20.3281 41.9911L20.5891 42.0037L20.8912 41.9933C21.4981 41.9467 22.1172 41.7449 22.67 41.4056L22.8345 41.295L22.9477 41.2957L35.7274 28.8011L36.0193 28.4882C36.8746 27.5193 37.3539 26.2781 37.3627 24.9855L37.3627 24.8493L37.2971 20.7744C38.0022 20.5034 38.5457 20.1698 38.9387 19.7378C42.1157 16.2455 43.0014 11.1249 40.558 7.7689L40.5115 7.7961C40.0367 6.18932 36.1724 4.77413 36.1724 4.77413ZM40.5115 7.7961L37.9813 9.27595L37.9974 9.31113C38.0058 9.32095 38.0142 9.33084 38.0226 9.34077L39.5894 8.37375C39.5894 8.37375 40.9276 9.48022 40.5263 7.85094C40.5218 7.83263 40.5169 7.81435 40.5115 7.7961ZM32.8954 13.7138L32.7315 13.6995L23.0251 13.8658L22.9622 13.871C22.3977 13.8941 21.8607 14.1005 21.4261 14.461L21.2463 14.6249L7.78327 27.7537C7.57334 27.9551 7.47468 28.2307 7.50563 28.5034L7.53199 28.6391L7.57799 28.8165L7.64768 28.9164L7.69347 28.99L7.74336 29.0569L7.79368 29.1132L9.44937 30.7321L11.428 32.6348L12.4906 33.6365L13.4668 34.5382L14.0726 35.0856L14.6444 35.5916L15.1838 36.0572L15.6928 36.4836L16.1729 36.8719L16.626 37.2234L17.0537 37.5393L17.4579 37.8206C17.5888 37.9087 17.7162 37.9913 17.8401 38.0686L18.2023 38.2844C18.261 38.3178 18.3191 38.3498 18.3763 38.3806L18.7115 38.5504C19.0931 38.7312 19.4424 38.8523 19.7719 38.9221L20.0497 38.9696C20.1409 38.9814 20.2308 38.9891 20.3196 38.9931L20.4521 38.9962C20.7101 39.0176 20.9647 38.9473 21.1684 38.8034L21.2841 38.7085L21.7184 38.2957L33.5949 26.6924L33.5556 26.739L33.6709 26.6089C34.0568 26.2209 34.2939 25.722 34.3499 25.2001L34.3627 24.9753L34.3621 24.7879L34.1936 15.0127C34.1737 14.3587 33.6691 13.8177 32.8954 13.7138Z" fill="black"/>
<path fill-rule="evenodd" clip-rule="evenodd" d="M13.1147 23.1065C11.3819 22.8985 9.70301 22.4014 8.17596 21.6424C10.8939 24.087 13.4274 25.2108 14.636 25.3379C14.6987 25.3445 14.7616 25.3486 14.8249 25.3498C14.5089 24.6499 14.4125 23.8981 14.5448 23.1698C14.0676 23.1773 13.59 23.1564 13.1147 23.1065Z" fill="black"/>
</svg>
