<svg width="45" height="45" viewBox="0 0 45 45" fill="none" xmlns="http://www.w3.org/2000/svg">
<path fill-rule="evenodd" clip-rule="evenodd" d="M28.6031 10.504C27.1351 9.37303 25.2983 8.69995 23.3073 8.69995C21.3322 8.69995 19.5091 9.36248 18.0473 10.4773C16.6615 11.5342 15.6006 12.9978 15.0428 14.6885C13.5646 13.6901 11.8316 13.2444 10.2206 13.4549C8.80896 13.6389 7.59038 14.3214 6.78552 15.3702C5.81326 16.6372 5.46325 18.4272 5.86191 20.1615C6.21155 21.6826 7.10398 22.9129 8.43405 23.9861C8.5978 24.8542 9.6925 30.6522 10.1435 32.6737C10.3443 33.5731 10.9003 34.379 11.6404 34.9603C12.387 35.5468 13.3186 35.9025 14.2483 35.9025H32.3541L32.6638 35.8895C33.4886 35.8206 34.2986 35.4815 34.9624 34.9602C35.7025 34.3789 36.2585 33.573 36.459 32.6738C36.6511 31.8116 36.9598 30.2627 37.4025 27.9832C37.7585 26.1398 38.0807 24.427 38.1634 23.986C39.515 22.8825 40.37 21.3989 40.6745 19.8955C40.9933 18.3214 40.7089 16.7277 39.7732 15.5097C38.9688 14.4614 37.7506 13.7789 36.3392 13.5945C34.7582 13.3882 33.0606 13.8135 31.6008 14.773C31.0552 13.0607 29.9951 11.5764 28.6031 10.504ZM11.5888 25.5599H35.0138L33.6635 32.0277C33.5907 32.2914 33.3957 32.538 33.1569 32.7223C32.965 32.8705 32.7417 32.9809 32.5198 33.0191L32.3541 33.0337H14.2483C13.9743 33.0337 13.6855 32.9075 13.4455 32.7223C13.2545 32.5749 13.0915 32.3876 12.9966 32.1835L12.9389 32.0277L11.5888 25.5599ZM8.85749 17.4465L8.82353 17.5122C8.55728 18.0831 8.49583 18.8144 8.65769 19.5189C8.8657 20.4236 9.52674 21.7194 11.4251 22.691H15.4416L8.85749 17.4465ZM10.5918 16.2999C11.6144 16.1659 12.7448 16.5188 13.6965 17.2524C14.3927 17.7887 14.9156 18.4674 15.2054 19.2177C15.3805 19.6705 15.7726 20.004 16.2479 20.1042C16.7235 20.2044 17.2167 20.0571 17.5595 19.7133C17.8185 19.4535 18.2391 19.4407 18.6752 19.5005C19.4891 19.6122 20.399 20.028 20.8777 20.2693C21.0227 20.3473 21.4656 20.6826 21.9183 21.0412C21.7772 21.4825 21.7012 21.9276 21.6923 22.3649L21.6982 22.6912H19.4104L8.87399 17.4135L8.93293 17.306L9.06132 17.117C9.50168 16.5432 10.1384 16.359 10.5918 16.2999ZM35.9676 16.4394C34.945 16.3054 33.8143 16.6582 32.8626 17.3916C32.1673 17.9274 31.6442 18.6067 31.3533 19.3579C31.1781 19.8107 30.7855 20.1439 30.3104 20.2436C29.8357 20.3439 29.3421 20.1962 28.9992 19.8523C28.6975 19.5492 28.2111 19.4558 27.6845 19.5147C27.1003 19.58 26.4599 19.8383 25.9008 20.2689C25.3712 20.6771 24.979 21.161 24.7592 21.6421C24.5918 22.0084 24.5225 22.3732 24.5871 22.6912H27.2201L37.1448 19.5433L31.3176 22.6913H33.9102L34.2069 22.645C34.8973 22.5093 35.5718 22.1826 36.176 21.717C37.0078 21.0763 37.572 20.2451 37.8057 19.4165C38.0269 18.632 37.9512 17.8475 37.4976 17.257C37.057 16.683 36.4207 16.4986 35.9676 16.4394ZM19.309 13.1622C20.3538 12.1748 21.7611 11.5687 23.3073 11.5687C24.8746 11.5687 26.2992 12.1915 27.3481 13.2028C28.306 14.1264 28.9509 15.374 29.1051 16.7675C27.5635 16.3945 25.7023 16.8005 24.1499 17.9964C23.9008 18.1883 23.6704 18.391 23.458 18.6018C22.9925 18.2404 22.4732 17.8605 22.1793 17.7128C20.1299 16.6795 18.6222 16.4843 17.5206 16.6723C17.6959 15.2966 18.3498 14.0687 19.309 13.1622Z" fill="black"/>
<path d="M23.3073 15.0711C23.6832 15.0711 23.9879 14.7665 23.9879 14.3906V13.2555C23.9879 12.8798 23.6832 12.575 23.3073 12.575C22.9314 12.575 22.6267 12.8798 22.6267 13.2555V14.3906C22.6267 14.7665 22.9314 15.0711 23.3073 15.0711Z" fill="black"/>
<path d="M25.5796 15.9258C25.6867 15.9874 25.8036 16.0168 25.9188 16.0168C26.1542 16.0168 26.3833 15.8945 26.5093 15.6757L27.0758 14.6923C27.2635 14.3666 27.1514 13.9504 26.8258 13.7627C26.5 13.5752 26.084 13.6869 25.8962 14.0128L25.3297 14.9961C25.1419 15.3219 25.2539 15.7382 25.5796 15.9258Z" fill="black"/>
<path d="M20.1062 15.676C20.2322 15.8946 20.4612 16.0169 20.6966 16.0169C20.8118 16.0169 20.9288 15.9875 21.0358 15.9258C21.3616 15.7381 21.4735 15.3219 21.2856 14.9962L20.7188 14.0129C20.5312 13.687 20.1148 13.5752 19.7892 13.763C19.4634 13.9507 19.3515 14.3669 19.5394 14.6926L20.1062 15.676Z" fill="black"/>
</svg>
