<svg width="45" height="45" viewBox="0 0 45 45" fill="none" xmlns="http://www.w3.org/2000/svg">
<path fill-rule="evenodd" clip-rule="evenodd" d="M31.938 13.4868L31.41 11.9912C30.7084 10.1925 28.8287 8.99265 26.724 9H18.276C16.1496 9.00361 14.2633 10.2378 13.59 12.066L13.062 13.5616H10.95C8.21619 13.5616 6 15.5704 6 18.0484V30.0132C6 32.4912 8.21619 34.5 10.95 34.5H34.0499C36.7838 34.5 38.9999 32.4912 38.9999 30.0132V18.0484C39.0221 16.8455 38.5103 15.685 37.5796 14.8273C36.6489 13.9696 35.3772 13.4866 34.0499 13.4868H31.938ZM34.0499 31.6337H10.95C10.0387 31.6337 9.29999 30.9621 9.29999 30.1337V18.1337C9.29999 17.3053 10.0387 16.6337 10.95 16.6337H14.25C14.9894 16.6688 15.664 16.2518 15.9 15.6137L16.791 13.1537C17.018 12.5427 17.6491 12.132 18.3585 12.1337H26.8065C27.5158 12.132 28.147 12.5427 28.374 13.1537L29.265 15.6137C29.4817 16.1993 30.0711 16.6042 30.75 16.6337H34.0499C34.9612 16.6337 35.6999 17.3053 35.6999 18.1337V30.1337C35.6999 30.9621 34.9612 31.6337 34.0499 31.6337ZM15.9 23.1014C15.9 26.5627 18.8549 29.3687 22.5 29.3687C26.145 29.3687 29.1 26.5627 29.1 23.1014C29.1 21.4392 28.4046 19.8451 27.1669 18.6698C25.9291 17.4944 24.2504 16.8341 22.5 16.8341C18.8549 16.8341 15.9 19.6401 15.9 23.1014ZM19.2 23.1014C19.2 21.3707 20.6774 19.9677 22.5 19.9677C24.3225 19.9677 25.8 21.3707 25.8 23.1014C25.8 24.832 24.3225 26.235 22.5 26.235C20.6774 26.235 19.2 24.832 19.2 23.1014Z" fill="black"/>
</svg>
