<svg width="45" height="45" viewBox="0 0 45 45" fill="none" xmlns="http://www.w3.org/2000/svg">
<path fill-rule="evenodd" clip-rule="evenodd" d="M30.1538 31.8089C29.2443 30.1237 27.8319 28.8289 26.174 28.0519C24.4067 27.2237 22.3604 26.9839 20.3469 27.4873L18.832 27.866L18.8739 29.5477L18.9455 29.9927C19.1815 31.1646 19.7666 32.2256 20.4352 33.3236C19.527 34.2325 18.9359 35.4607 18.8469 36.8314L18.8013 38.2175L20.7287 38.6896L21.1795 38.7688C22.9821 39.0376 24.7747 38.7321 26.3382 37.9596C28.0381 37.1198 29.4672 35.7282 30.3377 33.9215L30.3547 32.2046L30.1538 31.8089ZM21.6917 29.9451L21.956 29.927C23.2148 29.8731 24.3003 30.1086 25.238 30.5738C26.1921 31.047 26.9927 31.7573 27.5725 32.6517L27.7794 32.9955L27.8063 33.0464L27.7819 33.094L27.6145 33.378C26.9825 34.386 26.075 35.1649 25.0278 35.6489C24.0995 36.0779 23.0613 36.2752 22.0105 36.1953L21.6768 36.1587L21.703 36.0906C21.8825 35.6653 22.167 35.2921 22.524 35.0031L22.7466 34.84C23.1667 34.5626 23.6656 34.3931 24.2012 34.3734L24.4719 34.3763V31.7252L24.0819 31.7104L23.8328 31.6795C23.3186 31.5926 22.8518 31.3663 22.4725 31.041C22.1656 30.7778 21.9159 30.4498 21.7454 30.0803L21.6917 29.9451Z" fill="black"/>
<path d="M34.7245 23.3307L37.4035 24.066C35.5647 26.8992 32.9539 28.2925 30.1616 28.2546L28.4095 28.1539L28.5766 25.5066L29.9324 25.5922C31.8335 25.711 33.6441 24.8369 34.7245 23.3307Z" fill="black"/>
<path d="M34.3767 17.6244L36.1378 19.6059L32.9853 22.4068C30.767 24.1815 28.4054 24.8291 26.0653 24.5329L25.9791 21.8334C27.6268 22.1592 29.3297 21.7937 30.6578 20.8688L34.3767 17.6244Z" fill="black"/>
<path d="M29.0155 13.9307L30.8004 15.8915L25.9845 20.2744C23.4648 22.3411 20.5388 22.9003 17.8519 22.0788L18.2309 19.4196C20.3615 20.0685 22.2426 19.7604 23.6762 18.7342L29.0155 13.9307Z" fill="black"/>
<path fill-rule="evenodd" clip-rule="evenodd" d="M23.5398 12.6541H12.204V14.49L12.2166 14.9373C12.3007 16.4206 12.8033 17.8229 13.6922 19.0313C14.6331 20.3105 16.0075 21.3731 17.779 22.0817C20.2068 23.0528 22.7092 23.8258 25.2618 24.393C25.9556 24.5472 26.5265 24.9617 26.8922 25.5124C27.2579 26.0632 27.4183 26.7502 27.2912 27.4495C26.9923 29.2024 27.1378 30.3914 27.6769 31.0409C28.0823 31.5294 28.4621 32.267 28.8205 33.2512H30.5079L30.9714 33.0419C33.2617 31.9454 35.1347 30.103 36.3976 27.5772C37.5255 25.3215 37.8092 22.7367 37.1975 20.2899C36.5765 17.8059 34.8505 15.7417 31.8905 14.4262C29.2616 13.2578 26.4167 12.6541 23.5398 12.6541ZM14.9852 15.648L23.5398 15.3066C26.0456 15.3066 28.5234 15.8324 30.8132 16.8501C33.0062 17.8247 34.1985 19.2305 34.6242 20.9333C35.0823 22.7657 34.8698 24.7016 34.0281 26.3854C32.899 28.4423 31.6045 29.7278 30.0729 30.5258L29.7411 30.6895L29.9027 27.9139C30.154 26.5172 29.8325 25.1454 29.102 24.0452C28.3697 22.9424 27.2265 22.1124 25.8372 21.8037C23.4244 21.2675 21.059 20.5368 18.7641 19.6189C16.7059 18.7956 15.518 17.4979 15.0658 15.9589L14.9852 15.648Z" fill="black"/>
<path d="M11.5511 8.98254C11.5437 10.0765 11.7174 10.8196 12.1782 11.2409C12.628 11.6521 13.3404 11.7427 14.3583 11.6044L15.0434 14.0146C13.2042 14.33 11.7466 14.0564 10.7309 13.2705C9.71813 12.4869 9.13548 11.1888 9.07047 9.41688L11.5511 8.98254Z" fill="black"/>
<path d="M8.50367 7.5C8.48305 9.84421 8.83747 11.3198 9.42401 12.2118C9.73806 12.6893 10.1181 12.9942 10.5389 13.1729C11.0804 13.4029 11.6869 13.4256 12.3016 13.3497L12.9181 15.8002C10.1011 15.8175 8.36258 15.5001 7.32634 14.2927C6.34557 13.15 5.98958 11.1899 6.00023 7.87238L8.50367 7.5Z" fill="black"/>
</svg>
