<svg width="45" height="45" viewBox="0 0 45 45" fill="none" xmlns="http://www.w3.org/2000/svg">
<path d="M25.8332 25.8333C26.4316 25.2349 27.3751 25.1922 28.0228 25.7051L28.1667 25.8333L37.1667 34.8333C37.8111 35.4776 37.8111 36.5224 37.1667 37.1667C36.5684 37.7651 35.6248 37.8078 34.9772 37.2949L34.8333 37.1667L25.8332 28.1667C25.1889 27.5224 25.1889 26.4776 25.8332 25.8333Z" fill="black"/>
<path fill-rule="evenodd" clip-rule="evenodd" d="M8.0686 18.7186C8.0686 12.0084 13.5083 6.56863 20.2186 6.56863C26.9289 6.56863 32.3686 12.0084 32.3686 18.7186C32.3686 25.4289 26.9289 30.8686 20.2186 30.8686C13.5083 30.8686 8.0686 25.4289 8.0686 18.7186ZM29.0686 18.7186C29.0686 13.8309 25.1063 9.86863 20.2186 9.86863C15.3309 9.86863 11.3686 13.8309 11.3686 18.7186C11.3686 23.6063 15.3309 27.5686 20.2186 27.5686C25.1063 27.5686 29.0686 23.6063 29.0686 18.7186Z" fill="black"/>
</svg>
