<svg width="45" height="45" viewBox="0 0 45 45" fill="none" xmlns="http://www.w3.org/2000/svg">
<path d="M19.2154 9.721C19.3049 8.77905 19.7424 7.90432 20.4424 7.26771C21.1424 6.63109 22.0546 6.27832 23.0008 6.27832C23.947 6.27832 24.8592 6.63109 25.5592 7.26771C26.2592 7.90432 26.6967 8.77905 26.7862 9.721C26.8401 10.3295 27.0397 10.9161 27.3682 11.4311C27.6967 11.9461 28.1445 12.3743 28.6736 12.6796C29.2027 12.9849 29.7976 13.1582 30.4079 13.1849C31.0182 13.2116 31.6259 13.0908 32.1796 12.8329C33.0394 12.4425 34.0137 12.386 34.9129 12.6744C35.812 12.9628 36.5717 13.5754 37.0441 14.393C37.5165 15.2107 37.6677 16.1748 37.4684 17.0978C37.2691 18.0208 36.7335 18.8366 35.9659 19.3865C35.466 19.7373 35.0579 20.2032 34.7762 20.745C34.4945 21.2868 34.3474 21.8885 34.3474 22.4992C34.3474 23.1099 34.4945 23.7115 34.7762 24.2533C35.0579 24.7951 35.466 25.2611 35.9659 25.6119C36.7335 26.1618 37.2691 26.9776 37.4684 27.9006C37.6677 28.8236 37.5165 29.7877 37.0441 30.6053C36.5717 31.423 35.812 32.0356 34.9129 32.324C34.0137 32.6123 33.0394 32.5559 32.1796 32.1655C31.6259 31.9076 31.0182 31.7868 30.4079 31.8135C29.7976 31.8402 29.2027 32.0135 28.6736 32.3188C28.1445 32.6241 27.6967 33.0523 27.3682 33.5673C27.0397 34.0823 26.8401 34.6689 26.7862 35.2774C26.6967 36.2193 26.2592 37.0941 25.5592 37.7307C24.8592 38.3673 23.947 38.7201 23.0008 38.7201C22.0546 38.7201 21.1424 38.3673 20.4424 37.7307C19.7424 37.0941 19.3049 36.2193 19.2154 35.2774C19.1617 34.6687 18.962 34.0819 18.6334 33.5667C18.3048 33.0515 17.8568 32.6231 17.3275 32.3178C16.7982 32.0125 16.2031 31.8392 15.5926 31.8127C14.9821 31.7862 14.3742 31.9072 13.8204 32.1655C12.9606 32.5559 11.9863 32.6123 11.0871 32.324C10.188 32.0356 9.42828 31.423 8.95591 30.6053C8.48354 29.7877 8.33228 28.8236 8.53158 27.9006C8.73088 26.9776 9.26648 26.1618 10.0341 25.6119C10.534 25.2611 10.9421 24.7951 11.2238 24.2533C11.5055 23.7115 11.6525 23.1099 11.6525 22.4992C11.6525 21.8885 11.5055 21.2868 11.2238 20.745C10.9421 20.2032 10.534 19.7373 10.0341 19.3865C9.26755 18.8364 8.73291 18.0208 8.53409 17.0985C8.33527 16.1761 8.48649 15.2128 8.95835 14.3957C9.43021 13.5786 10.189 12.9661 11.0873 12.6773C11.9855 12.3884 12.9591 12.4439 13.8187 12.8329C14.3725 13.0908 14.9802 13.2116 15.5905 13.1849C16.2008 13.1582 16.7956 12.9849 17.3247 12.6796C17.8539 12.3743 18.3016 11.9461 18.6302 11.4311C18.9587 10.9161 19.1583 10.3295 19.2121 9.721" stroke="black" stroke-width="2.4" stroke-linecap="round" stroke-linejoin="round"/>
<path d="M23 27.375C25.6924 27.375 27.875 25.1924 27.875 22.5C27.875 19.8076 25.6924 17.625 23 17.625C20.3076 17.625 18.125 19.8076 18.125 22.5C18.125 25.1924 20.3076 27.375 23 27.375Z" stroke="black" stroke-width="2" stroke-linecap="round" stroke-linejoin="round"/>
</svg>
