<svg width="45" height="45" viewBox="0 0 45 45" fill="none" xmlns="http://www.w3.org/2000/svg">
<path fill-rule="evenodd" clip-rule="evenodd" d="M21.165 28.6631C21.5237 29.0231 21.9688 29.2031 22.5 29.2031C23.0312 29.2031 23.4769 29.0231 23.8369 28.6631C24.1956 28.3044 24.375 27.8594 24.375 27.3281V13.9219L27.8906 17.4375C28.2656 17.8125 28.7113 17.9919 29.2275 17.9756C29.7425 17.9606 30.1875 17.7656 30.5625 17.3906C30.9062 17.0469 31.0856 16.6169 31.1006 16.1006C31.1169 15.5856 30.9375 15.1406 30.5625 14.7656L23.8125 8.01562C23.625 7.82812 23.4219 7.695 23.2031 7.61625C22.9844 7.53875 22.75 7.5 22.5 7.5C22.25 7.5 22.0156 7.53875 21.7969 7.61625C21.5781 7.695 21.375 7.82812 21.1875 8.01562L14.4375 14.7656C14.0937 15.1094 13.9144 15.5387 13.8994 16.0538C13.8831 16.57 14.0625 17.0156 14.4375 17.3906C14.8437 17.7969 15.2969 18 15.7969 18C16.2969 18 16.7344 17.8125 17.1094 17.4375L20.625 13.9219V27.3281C20.625 27.8594 20.805 28.3044 21.165 28.6631ZM8.6025 35.6025C9.33625 36.3363 10.2188 36.7031 11.25 36.7031H33.75C34.7812 36.7031 35.6644 36.3363 36.3994 35.6025C37.1331 34.8675 37.5 33.9844 37.5 32.9531V29.2031C37.5 28.6719 37.32 28.2262 36.96 27.8662C36.6012 27.5075 36.1562 27.3281 35.625 27.3281C35.0938 27.3281 34.6488 27.5075 34.29 27.8662C33.93 28.2262 33.75 28.6719 33.75 29.2031V32.9531H11.25V29.2031C11.25 28.6719 11.0706 28.2262 10.7119 27.8662C10.3519 27.5075 9.90625 27.3281 9.375 27.3281C8.84375 27.3281 8.39812 27.5075 8.03812 27.8662C7.67937 28.2262 7.5 28.6719 7.5 29.2031V32.9531C7.5 33.9844 7.8675 34.8675 8.6025 35.6025Z" fill="black"/>
</svg>
