<svg width="45" height="45" viewBox="0 0 45 45" fill="none" xmlns="http://www.w3.org/2000/svg">
<path fill-rule="evenodd" clip-rule="evenodd" d="M36.5895 7.22778C37.0864 7.80372 37.161 8.17444 37.2331 8.5502C39.3812 19.7446 37.7558 27.6261 33.2469 32.3935C29.2413 36.6253 24.1223 37.1796 21.9869 37.2078C21.3174 37.209 21.0161 37.1822 20.956 37.1768C16.1774 35.5266 13.17 32.5363 11.1624 29.2426C7.44743 23.1476 7.21509 16.0131 7.20154 15.2164C7.37665 14.6479 7.54343 14.3916 7.69986 14.2452C14.9131 14.5647 18.902 17.0312 20.6816 18.4278C23.7727 14.6388 28.7141 11.0192 35.5659 7.71216C35.9097 7.54621 36.2512 7.38451 36.5895 7.22778ZM35.2842 15.7483C33.8703 16.5191 32.4796 17.4579 31.1794 18.6041C25.5049 23.6067 23.5258 30.8088 22.8884 34.0848C24.903 33.9004 28.3239 33.1449 31.0285 30.2818C33.9134 27.2277 35.302 22.6452 35.2842 15.7483ZM13.4847 27.1847C11.6269 23.9232 10.8414 20.3848 10.5093 17.9843C11.7248 20.0077 12.2159 20.532 12.787 21.14L12.7962 21.1498L12.7962 21.1499C14.0781 22.5147 15.7498 24.2945 17.1765 26.3345C16.8635 28.5032 17.1106 30.4219 17.561 31.9959C15.8119 30.6327 14.4892 28.9482 13.4847 27.1847ZM34.9952 11.4278C26.4706 15.8528 21.4457 20.7279 20.3189 26.0913C19.9223 27.9793 20.1021 29.6625 20.4813 31.0292C21.6019 27.0761 24.0947 21.252 30.1577 16.4429C31.5217 15.4754 32.9264 14.711 35.2031 13.7226C35.1526 12.9762 35.0832 12.2112 34.9952 11.4278ZM18.1691 22.5268C16.4808 20.5656 14.9027 19.0441 13.8416 18.0847C16.1975 19.0288 17.6805 19.9958 18.5841 20.6864C18.4847 21.3579 18.3336 21.9609 18.1691 22.5268Z" fill="black"/>
</svg>
