<svg width="45" height="45" viewBox="0 0 45 45" fill="none" xmlns="http://www.w3.org/2000/svg">
<path fill-rule="evenodd" clip-rule="evenodd" d="M23.0056 9.03541C22.9053 8.84792 22.7112 8.73106 22.5 8.73106C22.2888 8.73106 22.0947 8.84792 21.9944 9.03541L8.01573 35.4185C7.92046 35.598 7.92554 35.8148 8.02911 35.9896C8.13267 36.1644 8.31954 36.2715 8.52137 36.2718H36.4786C36.6805 36.2715 36.8673 36.1644 36.9709 35.9896C37.0745 35.8148 37.0795 35.598 36.9843 35.4185L23.0056 9.03541ZM18.9536 7.39603C20.4682 4.53466 24.5318 4.53466 26.0464 7.39603L40.025 33.7791C40.6913 35.0367 40.6545 36.5548 39.928 37.7779C39.2015 39.001 37.892 39.7497 36.4786 39.75H8.52137C7.108 39.7497 5.79848 39.001 5.072 37.7779C4.34552 36.5548 4.30869 35.0367 4.975 33.7791M24.7984 30.4749C24.7984 31.7555 23.7694 32.7937 22.5 32.7937C21.2306 32.7937 20.2016 31.7555 20.2016 30.4749C20.2016 29.1942 21.2306 28.1561 22.5 28.1561C23.7694 28.1561 24.7984 29.1942 24.7984 30.4749ZM24.2238 18.3013C24.2238 17.3408 23.452 16.5622 22.5 16.5622C21.548 16.5622 20.7762 17.3408 20.7762 18.3013V24.0982C20.7762 25.0587 21.548 25.8373 22.5 25.8373C23.452 25.8373 24.2238 25.0587 24.2238 24.0982V18.3013Z" fill="black"/>
</svg>
