<svg width="45" height="45" viewBox="0 0 45 45" fill="none" xmlns="http://www.w3.org/2000/svg">
<path fill-rule="evenodd" clip-rule="evenodd" d="M6.00662 39L8.23742 30.8028C6.7675 28.283 5.99523 25.4172 6.00002 22.5C6.00002 13.387 13.3871 6 22.5 6C31.6129 6 39 13.387 39 22.5C39 31.6129 31.6129 39 22.5 39C19.5841 39.0047 16.7195 38.233 14.2005 36.7642L6.00662 39ZM14.6675 33.2151L15.8621 33.913C17.8766 35.0879 20.1679 35.7047 22.5 35.7C29.7902 35.7 35.7 29.7901 35.7 22.5C35.7 15.2098 29.7902 9.3 22.5 9.3C15.2099 9.3 9.30003 15.2098 9.30003 22.5C9.30003 24.8694 9.92207 27.1414 11.0886 29.1396L11.7849 30.3342L10.7075 34.2958L14.6675 33.2151ZM17.2101 14.7516C16.989 14.7417 16.7663 14.7417 16.5452 14.7582L16.5435 14.7565C16.3304 14.7698 16.1222 14.8259 15.9314 14.9215C15.7878 14.9941 15.6558 15.0997 15.4463 15.2977C15.2803 15.4553 15.1733 15.5952 15.0714 15.7284C15.0528 15.7528 15.0343 15.777 15.0156 15.801C14.4057 16.5957 14.0782 17.5712 14.085 18.573C14.1005 19.3805 14.2866 20.1756 14.6312 20.9061C15.3044 22.3944 16.4132 23.9701 17.8817 25.4304C17.9374 25.4859 17.993 25.5414 18.0485 25.5969C18.3444 25.8927 18.6385 26.1868 18.9525 26.4633C20.7731 28.0662 22.9426 29.2221 25.2885 29.8392C25.2885 29.8392 26.2125 29.9827 26.2257 29.9827C26.4889 29.9969 26.7508 29.9819 27.0126 29.9669C27.0561 29.9645 27.0996 29.962 27.1431 29.9596C27.6235 29.9353 28.0927 29.8058 28.5175 29.5801C28.7334 29.4684 28.9443 29.3473 29.1495 29.2171C29.2193 29.1691 29.288 29.1195 29.3557 29.0686C29.5515 28.9273 29.7338 28.7682 29.9002 28.5934C30.0416 28.4469 30.1586 28.2787 30.2467 28.0951C30.3754 27.8262 30.5041 27.313 30.5569 26.8857C30.5949 26.559 30.585 26.3808 30.5784 26.2702C30.5734 26.0937 30.4266 25.9105 30.2649 25.833L29.3046 25.4023C29.3046 25.4023 27.8708 24.777 26.9946 24.376C26.9022 24.3348 26.8016 24.3166 26.7026 24.31C26.4741 24.2866 26.2468 24.363 26.0789 24.5196V24.5163C26.069 24.5163 25.9601 24.6103 24.7655 26.0574C24.6257 26.2449 24.3866 26.3296 24.1599 26.2719C24.0527 26.2438 23.9471 26.2059 23.8448 26.163C23.7135 26.1069 23.6373 26.0732 23.5624 26.0401C23.5206 26.0216 23.4792 26.0034 23.429 25.9815L23.4207 25.9782C22.4769 25.5657 21.6024 25.0096 20.8302 24.3282C20.6766 24.1928 20.531 24.0503 20.3856 23.9078C20.3343 23.8575 20.2829 23.8072 20.2313 23.7573C19.5383 23.0841 18.9707 22.3696 18.5483 21.6651L18.4509 21.5083C18.3816 21.3961 18.3057 21.2625 18.2826 21.1701C18.2199 20.9275 18.3833 20.7328 18.3833 20.7328C18.3833 20.7328 18.7842 20.2939 18.9707 20.0547C19.1259 19.8577 19.2707 19.6529 19.4046 19.4409C19.5993 19.1274 19.6604 18.8056 19.5581 18.5548C19.0961 17.4279 18.6176 16.3042 18.1259 15.1888C18.0285 14.9677 17.7398 14.8077 17.4774 14.778C17.3883 14.7681 17.2992 14.7582 17.2101 14.7516Z" fill="black"/>
</svg>
