<svg width="45" height="45" viewBox="0 0 45 45" fill="none" xmlns="http://www.w3.org/2000/svg">
<path d="M22.4999 4.5C23.2692 4.5 23.9032 5.07906 23.9899 5.82507L23.9999 6L23.9991 9.3315L25.7593 7.03028C26.2624 6.3721 27.2038 6.24635 27.8619 6.74942C28.4695 7.2138 28.6234 8.05165 28.2478 8.69548L28.1428 8.85207L23.9991 14.2725V30.3885L28.1428 35.8103C28.6459 36.4685 28.5201 37.4099 27.8619 37.913C27.2544 38.3774 26.4055 38.3059 25.8828 37.7745L25.7593 37.6321L23.9991 35.3295L23.9999 39C23.9999 39.8284 23.3284 40.5 22.4999 40.5C21.7307 40.5 21.0967 39.9209 21.01 39.1749L20.9999 39L20.9991 35.3295L19.2406 37.6321C18.7375 38.2903 17.7961 38.4161 17.138 37.913C16.5304 37.4486 16.3765 36.6108 16.7521 35.9669L16.8571 35.8103L20.9991 30.39V14.271L16.8571 8.85207C16.354 8.19388 16.4798 7.2525 17.138 6.74942C17.7455 6.28505 18.5944 6.35647 19.1171 6.88789L19.2406 7.03028L20.9991 9.3315L20.9999 6C20.9999 5.17157 21.6715 4.5 22.4999 4.5Z" fill="black"/>
<path d="M38.0884 13.4999C38.4731 14.1661 38.2886 15.0047 37.6859 15.4528L37.5394 15.549L34.6538 17.214L37.5268 17.5878C38.3484 17.6943 38.928 18.4467 38.8214 19.2683C38.723 20.0266 38.0743 20.5788 37.329 20.5755L37.1409 20.5628L30.3748 19.6845L16.4179 27.7425L13.7943 34.042C13.4759 34.8067 12.5977 35.1685 11.833 34.8501C11.127 34.5561 10.7644 33.7852 10.9633 33.0669L11.0249 32.8887L12.1389 30.213L8.96057 32.049C8.24313 32.4632 7.32574 32.2174 6.91153 31.4999C6.5269 30.8338 6.71138 29.9952 7.31412 29.5471L7.46057 29.4509L10.6389 27.615L7.76551 27.2433C6.94397 27.1367 6.36438 26.3844 6.47096 25.5628C6.56934 24.8045 7.218 24.2523 7.96337 24.2556L8.15147 24.2683L14.9166 25.1452L28.8761 17.0857L31.498 10.7891C31.8165 10.0244 32.6946 9.66256 33.4594 9.98103C34.1653 10.275 34.5279 11.0459 34.329 11.7642L34.2675 11.9424L33.1538 14.616L36.0394 12.9509C36.7568 12.5367 37.6742 12.7825 38.0884 13.4999Z" fill="black"/>
<path d="M6.6069 14.0495C6.96804 13.3703 7.77697 13.0823 8.47633 13.3561L8.63553 13.4293L11.5757 14.9927L10.3712 12.3596C10.0262 11.6064 10.3571 10.7161 11.1103 10.3712C11.8056 10.0527 12.6176 10.3102 13.0097 10.9441L13.0987 11.1103L15.937 17.3116L30.1719 24.8804L36.9014 23.7665C37.7188 23.6313 38.4909 24.1843 38.6261 25.0016C38.7509 25.756 38.2893 26.472 37.5747 26.684L37.391 26.7263L34.5332 27.1994L37.7728 28.9218C38.5043 29.3108 38.7819 30.219 38.393 30.9505C38.0319 31.6297 37.2229 31.9176 36.5236 31.6439L36.3644 31.5707L33.1235 29.8475L34.3307 32.4819C34.6756 33.2351 34.3447 34.1253 33.5915 34.4703C32.8963 34.7887 32.0842 34.5313 31.6921 33.8974L31.6031 33.7312L28.7609 27.5279L14.5313 19.9619L7.80039 21.075C6.98307 21.2102 6.2109 20.6572 6.07572 19.8399C5.95093 19.0854 6.41251 18.3695 7.12711 18.1575L7.31083 18.1152L10.1686 17.6422L7.22711 16.0781C6.49565 15.6892 6.21798 14.781 6.6069 14.0495Z" fill="black"/>
</svg>
