<svg width="45" height="45" viewBox="0 0 45 45" fill="none" xmlns="http://www.w3.org/2000/svg">
<path fill-rule="evenodd" clip-rule="evenodd" d="M36.5312 13.2517L26.7763 6.26326C26.5683 6.05088 26.2701 5.95863 25.9814 6.01738C25.6927 6.07625 25.452 6.27846 25.3399 6.5563L23.8704 15.2563C22.6856 14.8122 21.3835 14.5716 20.034 14.5716C15.1968 14.5716 11.2022 17.6658 10.6869 21.629H10.0336C8.63647 21.629 7.5 22.7901 7.5 24.2172C7.5 25.35 8.21693 29.7864 9.21074 30.1362C11.2018 37.7786 14.6384 38.5597 15.4528 38.7448C15.5468 38.7661 15.6058 38.7796 15.6237 38.7947C15.7815 38.9274 15.9793 39 16.1836 39H30.316C30.5203 39 30.7183 38.9274 30.8759 38.7947C30.8938 38.7796 30.9529 38.7661 31.0468 38.7448C31.8613 38.5597 35.2978 37.7786 37.2891 30.1362C38.283 29.7861 39 25.3498 39 24.2172C39 22.7901 37.8634 21.629 36.4664 21.629H35.6782C35.0992 20.6962 34.3401 19.9178 33.4608 19.3339L36.2447 14.7193C36.5168 14.6046 36.7146 14.3586 36.7723 14.0639C36.8297 13.769 36.7394 13.4643 36.5312 13.2517ZM37.2389 27.6909C37.2389 28.1261 36.8922 28.4802 36.4662 28.4802H10.0336C9.60745 28.4802 9.26087 28.1261 9.26087 27.6909C9.26087 27.6128 9.2168 27.4255 9.15684 27.1707C8.88261 26.0053 8.27611 23.4278 10.0336 23.4278H36.4663C38.4173 23.4278 37.7002 25.973 37.3691 27.1485C37.2941 27.4146 37.2389 27.6106 37.2389 27.6909ZM16.5273 37.2011H29.9723C30.149 37.025 30.424 36.9013 30.7646 36.7481C31.9783 36.2019 34.025 35.281 35.4243 30.2792H11.0756C12.4747 35.2812 14.5214 36.2021 15.7351 36.7482C16.0756 36.9014 16.3506 37.0251 16.5273 37.2011ZM12.4683 21.629C12.9965 18.6606 16.1872 16.3705 20.0339 16.3705C22.9489 16.3705 25.572 17.6759 26.8799 19.7772C27.0911 20.1163 27.4967 20.2713 27.8736 20.1568C28.3894 20.0003 28.9235 19.9209 29.4604 19.9209C30.9776 19.9209 32.4022 20.5511 33.4417 21.629H12.4683ZM27.9979 18.2727C28.4789 18.1727 28.9686 18.1221 29.4604 18.1221C30.0571 18.1221 30.6429 18.1961 31.2074 18.3374L34.3529 13.5705L26.4645 8.48881L25.4663 16.0208C26.4648 16.615 27.329 17.3754 27.9979 18.2727Z" fill="black"/>
<path d="M26.7763 6.26326L26.5266 6.50779L26.548 6.52958L26.5728 6.54735L26.7763 6.26326ZM36.5312 13.2517L36.7808 13.0072L36.7595 12.9854L36.7347 12.9676L36.5312 13.2517ZM25.9814 6.01738L25.9117 5.67494L25.9116 5.67496L25.9814 6.01738ZM25.3399 6.5563L25.0158 6.42555L25.0016 6.46071L24.9953 6.49809L25.3399 6.5563ZM23.8704 15.2563L23.7477 15.5835L24.1444 15.7322L24.2149 15.3145L23.8704 15.2563ZM10.6869 21.629V21.9784H10.9938L11.0334 21.674L10.6869 21.629ZM9.21074 30.1362L9.54891 30.0481L9.50206 29.8683L9.32679 29.8066L9.21074 30.1362ZM15.4528 38.7448L15.5303 38.404H15.5303L15.4528 38.7448ZM15.6237 38.7947L15.3985 39.0619L15.3988 39.0621L15.6237 38.7947ZM30.8759 38.7947L31.1009 39.062L31.1011 39.0619L30.8759 38.7947ZM31.0468 38.7448L30.9694 38.404H30.9694L31.0468 38.7448ZM37.2891 30.1362L37.173 29.8066L36.9978 29.8684L36.951 30.0481L37.2891 30.1362ZM35.6782 21.629L35.3813 21.8133L35.4838 21.9784H35.6782V21.629ZM33.4608 19.3339L33.1615 19.1534L32.9887 19.4399L33.2675 19.625L33.4608 19.3339ZM36.2447 14.7193L36.109 14.3972L36.0042 14.4414L35.9455 14.5388L36.2447 14.7193ZM36.7723 14.0639L37.1153 14.1311L37.1154 14.1307L36.7723 14.0639ZM9.15684 27.1707L8.81667 27.2507L8.81667 27.2507L9.15684 27.1707ZM37.3691 27.1485L37.7054 27.2433V27.2433L37.3691 27.1485ZM29.9723 37.2011V37.5506H30.1167L30.2189 37.4487L29.9723 37.2011ZM16.5273 37.2011L16.2806 37.4487L16.3829 37.5506H16.5273V37.2011ZM30.7646 36.7481L30.9079 37.0668H30.908L30.7646 36.7481ZM35.4243 30.2792L35.7608 30.3734L35.8849 29.9298H35.4243V30.2792ZM11.0756 30.2792V29.9298H10.615L10.7391 30.3734L11.0756 30.2792ZM15.7351 36.7482L15.5917 37.0668L15.5917 37.0668L15.7351 36.7482ZM12.4683 21.629L12.1242 21.5678L12.0511 21.9784H12.4683V21.629ZM26.8799 19.7772L26.5832 19.9619L26.5833 19.962L26.8799 19.7772ZM27.8736 20.1568L27.7721 19.8224L27.772 19.8224L27.8736 20.1568ZM33.4417 21.629V21.9784H34.2642L33.6932 21.3864L33.4417 21.629ZM27.9979 18.2727L27.7177 18.4816L27.8509 18.6602L28.069 18.6148L27.9979 18.2727ZM31.2074 18.3374L31.1225 18.6764L31.3627 18.7366L31.499 18.5299L31.2074 18.3374ZM34.3529 13.5705L34.6445 13.7629L34.8391 13.468L34.5421 13.2767L34.3529 13.5705ZM26.4645 8.48881L26.6538 8.19504L26.1905 7.89659L26.1181 8.4429L26.4645 8.48881ZM25.4663 16.0208L25.1199 15.9749L25.0896 16.2033L25.2876 16.3211L25.4663 16.0208ZM26.7763 6.26326L26.5728 6.54735L36.3277 13.5358L36.5312 13.2517L36.7347 12.9676L26.9798 5.97918L26.7763 6.26326ZM25.9814 6.01738L26.0511 6.35982C26.2223 6.32497 26.4007 6.37915 26.5266 6.50779L26.7763 6.26326L27.026 6.01874C26.7359 5.72261 26.3179 5.59229 25.9117 5.67494L25.9814 6.01738ZM25.3399 6.5563L25.6639 6.68704C25.7331 6.51574 25.8797 6.39476 26.0512 6.35979L25.9814 6.01738L25.9116 5.67496C25.5056 5.75773 25.1709 6.04118 25.0158 6.42555L25.3399 6.5563ZM23.8704 15.2563L24.2149 15.3145L25.6844 6.6145L25.3399 6.5563L24.9953 6.49809L23.5258 15.198L23.8704 15.2563ZM20.034 14.5716V14.9211C21.3422 14.9211 22.6027 15.1543 23.7477 15.5835L23.8704 15.2563L23.993 14.929C22.7686 14.4701 21.4249 14.2221 20.034 14.2221V14.5716ZM10.6869 21.629L11.0334 21.674C11.5207 17.9265 15.3271 14.9211 20.034 14.9211V14.5716V14.2221C15.0666 14.2221 10.8837 17.4052 10.3403 21.5839L10.6869 21.629ZM10.0336 21.629V21.9784H10.6869V21.629V21.2795H10.0336V21.629ZM7.5 24.2172H7.84946C7.84946 22.976 8.83648 21.9784 10.0336 21.9784V21.629V21.2795C8.43647 21.2795 7.15054 22.6042 7.15054 24.2172H7.5ZM9.21074 30.1362L9.32679 29.8066C9.29983 29.7971 9.23172 29.7554 9.13407 29.6218C9.04076 29.494 8.94329 29.3138 8.84537 29.0854C8.64992 28.6295 8.47261 28.029 8.32292 27.3905C8.02245 26.1088 7.84946 24.7458 7.84946 24.2172H7.5H7.15054C7.15054 24.8214 7.33602 26.2429 7.64246 27.5501C7.79623 28.206 7.98449 28.8511 8.20298 29.3608C8.31203 29.6152 8.43361 29.8478 8.56974 30.0341C8.70151 30.2144 8.8732 30.3879 9.0947 30.4659L9.21074 30.1362ZM15.4528 38.7448L15.5303 38.404C15.1544 38.3186 14.1617 38.0973 13.0163 36.9861C11.8644 35.8686 10.5331 33.8259 9.54891 30.0481L9.21074 30.1362L8.87257 30.2243C9.87941 34.0889 11.2619 36.2579 12.5297 37.4878C13.804 38.7241 14.9367 38.9859 15.3754 39.0856L15.4528 38.7448ZM15.6237 38.7947L15.849 38.5275C15.7997 38.486 15.7493 38.4656 15.7297 38.458C15.704 38.4479 15.6789 38.4405 15.6595 38.4352C15.6214 38.4246 15.5741 38.414 15.5303 38.404L15.4528 38.7448L15.3754 39.0856C15.3992 39.091 15.419 39.0955 15.4363 39.0996C15.4537 39.1037 15.4657 39.1067 15.474 39.109C15.478 39.1101 15.4802 39.1108 15.4809 39.111C15.4817 39.1112 15.4797 39.1106 15.4757 39.1091C15.472 39.1076 15.4634 39.1041 15.452 39.0981C15.4461 39.095 15.4385 39.0907 15.4298 39.0851C15.4212 39.0795 15.4104 39.0719 15.3985 39.0619L15.6237 38.7947ZM16.1836 39V38.6505C16.0626 38.6505 15.9442 38.6076 15.8487 38.5272L15.6237 38.7947L15.3988 39.0621C15.6188 39.2472 15.8961 39.3495 16.1836 39.3495V39ZM30.316 39V38.6505H16.1836V39V39.3495H30.316V39ZM30.8759 38.7947L30.6509 38.5273C30.5556 38.6075 30.4371 38.6505 30.316 38.6505V39V39.3495C30.6035 39.3495 30.8809 39.2472 31.1009 39.062L30.8759 38.7947ZM31.0468 38.7448L30.9694 38.404C30.9256 38.414 30.8783 38.4246 30.8401 38.4352C30.8207 38.4405 30.7956 38.4479 30.7699 38.458C30.7503 38.4656 30.6999 38.486 30.6507 38.5275L30.8759 38.7947L31.1011 39.0619C31.0892 39.0719 31.0784 39.0795 31.0698 39.0851C31.0611 39.0907 31.0536 39.095 31.0477 39.0981C31.0363 39.1041 31.0277 39.1076 31.024 39.1091C31.02 39.1106 31.018 39.1112 31.0188 39.111C31.0195 39.1108 31.0216 39.1101 31.0256 39.109C31.034 39.1067 31.046 39.1037 31.0634 39.0996C31.0807 39.0955 31.1004 39.091 31.1243 39.0856L31.0468 38.7448ZM37.2891 30.1362L36.951 30.0481C35.9666 33.8258 34.6353 35.8686 33.4833 36.9861C32.338 38.0973 31.3452 38.3186 30.9694 38.404L31.0468 38.7448L31.1243 39.0856C31.5629 38.9859 32.6956 38.7241 33.97 37.4878C35.2377 36.2579 36.6203 34.0889 37.6273 30.2244L37.2891 30.1362ZM39 24.2172H38.6505C38.6505 24.7457 38.4775 26.1087 38.177 27.3904C38.0273 28.0289 37.85 28.6293 37.6545 29.0853C37.5566 29.3137 37.4591 29.494 37.3658 29.6217C37.2681 29.7554 37.2 29.7971 37.173 29.8066L37.2891 30.1362L37.4053 30.4658C37.6267 30.3878 37.7984 30.2144 37.9302 30.034C38.0663 29.8477 38.1879 29.615 38.2969 29.3607C38.5154 28.8509 38.7037 28.2059 38.8575 27.5499C39.1639 26.2428 39.3495 24.8213 39.3495 24.2172H39ZM36.4664 21.629V21.9784C37.6634 21.9784 38.6505 22.976 38.6505 24.2172H39H39.3495C39.3495 22.6042 38.0634 21.2795 36.4664 21.2795V21.629ZM35.6782 21.629V21.9784H36.4664V21.629V21.2795H35.6782V21.629ZM33.4608 19.3339L33.2675 19.625C34.1048 20.181 34.8286 20.9228 35.3813 21.8133L35.6782 21.629L35.9751 21.4447C35.3699 20.4695 34.5755 19.6546 33.6541 19.0428L33.4608 19.3339ZM36.2447 14.7193L35.9455 14.5388L33.1615 19.1534L33.4608 19.3339L33.76 19.5144L36.5439 14.8998L36.2447 14.7193ZM36.7723 14.0639L36.4294 13.9967C36.3935 14.1799 36.2714 14.3288 36.109 14.3972L36.2447 14.7193L36.3804 15.0413C36.7621 14.8805 37.0357 14.5373 37.1153 14.1311L36.7723 14.0639ZM36.5312 13.2517L36.2815 13.4962C36.4083 13.6257 36.465 13.8135 36.4293 13.9972L36.7723 14.0639L37.1154 14.1307C37.1944 13.7244 37.0706 13.303 36.7808 13.0072L36.5312 13.2517ZM36.4662 28.4802V28.8297C37.0922 28.8297 37.5884 28.312 37.5884 27.6909H37.2389H36.8894C36.8894 27.9401 36.6922 28.1308 36.4662 28.1308V28.4802ZM10.0336 28.4802V28.8297H36.4662V28.4802V28.1308H10.0336V28.4802ZM9.26087 27.6909H8.91142C8.91142 28.312 9.40742 28.8297 10.0336 28.8297V28.4802V28.1308C9.80748 28.1308 9.61033 27.9402 9.61033 27.6909H9.26087ZM9.15684 27.1707L8.81667 27.2507C8.84701 27.3797 8.87187 27.4854 8.8893 27.5687C8.90904 27.663 8.91142 27.694 8.91142 27.6909H9.26087H9.61033C9.61033 27.6097 9.59067 27.508 9.57338 27.4255C9.55378 27.3318 9.52662 27.2165 9.497 27.0906L9.15684 27.1707ZM10.0336 23.4278V23.0784C9.49541 23.0784 9.09175 23.2831 8.83242 23.6454C8.58884 23.9857 8.50227 24.4242 8.48418 24.8473C8.44797 25.6942 8.68199 26.6784 8.81667 27.2507L9.15684 27.1707L9.497 27.0906C9.35746 26.4976 9.15111 25.6103 9.18246 24.8772C9.19815 24.5102 9.27234 24.2316 9.40075 24.0522C9.51341 23.8948 9.69298 23.7773 10.0336 23.7773V23.4278ZM36.4663 23.4278V23.0784H10.0336V23.4278V23.7773H36.4663V23.4278ZM37.3691 27.1485L37.7054 27.2433C37.8676 26.6677 38.1479 25.6838 38.1228 24.837C38.1102 24.4119 38.0202 23.9695 37.7518 23.628C37.4699 23.2693 37.0371 23.0784 36.4663 23.0784V23.4278V23.7773C36.871 23.7773 37.0802 23.9045 37.2022 24.0598C37.3378 24.2323 37.4136 24.4996 37.4242 24.8577C37.4455 25.5774 37.2017 26.4538 37.0327 27.0538L37.3691 27.1485ZM37.2389 27.6909H37.5884C37.5884 27.7038 37.5869 27.7019 37.5922 27.6741C37.5967 27.6501 37.604 27.6174 37.6148 27.5745C37.6365 27.4881 37.6674 27.3781 37.7054 27.2433L37.3691 27.1485L37.0327 27.0538C36.9957 27.185 36.9616 27.3061 36.9369 27.4043C36.9157 27.4888 36.8894 27.6001 36.8894 27.6909H37.2389ZM29.9723 37.2011V36.8517H16.5273V37.2011V37.5506H29.9723V37.2011ZM30.7646 36.7481L30.6212 36.4294C30.3023 36.5728 29.9576 36.7224 29.7256 36.9536L29.9723 37.2011L30.2189 37.4487C30.3404 37.3277 30.5457 37.2298 30.9079 37.0668L30.7646 36.7481ZM35.4243 30.2792L35.0877 30.1851C34.3982 32.6498 33.558 34.077 32.7661 34.9497C31.9782 35.8178 31.2184 36.1606 30.6212 36.4294L30.7646 36.7481L30.908 37.0668C31.5245 36.7893 32.3949 36.3987 33.2836 35.4194C34.1682 34.4446 35.051 32.9104 35.7608 30.3734L35.4243 30.2792ZM11.0756 30.2792V30.6287H35.4243V30.2792V29.9298H11.0756V30.2792ZM15.7351 36.7482L15.8785 36.4295C15.2812 36.1608 14.5215 35.8179 13.7336 34.9498C12.9417 34.0771 12.1016 32.6499 11.4122 30.1851L11.0756 30.2792L10.7391 30.3734C11.4487 32.9105 12.3315 34.4447 13.2161 35.4195C14.1048 36.3988 14.9752 36.7895 15.5917 37.0668L15.7351 36.7482ZM16.5273 37.2011L16.7739 36.9536C16.5419 36.7225 16.1972 36.5729 15.8785 36.4295L15.7351 36.7482L15.5917 37.0668C15.954 37.2298 16.1592 37.3277 16.2806 37.4487L16.5273 37.2011ZM20.0339 16.3705V16.021C16.0724 16.021 12.6907 18.3842 12.1242 21.5678L12.4683 21.629L12.8123 21.6902C13.3022 18.9371 16.3021 16.7199 20.0339 16.7199V16.3705ZM26.8799 19.7772L27.1766 19.5926C25.7926 17.3691 23.0445 16.021 20.0339 16.021V16.3705V16.7199C22.8533 16.7199 25.3513 17.9827 26.5832 19.9619L26.8799 19.7772ZM27.8736 20.1568L27.772 19.8224C27.5495 19.89 27.3058 19.8001 27.1765 19.5925L26.8799 19.7772L26.5833 19.962C26.8764 20.4326 27.4439 20.6525 27.9752 20.4911L27.8736 20.1568ZM29.4604 19.9209V19.5715C28.889 19.5715 28.3208 19.6559 27.7721 19.8224L27.8736 20.1568L27.9751 20.4912C28.4581 20.3446 28.958 20.2704 29.4604 20.2704V19.9209ZM33.4417 21.629L33.6932 21.3864C32.5901 20.2426 31.0757 19.5715 29.4604 19.5715V19.9209V20.2704C30.8794 20.2704 32.2142 20.8596 33.1901 21.8716L33.4417 21.629ZM12.4683 21.629V21.9784H33.4417V21.629V21.2795H12.4683V21.629ZM29.4604 18.1221V17.7726C28.9446 17.7726 28.4311 17.8257 27.9267 17.9306L27.9979 18.2727L28.069 18.6148C28.5268 18.5197 28.9926 18.4715 29.4604 18.4715V18.1221ZM31.2074 18.3374L31.2922 17.9984C30.7004 17.8503 30.0861 17.7726 29.4604 17.7726V18.1221V18.4715C30.0281 18.4715 30.5855 18.542 31.1225 18.6764L31.2074 18.3374ZM34.3529 13.5705L34.0612 13.378L30.9157 18.145L31.2074 18.3374L31.499 18.5299L34.6445 13.7629L34.3529 13.5705ZM26.4645 8.48881L26.2753 8.78259L34.1636 13.8643L34.3529 13.5705L34.5421 13.2767L26.6538 8.19504L26.4645 8.48881ZM25.4663 16.0208L25.8127 16.0667L26.8109 8.53473L26.4645 8.48881L26.1181 8.4429L25.1199 15.9749L25.4663 16.0208ZM27.9979 18.2727L28.2781 18.0638C27.5795 17.1268 26.6798 16.3363 25.645 15.7205L25.4663 16.0208L25.2876 16.3211C26.2499 16.8938 27.0785 17.6241 27.7177 18.4816L27.9979 18.2727Z" fill="black"/>
</svg>
