<svg width="45" height="45" viewBox="0 0 45 45" fill="none" xmlns="http://www.w3.org/2000/svg">
<path d="M17.6214 9.49108C18.1294 9.42769 18.6277 9.53396 19.0577 9.79119L30.3572 20.8504C30.7807 21.2684 31.0104 21.8053 31.0453 22.3524C31.0753 22.8224 30.9617 23.2997 30.7046 23.7149L19.502 34.8638C19.0382 35.3216 18.4302 35.55 17.8224 35.55C17.2146 35.55 16.6066 35.3216 16.1428 34.8638C15.7193 34.4459 15.4896 33.9089 15.4547 33.3619C15.4247 32.8918 15.5383 32.4145 15.7955 31.9994L25.326 22.4998L16.1428 13.4352C15.7193 13.0173 15.4896 12.4803 15.4547 11.9333C15.4201 11.391 15.5766 10.839 15.9243 10.3841C16.4582 9.85219 17.0437 9.56315 17.6214 9.49108Z" fill="black"/>
</svg>
