<svg width="45" height="45" viewBox="0 0 45 45" fill="none" xmlns="http://www.w3.org/2000/svg">
<path fill-rule="evenodd" clip-rule="evenodd" d="M27.3344 11.2124C29.15 11.0148 32.4407 11.0148 35.391 13.0901C39.3626 15.8572 41.1781 19.9091 40.2704 24.6527C39.5895 29.7916 35.9584 34.8317 31.7599 36.5117C30.2847 37.1047 28.5826 37.4011 26.994 37.4011C26.8238 37.4011 26.6536 37.3764 26.4834 37.3517C26.3132 37.327 26.143 37.3023 25.9728 37.3023C24.7246 37.5 23.4764 37.5 22.3417 37.5H22.3416C22.1147 37.5 21.6608 37.5 21.2069 37.4011C20.5261 37.4011 19.8452 37.4011 19.1644 37.3023C18.824 37.4011 18.3701 37.4011 17.9162 37.4011C16.3276 37.4011 14.6255 37.1047 13.1503 36.5117C8.95182 34.8317 5.32068 29.6928 4.63984 24.6527C3.95901 19.9091 5.77457 15.8572 9.8596 13.0901C12.8099 11.0148 15.9871 11.0148 17.8027 11.2124C19.1644 10.916 20.1856 10.8171 21.2069 10.8171C21.3204 8.74181 22.1123 7.23399 23.474 6.24574C23.9279 5.94926 25.065 5.9747 25.4054 6.37C25.7458 6.7653 25.8593 7.45805 25.4054 7.75452C24.6111 8.24865 24.1137 9.33476 24.0002 10.8171C24.2659 10.8428 24.5268 10.8619 24.7915 10.8812L24.7915 10.8812C25.5442 10.936 26.327 10.9931 27.3344 11.2124ZM11.0945 15.9088C7.38984 18.456 7.09737 21.8522 7.38984 24.3144C7.97478 28.3899 10.802 31.956 13.3367 33.0597C11.9719 31.2767 10.802 28.4748 10.3145 25.588C9.92458 23.1258 9.7296 18.5409 12.8493 15.0597C12.2643 15.2295 11.6794 15.4843 11.0945 15.9088ZM16.9166 32.8556C15.5326 32.052 13.6872 29.0788 13.1336 25.302C12.7645 23.1324 12.6723 19.1145 15.348 16.302C15.8094 15.8199 16.6398 15.4985 17.4702 15.2574C17.5624 15.2574 17.747 15.2574 17.8393 15.3377C17.8393 15.3779 17.8162 15.4181 17.7931 15.4583C17.7701 15.4984 17.747 15.5386 17.747 15.5788C15.8094 20.561 16.732 29.9627 18.1161 33.2574C17.5624 33.177 17.1934 33.0163 16.9166 32.8556ZM22.4783 33.1091C23.4711 33.1091 23.5614 33.1091 23.7419 32.8537C25.0054 30.8952 26.3592 20.3362 24.3736 14.8013C24.0126 13.6943 23.2003 13.6091 22.5686 13.6091C21.9368 13.6091 21.2148 13.6943 20.7635 14.8013C18.7779 20.3362 20.1317 30.8952 21.3953 32.8537C21.5758 33.1091 22.2076 33.1091 22.4783 33.1091H22.4783ZM28.2163 32.8851C27.9382 33.0465 27.4748 33.1272 27.0114 33.208C28.4943 29.8178 29.4211 20.4546 27.4748 15.4501C27.4748 15.4098 27.4517 15.3694 27.4285 15.329C27.4053 15.2887 27.3822 15.2483 27.3822 15.208H27.6602C28.4943 15.3694 29.3285 15.6923 29.7919 16.2573C32.5723 19.0824 32.3869 23.199 32.0162 25.2977C31.4601 29.0914 29.6992 31.9972 28.2163 32.8851ZM31.8033 33.0597C34.3381 31.871 37.1653 28.3899 37.7502 24.3144C38.1402 21.9371 37.7502 18.456 34.0456 15.9088C33.4607 15.5692 32.8757 15.2295 32.2908 15.0597C35.4105 18.5409 35.2155 23.1258 34.8255 25.588C34.3381 28.4748 33.2657 31.2767 31.8033 33.0597Z" fill="black"/>
</svg>
