<svg width="45" height="45" viewBox="0 0 45 45" fill="none" xmlns="http://www.w3.org/2000/svg">
<path fill-rule="evenodd" clip-rule="evenodd" d="M23.4699 9.02583C22.9943 9.00271 22.5181 8.99511 22.042 9.00304L21.353 9.02556L20.6648 9.06909L19.944 9.13919L19.2426 9.2303L18.5326 9.34523L17.8264 9.48465L17.1261 9.64644L16.4167 9.83568L15.4357 10.1155L11.9094 11.2258L12.3191 11.457L12.0252 11.6398L11.8325 11.7672L11.4663 12.0194L11.2176 12.2026L10.7923 12.5368L10.4531 12.8301L9.97736 13.2738L9.61872 13.6419L9.26358 14.0379L8.94527 14.4222L8.59635 14.8855L8.3153 15.292L8.28811 15.3341L8.03208 15.7411L7.75346 16.2249L7.49325 16.7209L7.25487 17.2224L7.03567 17.7345L6.87864 18.138L6.67139 18.7385L6.50721 19.2947L6.3704 19.8333L6.2365 20.4755L6.16191 20.9157L6.08855 21.4745C5.96383 22.5916 5.97103 23.7057 6.10907 24.81L6.35817 26.8029L6.41787 27.2186C7.04438 31.0788 9.60186 34.3651 13.2142 35.9133L14.0501 36.2715L14.4245 36.4227C17.5613 37.6127 21.1068 37.0641 23.7421 34.9558L24.5638 34.2985L24.8949 34.0457C26.4637 32.9032 28.3573 32.2845 30.3051 32.2845L30.6538 32.2755L30.998 32.2483C33.6211 31.9782 35.8655 30.2974 36.8405 27.8598L36.9478 27.5916L37.1286 27.1132C37.8711 25.028 38.0822 22.7898 37.7421 20.6016L37.7215 20.4926L37.6841 20.499L37.6751 20.457L37.6811 20.397L37.652 20.0983L37.646 20.0683L37.6391 20.0685L37.6308 19.9902L37.5446 19.599L37.4293 19.1482L37.0003 17.6329L36.7474 16.8575L36.5744 16.4152L36.5936 16.473L36.5537 16.3659L36.4209 16.0663L36.2148 15.6417L36.1631 15.666L36.1942 15.599L36.0339 15.3029L35.9246 15.126L35.9629 15.1793L35.8202 14.934L35.5694 14.5408L35.3344 14.2038L35.0833 13.871L34.8276 13.5576L34.575 13.2702L34.3162 12.9957L33.8757 12.567L33.6149 12.3332L33.1901 11.9864L32.975 11.8224L32.634 11.5803L32.282 11.3502L31.8941 11.1178L31.5132 10.9105L31.1757 10.7428L30.7806 10.564L30.3814 10.4021L29.9739 10.2553L29.559 10.1241L29.1504 10.0125L27.7272 9.65547L27.5906 9.62788L27.0533 9.49842L26.3521 9.35768L25.6477 9.24074L24.9294 9.1462L24.2231 9.07487L23.4699 9.02583ZM30.6538 27.7755L30.998 27.7483C32.1185 27.6329 33.1698 27.2601 34.0827 26.6809L33.9439 26.9982C33.3087 28.318 32.0022 29.1969 30.5296 29.2783L29.783 29.2948C27.2228 29.3981 24.7241 30.3283 22.6898 31.9558L21.868 32.6132L21.5816 32.8297C19.7372 34.1459 17.3303 34.4134 15.2319 33.5141L14.3959 33.1558L14.0211 32.9843C12.5433 32.2641 11.3289 31.1398 10.4979 29.7712C11.1977 30.3404 11.97 30.831 12.8033 31.2276L13.1872 31.4014L14.0501 31.7715L14.4245 31.9227C17.5613 33.1127 21.1068 32.5641 23.7421 30.4558L24.5638 29.7985L24.8949 29.5457C26.4637 28.4032 28.3573 27.7845 30.3051 27.7845L30.6538 27.7755ZM9.37284 20.1878L9.28266 20.5546L9.20514 20.9235L9.33501 21.9308C9.67766 24.672 11.3354 27.0631 13.734 28.3392L14.0657 28.5062L14.3959 28.6558L15.2319 29.0141C17.3303 29.9134 19.7372 29.6459 21.5816 28.3297L21.868 28.1132L22.6898 27.4558C24.7241 25.8283 27.2228 24.8981 29.783 24.7948L30.5296 24.7783C32.0022 24.6969 33.3087 23.818 33.9439 22.4982L34.0551 22.2457L34.1623 21.9775C34.2837 21.6742 34.3901 21.3663 34.4814 21.0548L34.5491 20.7945L34.4014 20.5616C33.1732 18.7239 31.1385 17.5654 28.9141 17.4592L28.5791 17.4512H28.0926C24.2225 17.4512 20.433 16.3753 17.1452 14.3497L16.6019 14.0033L15.6417 13.3701L15.4631 13.257L15.305 13.3187L14.9878 13.4499L14.6651 13.596L14.3349 13.7629L13.8743 14.0232L13.646 14.1638L13.3076 14.3905L12.964 14.6432L12.7356 14.8201L12.3835 15.1267L12.0921 15.4013L11.8158 15.684L11.5166 16.0174L11.328 16.2468L11.3258 16.2461L11.0345 16.6317L10.7051 17.1195L10.6044 17.282L10.3728 17.6874L10.1322 18.1519L10.0836 18.2549L9.87565 18.7186L9.69009 19.1851L9.51864 19.686L9.37284 20.1878ZM20.6084 21.2386C20.6084 19.0585 18.5152 17.4886 16.1084 17.4886C13.7015 17.4886 11.6084 19.0585 11.6084 21.2386C11.6084 23.4187 13.7015 24.9886 16.1084 24.9886C18.5152 24.9886 20.6084 23.4187 20.6084 21.2386ZM16.1084 20.4886C15.2015 20.4886 14.6084 20.9335 14.6084 21.2386C14.6084 21.5437 15.2015 21.9886 16.1084 21.9886C17.0152 21.9886 17.6084 21.5437 17.6084 21.2386C17.6084 20.9335 17.0152 20.4886 16.1084 20.4886ZM21.4987 12.0217L22.1165 12.002L22.7155 12.0022C23.119 12.009 23.5296 12.0289 23.9392 12.0623L24.0288 12.0669L24.5636 12.123L25.2427 12.212L25.7981 12.3067L25.8942 12.3196L26.4051 12.4278L26.4679 12.4391L27.0105 12.5694L27.1242 12.5914L27.6926 12.7395L28.3931 12.9152L28.7269 13.006L29.0181 13.0986L29.3147 13.2056L29.6001 13.3215L29.8892 13.4521L30.1572 13.5863L30.4574 13.752L30.6919 13.8936L30.9555 14.0662L31.1995 14.2401L31.4367 14.423L31.6545 14.6036L31.884 14.8096L32.1075 15.0269L32.2138 15.1356C31.0734 14.6899 29.844 14.4512 28.5791 14.4512H28.0926L27.4762 14.4406C24.6669 14.3436 21.9237 13.5855 19.4682 12.2325L19.6405 12.2038L20.2646 12.12L20.8853 12.0612L21.4987 12.0217Z" fill="black"/>
</svg>
