<svg width="45" height="45" viewBox="0 0 45 45" fill="none" xmlns="http://www.w3.org/2000/svg">
<path fill-rule="evenodd" clip-rule="evenodd" d="M10.725 7.5C8.11545 7.5 6 9.52029 6 12.0124V27.0539C6 29.546 8.11545 31.5663 10.725 31.5663H28.9792L34.8068 35.5634C35.104 35.8449 35.5064 36.0019 35.925 35.9996C36.1316 36.0047 36.3366 35.9635 36.5235 35.8792C37.1116 35.6485 37.4968 35.1027 37.5 34.4954V12.0124C37.5 9.52029 35.3845 7.5 32.775 7.5H10.725ZM30.5933 28.8834C30.296 28.6034 29.8936 28.4473 29.475 28.4496H10.575C9.70515 28.4496 9 27.7799 9 26.9538V11.9958C9 11.1697 9.70515 10.5 10.575 10.5H32.625C33.4948 10.5 34.2 11.1697 34.2 11.9958V31.5L30.5933 28.8834ZM19.35 20.25C19.35 21.4926 20.4077 22.5 21.7125 22.5C23.0173 22.5 24.075 21.4926 24.075 20.25C24.075 19.0074 23.0173 18 21.7125 18C20.4077 18 19.35 19.0074 19.35 20.25ZM12.375 20.25C12.375 21.4926 13.4327 22.5 14.7375 22.5C16.0423 22.5 17.1 21.4926 17.1 20.25C17.1 19.0074 16.0423 18 14.7375 18C13.4327 18 12.375 19.0074 12.375 20.25ZM26.325 20.25C26.325 21.4926 27.3827 22.5 28.6875 22.5C29.9923 22.5 31.05 21.4926 31.05 20.25C31.05 19.0074 29.9923 18 28.6875 18C27.3827 18 26.325 19.0074 26.325 20.25Z" fill="black"/>
</svg>
