<svg preserveAspectRatio="none" width="100%" height="100%" overflow="visible" style="display: block;" viewBox="0 0 21.91 21.9088" fill="none" xmlns="http://www.w3.org/2000/svg">
<g id="Group">
<g id="Vector">
<path d="M10.4874 21.26L10.4994 21.258C10.5074 21.2593 10.5127 21.2653 10.5154 21.276L10.5324 21.703L10.5284 21.72L10.5164 21.736L10.4124 21.81L10.4004 21.814L10.3854 21.81L10.2814 21.736L10.2714 21.723L10.2664 21.703L10.2834 21.275L10.2874 21.265C10.2927 21.2583 10.3007 21.2563 10.3114 21.259L10.3824 21.295L10.3964 21.299L10.4164 21.295L10.4874 21.26Z" fill="#FF5A00"/>
<path d="M10.7494 21.147L10.7634 21.145C10.7734 21.147 10.78 21.1543 10.7834 21.167L10.8174 21.781L10.8134 21.795C10.8067 21.8037 10.797 21.8063 10.7844 21.803L10.5834 21.711L10.5754 21.703L10.5704 21.691L10.5524 21.261L10.5554 21.25L10.5654 21.24L10.7494 21.147Z" fill="#FF5A00"/>
<path d="M10.0337 21.1446C10.0387 21.1435 10.044 21.1443 10.0484 21.147L10.2324 21.239L10.2424 21.249L10.2454 21.261L10.2274 21.691L10.2244 21.702L10.2144 21.71L10.0134 21.803L9.99838 21.805C9.98771 21.801 9.98205 21.793 9.98138 21.781L10.0154 21.167L10.0214 21.153C10.0242 21.1487 10.0286 21.1457 10.0337 21.1446Z" fill="#FF5A00"/>
</g>
<path id="Vector_2" d="M7.71807 3.79499C8.37625 1.86888 11.0376 1.81054 11.8179 3.61999L11.884 3.79609L12.7722 6.39359C12.9757 6.98929 13.3047 7.53441 13.7368 7.99218C14.1689 8.44994 14.6942 8.80971 15.2772 9.04722L15.5161 9.13637L18.1136 10.0235C20.0397 10.6817 20.098 13.343 18.2897 14.1233L18.1136 14.1894L15.5161 15.0776C14.9202 15.281 14.3748 15.6099 13.9169 16.042C13.4589 16.4742 13.099 16.9995 12.8613 17.5826L12.7722 17.8204L11.8851 20.419C11.2269 22.3451 8.56556 22.4034 7.78631 20.5951L7.71807 20.419L6.83096 17.8215C6.62754 17.2256 6.29866 16.6802 5.86651 16.2223C5.43437 15.7643 4.90902 15.4044 4.32591 15.1667L4.08817 15.0776L1.49068 14.1905C-0.436536 13.5323 -0.49487 10.871 1.31457 10.0917L1.49068 10.0235L4.08817 9.13637C4.68387 8.93281 5.22899 8.60388 5.68676 8.17174C6.14453 7.7396 6.5043 7.21432 6.7418 6.63132L6.83096 6.39359L7.71807 3.79499ZM9.80157 4.506L8.91446 7.1035C8.60451 8.01185 8.10028 8.84173 7.43689 9.53535C6.77351 10.229 5.9669 10.7696 5.07324 11.1197L4.79808 11.2199L2.20058 12.107L4.79808 12.9941C5.70644 13.304 6.53632 13.8083 7.22993 14.4717C7.92354 15.135 8.46422 15.9417 8.8143 16.8353L8.91446 17.1105L9.80157 19.708L10.6887 17.1105C10.9986 16.2021 11.5029 15.3722 12.1662 14.6786C12.8296 13.985 13.6362 13.4443 14.5299 13.0943L14.8051 12.9952L17.4026 12.107L14.8051 11.2199C13.8967 10.9099 13.0668 10.4057 12.3732 9.74231C11.6796 9.07892 11.1389 8.27231 10.7888 7.37866L10.6898 7.1035L9.80157 4.506ZM18.6066 1.98871e-07C18.8126 -2.59719e-07 19.0143 0.0577594 19.1891 0.166715C19.3638 0.27567 19.5044 0.431452 19.595 0.616356L19.6478 0.74513L20.0331 1.87438L21.1634 2.2596C21.3698 2.32971 21.5507 2.4595 21.6832 2.63252C21.8157 2.80553 21.8938 3.014 21.9078 3.23149C21.9217 3.44898 21.8707 3.6657 21.7613 3.85419C21.6519 4.04268 21.489 4.19445 21.2933 4.29027L21.1634 4.34311L20.0342 4.72833L19.6489 5.85868C19.5787 6.06497 19.4488 6.24577 19.2757 6.37817C19.1027 6.51057 18.8942 6.58861 18.6767 6.6024C18.4592 6.61619 18.2425 6.56512 18.0541 6.45564C17.8657 6.34616 17.714 6.18322 17.6183 5.98745L17.5654 5.85868L17.1802 4.72943L16.0499 4.34421C15.8435 4.2741 15.6626 4.14431 15.5301 3.97129C15.3976 3.79827 15.3194 3.58981 15.3055 3.37232C15.2916 3.15483 15.3426 2.93811 15.452 2.74962C15.5614 2.56113 15.7243 2.40936 15.92 2.31353L16.0499 2.2607L17.1791 1.87548L17.5643 0.74513C17.6386 0.527672 17.779 0.338895 17.9659 0.205267C18.1528 0.0716392 18.3769 -0.000137889 18.6066 1.98871e-07Z" fill="url(#paint0_linear_0_49)"/>
</g>
<defs>
<linearGradient id="paint0_linear_0_49" x1="-2.5" y1="38" x2="22" y2="3" gradientUnits="userSpaceOnUse">
<stop stop-color="#FF5A00"/>
<stop offset="1" stop-color="#D536B0"/>
</linearGradient>
</defs>
</svg>
