<svg width="45" height="45" viewBox="0 0 45 45" fill="none" xmlns="http://www.w3.org/2000/svg">
<g id="atoms/icons/functions/upload">
<g id="atoms/icons/functions/coin">
<g id="Group 632160">
<path id="Subtract" d="M22 8C30.2843 8 37 14.7157 37 23C37 31.2843 30.2843 38 22 38C13.7157 38 7 31.2843 7 23C7 14.7157 13.7157 8 22 8ZM22 12C15.9249 12 11 16.9249 11 23C11 29.0751 15.9249 34 22 34C28.0751 34 33 29.0751 33 23C33 16.9249 28.0751 12 22 12ZM9 22C8.44772 22 8 22.4477 8 23C8 23.5523 8.44772 24 9 24C9.55228 24 10 23.5523 10 23C10 22.4477 9.55228 22 9 22ZM35 22C34.4477 22 34 22.4477 34 23C34 23.5523 34.4477 24 35 24C35.5523 24 36 23.5523 36 23C36 22.4477 35.5523 22 35 22Z" fill="black"/>
<circle id="Ellipse 74" cx="22" cy="23" r="8.5" fill="black" stroke="black"/>
</g>
</g>
</g>
</svg>
