<svg width="45" height="45" viewBox="0 0 45 45" fill="none" xmlns="http://www.w3.org/2000/svg">
<path fill-rule="evenodd" clip-rule="evenodd" d="M11.7 5.69995H21.2366L21.4151 7.23462L22.0573 12.7573L22.3312 15.0597L22.8231 19.3409H30.3406L30.8339 15.3939H24.0563L23.7143 12.5204H34.0889L31.1696 35.8749C31.0883 36.5183 30.7742 37.0813 30.3184 37.4837C29.9195 37.8358 29.4121 38.0649 28.8568 38.1173L28.616 38.1288H18.1184C17.47 38.1278 16.8725 37.886 16.4167 37.4836C16.0179 37.1315 15.7277 36.6565 15.6068 36.112L15.5656 35.8745L12.646 12.5204H19.1369L18.6779 8.57344H11.7V5.69995ZM20.2641 22.2144H16.7535L18.3837 35.2553H28.3522L29.9817 22.2144H23.1568L24.1482 30.74H21.2554L20.2641 22.2144ZM15.901 15.3939H19.471L19.9299 19.3409H16.3944L15.901 15.3939Z" fill="black"/>
</svg>
