<svg width="45" height="45" viewBox="0 0 45 45" fill="none" xmlns="http://www.w3.org/2000/svg">
<path fill-rule="evenodd" clip-rule="evenodd" d="M30.0352 12.6562L19.1895 23.502C18.9082 23.7833 18.75 24.1647 18.75 24.5625V27.0693L21.2578 27.0703C21.5891 27.0702 21.9088 26.9599 22.169 26.7607L22.3184 26.6309L33.1641 15.7852L35.2852 17.9062L24.4395 28.752C23.5956 29.5958 22.4511 30.0702 21.2578 30.0703H17.25C16.4218 30.0703 15.7503 29.3985 15.75 28.5703V24.5625C15.75 23.3691 16.2245 22.2248 17.0684 21.3809L27.9141 10.5352L30.0352 12.6562ZM31.1309 7.31836C32.8882 5.56099 35.7369 5.56098 37.4942 7.31836L38.502 8.3252C40.2592 10.0826 40.2593 12.9321 38.502 14.6895L37.4063 15.7852L35.2852 13.6641L36.3809 12.5684C36.9666 11.9826 36.9666 11.032 36.3809 10.4463L35.3731 9.43945C34.7874 8.85372 33.8377 8.85368 33.252 9.43945L32.1563 10.5352L30.0352 8.41406L31.1309 7.31836Z" fill="black"/>
<path fill-rule="evenodd" clip-rule="evenodd" d="M13.9191 19.6524L12.4217 22.5C12.4217 22.5 10.5 22.5158 10.5 24.2852C10.5 26.0546 10.5 34.65 10.5 34.65C10.5 34.65 10.5489 36 11.85 36C13.1511 36 34.65 36 34.65 36C34.65 36 36 36.0509 36 34.65C36 33.2491 36 23.85 36 23.85C36 23.85 35.6897 22.5 34.3449 22.5L36.8199 19.6524C36.8199 19.6524 38.9804 19.8729 38.9804 23.85C38.9804 27.8271 38.9804 35.4963 38.9804 35.4963C38.9804 35.4963 38.925 38.9375 34.65 38.9375C30.375 38.9375 11.85 38.9375 11.85 38.9375C11.85 38.9375 7.51315 38.9867 7.51315 34.65C7.51315 30.3133 7.51315 24.2852 7.51315 24.2852C7.51315 24.2852 7.31193 19.6524 12.4217 19.6524C17.5315 19.6524 13.9191 19.6524 13.9191 19.6524Z" fill="black"/>
</svg>
