<svg width="45" height="45" viewBox="0 0 45 45" fill="none" xmlns="http://www.w3.org/2000/svg">
<path fill-rule="evenodd" clip-rule="evenodd" d="M29.1667 12.6V10.95C29.1667 8.21619 26.9281 6 24.1667 6H20.8333C18.0719 6 15.8333 8.21619 15.8333 10.95V12.6H9.16667C8.24619 12.6 7.5 13.3387 7.5 14.25C7.5 15.1613 8.24619 15.9 9.16667 15.9H10.8333V34.05C10.8333 36.7838 13.0719 39 15.8333 39H29.1667C31.9281 39 34.1667 36.7838 34.1667 34.05V15.9H35.8333C36.7538 15.9 37.5 15.1613 37.5 14.25C37.5 13.3387 36.7538 12.6 35.8333 12.6H29.1667ZM20.8333 9.3H24.1667C25.0871 9.3 25.8333 10.0387 25.8333 10.95V12.6H19.1667V10.95C19.1667 10.0387 19.9129 9.3 20.8333 9.3ZM29.1667 35.7H15.8333C14.9129 35.7 14.1667 34.9613 14.1667 34.05V15.9H30.8333V34.05C30.8333 34.9613 30.0871 35.7 29.1667 35.7Z" fill="black"/>
</svg>
