<svg width="45" height="45" viewBox="0 0 45 45" fill="none" xmlns="http://www.w3.org/2000/svg">
<path fill-rule="evenodd" clip-rule="evenodd" d="M24.6152 4.74187C25.155 4.41835 25.8298 4.41975 26.3708 4.74385C29.1182 6.39009 30.8242 9.44391 30.8242 12.7099C30.8242 14.2123 30.4622 15.6713 29.7759 17.0097L29.5351 17.4513L29.3789 17.7055L34.5022 17.7061C36.6961 17.7061 38.4976 19.346 38.767 21.4714L38.7933 21.7513L38.8018 22.0246V36.6595C38.8018 37.5424 38.1539 38.2648 37.3029 38.3572L37.1176 38.3672H9.18417C8.30635 38.3672 7.60003 37.7037 7.50975 36.846L7.5 36.6595V22.0248C7.5 19.7503 9.28931 17.9439 11.5638 17.8083L11.839 17.8001L16.5764 17.8001L16.3809 17.5678C14.777 15.6233 13.8472 13.8218 13.7782 12.0575L13.7759 11.7051L13.8046 11.2191L13.8042 10.9074C13.8058 10.4148 13.9303 10.1181 14.3526 9.94049C16.1567 9.18159 18.1993 9.24463 20.4554 9.96246L20.6177 10.0161L20.6539 9.91082C21.3037 8.04598 22.4855 6.32027 23.9305 5.20926L24.2686 4.964L24.6152 4.74187ZM16.4962 30.6204L16.6944 30.7654C17.5886 31.42 18.7099 31.7864 19.8472 31.7864C20.8373 31.7864 21.8216 31.5012 22.6541 30.9846L22.9589 30.7801L23.1546 30.6384L23.3496 30.7812C24.2405 31.4339 25.3472 31.7994 26.4582 31.7994C27.4681 31.7994 28.469 31.5066 29.3083 30.9774L29.6151 30.768L29.8134 30.6219L30.0107 30.7693C30.9137 31.4441 32.0305 31.8201 33.1623 31.8201C33.8887 31.8201 34.6296 31.6648 35.256 31.386L35.5591 31.2365L36.0498 30.9688V35.6152H10.2519V30.9688L10.7426 31.2365C11.4248 31.6087 12.2922 31.8201 13.1396 31.8201C14.1479 31.8201 15.1478 31.5217 15.991 30.9814L16.2996 30.7675L16.4962 30.6204ZM36.0395 21.8414C35.9513 21.0598 35.3051 20.4581 34.5022 20.4581H11.7996L11.6172 20.4686C10.8408 20.5587 10.2519 21.218 10.2519 22.0248V27.9915L10.3515 28.2285L10.536 28.3961C10.5911 28.4471 10.6297 28.4883 10.656 28.5246L10.804 28.7099C11.3306 29.3105 12.1807 29.7318 13.1277 29.7318C14.1708 29.7318 15.108 29.2191 15.6113 28.5247C15.8077 28.2537 16.122 28.0933 16.4567 28.0933H16.5152L16.6805 28.1065C16.9515 28.1499 17.1971 28.2989 17.3607 28.5247C17.851 29.2009 18.7871 29.6981 19.8443 29.6981C20.8845 29.6981 21.8176 29.1962 22.3169 28.5155C22.5544 28.192 22.9563 28.033 23.3507 28.1067C23.6322 28.1592 23.8789 28.3258 24.0346 28.565C24.5723 29.2445 25.4664 29.711 26.4575 29.711C27.5092 29.711 28.4459 29.2078 28.941 28.5246L29.0486 28.3986C29.2428 28.2046 29.5076 28.0932 29.7865 28.0932H29.845L30.0097 28.1063C30.2796 28.1496 30.5234 28.2982 30.6875 28.5246C31.1912 29.2197 32.1254 29.7318 33.168 29.7318C34.2104 29.7318 35.1413 29.2205 35.6456 28.5246L35.6949 28.4658L35.7656 28.396L35.9501 28.2285L36.0498 27.9914V22.0247L36.0395 21.8414ZM16.3474 11.7896L16.2147 11.8194L16.2234 11.9202C16.4172 13.6776 17.295 15.3247 18.6595 16.4749L18.9593 16.7137C19.4477 17.0808 19.9306 17.3664 20.344 17.5501L20.5833 17.6479L21.8802 17.6475L21.6854 17.3245C20.8504 15.874 20.3492 14.2336 20.234 12.5401L20.2196 12.2425L20.0123 12.1535C18.8362 11.683 17.5613 11.556 16.3474 11.7896ZM25.5013 7.10515L25.5765 7.03153L25.6535 7.10513C27.1243 8.59788 28.0849 10.6509 28.0849 12.603L28.0704 13.0018C28.0222 13.6692 27.8543 14.3521 27.5756 15.0744L27.4379 15.4078L27.4123 15.2003L27.4022 14.9875C27.3067 14.0076 26.5424 13.225 25.5774 13.225L25.3726 13.2368C24.431 13.3464 23.7018 14.2033 23.7018 15.2415L23.6155 15.5754L23.4886 15.2214C23.2139 14.3897 23.0699 13.5029 23.0699 12.603C23.0698 10.651 24.0305 8.59801 25.5013 7.10515Z" fill="black"/>
</svg>
