<svg width="45" height="45" viewBox="0 0 45 45" fill="none" xmlns="http://www.w3.org/2000/svg">
<path fill-rule="evenodd" clip-rule="evenodd" d="M9.1025 35.1025C9.83625 35.8363 10.7188 36.2031 11.75 36.2031H34.25C35.2812 36.2031 36.1644 35.8363 36.8994 35.1025C37.6331 34.3675 38 33.4844 38 32.4531V28.7031C38 28.1719 37.82 27.7262 37.46 27.3662C37.1012 27.0075 36.6562 26.8281 36.125 26.8281C35.5938 26.8281 35.1488 27.0075 34.79 27.3662C34.43 27.7262 34.25 28.1719 34.25 28.7031V32.4531H11.75V28.7031C11.75 28.1719 11.5706 27.7262 11.2119 27.3662C10.8519 27.0075 10.4062 26.8281 9.875 26.8281C9.34375 26.8281 8.89812 27.0075 8.53812 27.3662C8.17937 27.7262 8 28.1719 8 28.7031V32.4531C8 33.4844 8.3675 34.3675 9.1025 35.1025Z" fill="black"/>
<path d="M24.335 7.54C23.9762 7.18 23.5312 7 23 7C22.4687 7 22.0231 7.18 21.6631 7.54C21.3044 7.89875 21.125 8.34375 21.125 8.875L21.125 22.2812L17.6094 18.7656C17.2344 18.3906 16.7887 18.2112 16.2725 18.2275C15.7575 18.2425 15.3125 18.4375 14.9375 18.8125C14.5937 19.1562 14.4144 19.5862 14.3994 20.1025C14.3831 20.6175 14.5625 21.0625 14.9375 21.4375L21.6875 28.1875C21.875 28.375 22.0781 28.5081 22.2969 28.5869C22.5156 28.6644 22.75 28.7031 23 28.7031C23.25 28.7031 23.4844 28.6644 23.7031 28.5869C23.9219 28.5081 24.125 28.375 24.3125 28.1875L31.0625 21.4375C31.4062 21.0937 31.5856 20.6644 31.6006 20.1494C31.6169 19.6331 31.4375 19.1875 31.0625 18.8125C30.6562 18.4062 30.2031 18.2031 29.7031 18.2031C29.2031 18.2031 28.7656 18.3906 28.3906 18.7656L24.875 22.2812L24.875 8.875C24.875 8.34375 24.695 7.89875 24.335 7.54Z" fill="black"/>
</svg>
