<svg width="45" height="45" viewBox="0 0 45 45" fill="none" xmlns="http://www.w3.org/2000/svg">
<path fill-rule="evenodd" clip-rule="evenodd" d="M17.946 32.4019C18.3846 32.4044 18.8061 32.2323 19.1175 31.9236L30.5355 20.4924L35.2215 15.9067C35.5339 15.597 35.7096 15.1754 35.7096 14.7355C35.7096 14.2957 35.5339 13.8741 35.2215 13.5644L28.2255 6.48793C27.9157 6.17565 27.494 6 27.054 6C26.6141 6 26.1923 6.17565 25.8825 6.48793L21.2295 11.1561L9.77853 22.5873C9.46967 22.8986 9.29749 23.32 9.30003 23.7584V30.7524C9.30003 31.6634 10.0388 32.4019 10.95 32.4019H17.946ZM31.7234 14.6531L29.3804 16.9954L24.7109 12.3272L27.0539 9.98492L31.7234 14.6531ZM22.3845 14.653L27.054 19.3212L17.2695 29.1029H12.6V24.4347L22.3845 14.653ZM7.65 35.701C6.73873 35.701 6 36.4395 6 37.3505C6 38.2615 6.73873 39 7.65 39H37.35C38.2613 39 39 38.2615 39 37.3505C39 36.4395 38.2613 35.701 37.35 35.701H7.65Z" fill="black"/>
</svg>
