<svg width="45" height="45" viewBox="0 0 45 45" fill="none" xmlns="http://www.w3.org/2000/svg">
<path d="M18.3672 8.89258C19.2816 8.89258 20.0233 9.6335 20.0234 10.5479C20.0234 11.4623 19.2816 12.2041 18.3672 12.2041H10.7979C10.6673 12.2042 10.5615 12.3099 10.5615 12.4404V34.2021C10.5616 34.3326 10.6674 34.4384 10.7979 34.4385H32.5596C32.6901 34.4385 32.7958 34.3327 32.7959 34.2021V26.6328C32.7959 25.7184 33.5377 24.9766 34.4521 24.9766C35.3665 24.9767 36.1074 25.7184 36.1074 26.6328V34.2021C36.1073 36.1616 34.519 37.75 32.5596 37.75H10.7979C8.83848 37.7499 7.25012 36.1615 7.25 34.2021V12.4404C7.25 10.481 8.83841 8.8927 10.7979 8.89258H18.3672ZM34.4521 7C36.4115 7.00012 37.9999 8.58848 38 10.5479V18.1172C38 19.0316 37.2582 19.7734 36.3438 19.7734C35.4295 19.7732 34.6885 19.0315 34.6885 18.1172V12.6514C34.6843 12.6556 34.681 12.6608 34.6768 12.665L24.7422 22.5996C24.0956 23.2462 23.047 23.2462 22.4004 22.5996C21.7538 21.953 21.7538 20.9044 22.4004 20.2578L32.335 10.3232C32.339 10.3192 32.3435 10.3155 32.3477 10.3115H26.8828C25.9685 10.3115 25.2268 9.57048 25.2266 8.65625C25.2266 7.74179 25.9684 7 26.8828 7H34.4521Z" fill="black"/>
</svg>
