<svg width="45" height="45" viewBox="0 0 45 45" fill="none" xmlns="http://www.w3.org/2000/svg">
<path fill-rule="evenodd" clip-rule="evenodd" d="M22 8.88892C20.1934 7.50163 18.0055 6.75 15.7102 6.75C12.9187 6.75 10.2897 7.86263 8.31121 9.87829C6.33665 11.8973 5.25 14.583 5.25 17.4358C5.25 20.279 6.34155 22.9655 8.31698 24.9854L20.4364 37.3709L20.627 37.5494C21.1532 38.0004 21.8189 38.25 22.5135 38.25C23.2873 38.25 24.0458 37.9279 24.5906 37.3707L36.683 25.006L37.0033 24.664C38.7717 22.6918 39.7432 20.1483 39.75 17.4583C39.75 14.6037 38.6633 11.918 36.6898 9.89992C34.7119 7.87757 32.0828 6.76376 29.283 6.76376L28.8264 6.7737L28.3731 6.80337C26.2664 6.98757 24.2862 7.80983 22.6547 9.1774L22.506 9.306L22.3562 9.17482L22 8.88892ZM10.5547 12.1241C11.9349 10.7129 13.7678 9.93578 15.717 9.93578C17.6691 9.93578 19.5078 10.715 20.8939 12.1322L21.3918 12.6414L21.5409 12.7757C21.7498 12.9413 21.9972 13.0514 22.2618 13.0944L22.4533 13.1123L22.654 13.1028C23.0464 13.0629 23.3824 12.8998 23.6351 12.6414L24.1196 12.146L24.403 11.8707C25.7524 10.6267 27.4706 9.94954 29.2965 9.94954C31.2457 9.94954 33.0786 10.7266 34.4599 12.1391C35.8474 13.5577 36.6081 15.4393 36.6081 17.4495L36.5979 17.849C36.5034 19.7044 35.7509 21.433 34.4532 22.76L22.512 34.968L10.5603 22.7462L10.2906 22.4559C9.0713 21.0729 8.40538 19.3079 8.40538 17.4358C8.40538 15.4316 9.16869 13.5476 10.5547 12.1241Z" fill="black"/>
</svg>
