<svg width="45" height="45" viewBox="0 0 45 45" fill="none" xmlns="http://www.w3.org/2000/svg">
<path fill-rule="evenodd" clip-rule="evenodd" d="M29.4732 19.9247C30.0168 19.9247 30.5272 20.1549 30.8744 20.5507C31.1796 20.8972 31.3424 21.3507 31.3316 21.8188L31.3162 22.02L31.1791 23.0952H35.2103C36.087 25.6646 35.4579 28.0795 33.9423 29.8708C33.0701 30.9016 31.9058 31.7252 30.3856 32.0556L30.0285 32.1229L29.7072 34.6425C29.6016 35.472 29.182 36.2132 28.577 36.7459C28.0392 37.2194 27.3564 37.5268 26.6239 37.5892L26.3471 37.601H14.6509C13.8415 37.601 13.0513 37.2957 12.4222 36.7875C11.8597 36.3331 11.4289 35.7187 11.2224 35.0283L11.1556 34.766L9.03581 22.072C8.93098 21.5674 9.05771 21.0102 9.39747 20.5896C9.6937 20.2234 10.1259 19.989 10.6091 19.9361L10.8191 19.9247H29.4732ZM28.5725 22.5762H11.8071L14.6504 34.9495H26.7422L28.5725 22.5762ZM30.8408 25.7468H33.1679C32.9432 26.5046 32.5607 27.4277 31.9133 28.1843C31.5738 28.5811 31.1586 28.931 30.6507 29.1788L30.3889 29.294L30.8408 25.7468Z" fill="#010002"/>
<path d="M22.3972 7.50672C22.7341 7.47502 23.0828 7.57154 23.3636 7.80428C23.515 7.9294 24.8184 9.08083 24.8657 10.558C24.8833 11.1127 24.7458 11.94 23.9279 12.7074C23.5064 13.1048 23.3015 14.0851 23.3623 14.9967C23.3857 15.3501 23.432 15.6097 23.4818 15.7465C24.2617 16.4049 24.3763 16.7321 24.353 17.0819C24.3296 17.4305 24.1731 17.7389 23.9362 17.9606C23.6977 18.1838 23.3778 18.3187 23.031 18.3187C22.6545 18.2964 22.1922 18.1905 21.7592 17.809C21.479 17.5621 21.2041 17.1926 21.0005 16.6242C20.7086 15.8098 20.6108 14.5686 20.8283 13.3865C21.0026 12.4399 21.3793 11.5405 21.9808 10.9062C21.3897 9.60826 21.2311 9.2824 21.2008 8.94504C21.7512 7.48924 22.1109 7.53366 22.3972 7.50672Z" fill="#010002"/>
<path d="M16.93 7.50594C17.2675 7.47399 17.6174 7.57062 17.9 7.80425C18.0513 7.92937 19.3543 9.08077 19.4016 10.5573C19.4198 11.1114 19.2819 11.9395 18.4645 12.7076C18.0431 13.1045 17.8388 14.0846 17.8987 14.9957C17.9221 15.3493 17.968 15.6094 18.0178 15.7461C18.7983 16.4048 18.9127 16.7319 18.8893 17.0826C18.8655 17.431 18.7089 17.7392 18.4722 17.9607C18.2338 18.1838 17.9142 18.3186 17.5674 18.3186C17.1906 18.2964 16.7285 18.1905 16.2957 17.8093C16.0155 17.5625 15.7405 17.193 15.5368 16.6247C15.245 15.8099 15.147 14.5687 15.3646 13.3865C15.5386 12.441 15.9148 11.5424 16.5153 10.908C15.9285 9.61466 15.7677 9.28916 15.7357 8.95117C16.2814 7.48781 16.6428 7.53314 16.93 7.50594Z" fill="#010002"/>
</svg>
