<svg width="45" height="45" viewBox="0 0 45 45" fill="none" xmlns="http://www.w3.org/2000/svg">
<path d="M21.1895 22.8789C22.3756 22.5633 23.6245 22.5633 24.8106 22.8789C26.6335 23.3641 28.1852 24.5606 29.1182 26.2002L32.8975 32.8408C33.3192 33.582 33.4341 34.459 33.2188 35.2842C32.9203 36.4273 32.0284 37.3209 30.8858 37.6211L30.3408 37.7637C29.1655 38.0725 27.9138 37.845 26.9229 37.1416L26.8486 37.0889C24.4586 35.3923 21.2329 35.4671 18.9121 37.2373C17.8834 38.0218 16.5262 38.2537 15.3047 37.8525L15.0713 37.7764C13.9533 37.4092 13.0981 36.4989 12.8008 35.3604C12.5727 34.4864 12.6949 33.5575 13.1416 32.7725L16.8819 26.2002C17.8148 24.5606 19.3665 23.3641 21.1895 22.8789Z" stroke="black" stroke-width="2.7"/>
<ellipse cx="18" cy="15.5" rx="3" ry="3.5" stroke="black" stroke-width="2.7" stroke-linecap="round" stroke-linejoin="round"/>
<ellipse cx="28" cy="15.5" rx="3" ry="3.5" stroke="black" stroke-width="2.7" stroke-linecap="round" stroke-linejoin="round"/>
<ellipse cx="10.5" cy="22.7712" rx="2.5" ry="3" transform="rotate(-15 10.5 22.7712)" stroke="black" stroke-width="2.7" stroke-linecap="round" stroke-linejoin="round"/>
<ellipse cx="35.5" cy="22.7713" rx="2.5" ry="3" transform="rotate(15 35.5 22.7713)" stroke="black" stroke-width="2.7" stroke-linecap="round" stroke-linejoin="round"/>
<path d="M17.0513 8.84605L16.4388 10.6838C16.2229 11.3313 16.7049 12 17.3874 12H18.6126C19.2951 12 19.7771 11.3313 19.5613 10.6838L18.9487 8.84605C18.6448 7.93435 17.3552 7.93435 17.0513 8.84605Z" fill="black"/>
<path d="M27.0513 8.84605L26.4388 10.6838C26.2229 11.3313 26.7049 12 27.3874 12H28.6126C29.2951 12 29.7771 11.3313 29.5613 10.6838L28.9487 8.84605C28.6448 7.93435 27.3552 7.93435 27.0513 8.84605Z" fill="black"/>
<path d="M36.9637 17.8077L35.5143 19.0929C35.0037 19.5458 35.0867 20.3658 35.6778 20.7071L36.7388 21.3197C37.3299 21.661 38.0817 21.3229 38.2185 20.6542L38.6069 18.7564C38.7995 17.8149 37.6827 17.1701 36.9637 17.8077Z" fill="black"/>
<path d="M8.97665 17.8077L10.426 19.0929C10.9367 19.5458 10.8537 20.3658 10.2626 20.7071L9.20154 21.3197C8.61043 21.661 7.85868 21.3229 7.72184 20.6542L7.33349 18.7564C7.14082 17.8149 8.25762 17.1701 8.97665 17.8077Z" fill="black"/>
</svg>
