<svg width="45" height="45" viewBox="0 0 45 45" fill="none" xmlns="http://www.w3.org/2000/svg">
<path fill-rule="evenodd" clip-rule="evenodd" d="M32.8533 19.2324C32.8482 14.3935 29.249 10.2635 24.3342 9.45697V7.65405C24.3342 6.74054 23.5714 6 22.6304 6C21.6895 6 20.9266 6.74054 20.9266 7.65405V9.45697C16.0118 10.2635 12.4127 14.3935 12.4076 19.2324V24.4923C10.3703 25.1916 9.00607 27.059 9 29.1567V32.4648C9 33.3783 9.76282 34.1189 10.7038 34.1189H16.0538C16.8603 37.0002 19.5548 39 22.6304 39C25.706 39 28.4005 37.0002 29.2071 34.1189H34.5571C35.4981 34.1189 36.2609 33.3783 36.2609 32.4648V29.1567C36.2548 27.059 34.8905 25.1916 32.8533 24.4923V19.2324ZM22.6304 12.6162C26.3944 12.6162 29.4457 15.5784 29.4457 19.2324V24.1946H15.8152V19.2324C15.8152 15.5784 18.8665 12.6162 22.6304 12.6162ZM19.6999 34.1189H25.561C24.956 35.1363 23.8406 35.7659 22.6305 35.7729C21.4204 35.7659 20.305 35.1363 19.6999 34.1189ZM12.4076 30.8108V29.1567C12.4076 28.2432 13.1704 27.5027 14.1114 27.5027H31.1495C32.0904 27.5027 32.8533 28.2432 32.8533 29.1567V30.8108H12.4076Z" fill="black"/>
</svg>
