<svg width="45" height="45" viewBox="0 0 45 45" fill="none" xmlns="http://www.w3.org/2000/svg">
<g clip-path="url(#clip0_0_374)">
<g clip-path="url(#clip1_0_374)">
<path d="M15.4573 26.0185C15.2048 26.0185 15.0339 26.0456 14.9444 26.0716V27.8358C15.0503 27.8617 15.1805 27.8704 15.3599 27.8704C16.0189 27.8704 16.4259 27.5079 16.4259 26.8963C16.4259 26.3464 16.0755 26.0185 15.4573 26.0185Z" fill="black"/>
<path d="M19.7593 26.0678V29.697C19.8622 29.7221 20.0283 29.7221 20.1785 29.7221C21.2697 29.7302 21.9814 29.1049 21.9814 27.7799C21.9892 26.6277 21.3406 26.0185 20.3049 26.0185C20.0359 26.0185 19.8621 26.0427 19.7593 26.0678Z" fill="black"/>
<path fill-rule="evenodd" clip-rule="evenodd" d="M15.2083 7.5C13.4785 7.5 12.0707 8.93367 12.0707 10.693V22.5H11.7643C11.0662 22.5 10.5 23.0756 10.5 23.7867V31.5896C10.5 32.3007 11.0661 32.8762 11.7643 32.8762H12.0707V34.307C12.0707 36.0683 13.4785 37.5 15.2083 37.5H31.3634C33.092 37.5 34.5 36.0682 34.5 34.307V15.0569L27.0482 7.5H15.2083ZM15.5333 25.0831C16.2886 25.0831 16.8269 25.2271 17.1886 25.5165C17.5341 25.7891 17.7672 26.2392 17.7672 26.7688C17.7672 27.2983 17.5905 27.7485 17.2691 28.0535C16.851 28.4467 16.2326 28.6232 15.5093 28.6232C15.3483 28.6232 15.2041 28.6153 15.0912 28.5997V30.5345H13.8781V25.1948C14.2555 25.1311 14.7859 25.0831 15.5333 25.0831ZM15.8978 34.4951C15.3031 34.4951 14.8189 33.9847 14.8189 33.357V32.0413H28.1897C28.8097 32.0413 29.3123 31.512 29.3123 30.8582V23.6828C29.3123 23.0289 28.8097 22.4996 28.1897 22.4996H14.8189V11.6422C14.8189 11.0163 15.3032 10.5059 15.8978 10.5059L25.7716 10.4951V14.342C25.7716 15.4657 26.6366 16.3782 27.7034 16.3782L31.2787 16.3674L31.3189 33.357C31.3189 33.9847 30.8356 34.4951 30.241 34.4951H15.8978ZM18.5495 25.1948C18.9994 25.1233 19.5859 25.0831 20.2048 25.0831C21.2333 25.0831 21.9002 25.2674 22.4228 25.6606C22.9852 26.0784 23.3385 26.7443 23.3385 27.7004C23.3385 28.7359 22.9611 29.4509 22.4385 29.8921C21.8682 30.3657 21.0002 30.5904 19.9397 30.5904C19.3046 30.5904 18.8547 30.5502 18.5495 30.51V25.1948ZM27.3195 28.3584H25.3747V30.5345H24.1454V25.1233H27.4559V26.1264H25.3747V27.3631H27.3195V28.3584Z" fill="black"/>
</g>
</g>
<defs>
<clipPath id="clip0_0_374">
<rect width="45" height="45" fill="white"/>
</clipPath>
<clipPath id="clip1_0_374">
<rect width="24" height="30" fill="white" transform="translate(10.5 7.5)"/>
</clipPath>
</defs>
</svg>
