<svg width="45" height="45" viewBox="0 0 45 45" fill="none" xmlns="http://www.w3.org/2000/svg">
<path fill-rule="evenodd" clip-rule="evenodd" d="M22.5 6C31.6127 6 39 13.3873 39 22.5C39 27.7768 36.5229 32.4751 32.6681 35.4955L32.2781 35.7919L31.8119 36.1232C31.3397 36.4465 30.8499 36.746 30.3441 37.0198L29.7008 37.35C27.5248 38.4071 25.0817 39 22.5 39C19.9183 39 17.4751 38.4071 15.2992 37.35C14.4749 36.9496 13.689 36.4825 12.9484 35.9558L12.7219 35.7919C8.64497 32.7877 6 27.9527 6 22.5C6 13.3873 13.3873 6 22.5 6ZM16.4145 13.5C17.0554 13.5 17.6488 13.9398 18.2688 14.7318C19.1478 15.8537 19.5624 16.7241 19.6032 17.4711C19.6477 18.2851 19.2216 18.9166 18.5996 19.5547C18.3822 19.7779 18.2735 20.0789 18.327 20.4779C18.3634 20.7493 18.4852 21.0817 18.7096 21.4691C19.0931 22.1312 19.7933 22.9914 20.8149 24.04C22.6506 25.9242 23.9701 26.7748 24.7017 26.7748C24.9012 26.6276 25.0878 26.4874 25.264 26.355C26.3658 25.5269 27.0629 25.003 27.9838 25.003C28.7468 25.003 29.5266 25.3693 30.3815 26.0744C31.0972 26.665 31.4952 27.2973 31.5 27.9894C31.5086 29.2903 30.2371 30.3617 29.4836 30.9966L29.4836 30.9967C29.4419 31.0318 29.4017 31.0656 29.3635 31.0981C29.0271 31.3836 28.5244 31.4987 27.92 31.5C26.5941 31.4406 25.2458 31.0209 23.8579 30.2908C22.1058 29.3691 20.306 27.9949 18.651 26.2965C16.5138 24.1028 14.8768 21.6583 14.0499 19.4084C13.6866 18.42 13.5002 17.5201 13.5 16.7733C13.4998 16.1344 13.6281 15.6102 13.9434 15.2867C14.0551 15.172 14.1691 15.0491 14.2897 14.919C14.3348 14.8703 14.3802 14.8208 14.426 14.7708L14.4262 14.7706C14.9771 14.1697 15.591 13.5 16.4145 13.5ZM9 22.5C9 15.0442 15.0442 9 22.5 9C29.9558 9 36 15.0442 36 22.5C36 26.8479 33.9346 30.8448 30.4981 33.3771L30.0658 33.6836L29.7029 33.9219C29.3277 34.1588 28.9184 34.3897 28.4978 34.5987L28.3752 34.6589L27.8785 34.8876C26.2075 35.6158 24.3841 36 22.5 36C20.4275 36 18.4285 35.5351 16.6104 34.6519C15.9391 34.3258 15.2959 33.9441 14.6873 33.5113L14.139 33.1002C10.9205 30.5588 9 26.6926 9 22.5Z" fill="black"/>
</svg>
