<svg width="45" height="45" viewBox="0 0 45 45" fill="none" xmlns="http://www.w3.org/2000/svg">
<path fill-rule="evenodd" clip-rule="evenodd" d="M37.0333 22.6604L30.8162 28.8775C27.9332 31.7605 23.8205 32.777 20.0472 31.7946L19.7722 31.7181L19.7795 32.0439C19.7701 33.2383 19.3402 34.43 18.4896 35.3778L18.2987 35.5793C16.3242 37.5538 11.6038 36.8849 11.1483 35.5793C11 35.1543 10.984 34.6445 10.9692 34.1706C10.9577 33.8025 10.9469 33.4561 10.8752 33.1878L10.8528 33.0877L10.7259 33.0533C10.5048 32.9854 10.1638 33.0108 9.80636 33.0374C9.28892 33.0759 8.73722 33.1169 8.4656 32.8813L8.24043 32.6715C6.84396 32.0439 6.26588 27.4956 8.24043 25.521C9.29352 24.4679 10.6956 23.9765 12.0744 24.0467L12.0941 24.0485L12.0337 23.8386C11.1012 20.3299 11.9093 16.4707 14.4152 13.5711L14.6715 13.2844L14.9422 13.0036L21.1594 6.78642C24.3366 3.60919 29.8923 5.4611 34.1255 9.69425C38.1911 13.7599 40.0549 19.0376 37.266 22.4095L37.0333 22.6604ZM15.6104 30.1484L18.1154 27.6452L18.3624 27.8158C21.554 29.9173 25.887 29.5641 28.6948 26.7562L34.912 20.5391L35.0462 20.3915C36.4397 18.704 35.1216 14.933 32.0042 11.8156C28.7923 8.60367 24.8866 7.30179 23.2807 8.90774L17.0635 15.1249L16.8342 15.3634C14.1676 18.2497 13.9478 22.5821 16.1748 25.7067L13.6719 28.2106C13.5739 28.0051 13.4398 27.8125 13.2696 27.6423C12.4666 26.8393 11.1647 26.8393 10.3618 27.6423C9.55878 28.4453 9.55878 29.7472 10.3618 30.5501C10.9945 31.1829 12.7419 30.7488 13.506 30.3842L13.6719 30.5501L13.524 30.8685L13.3663 31.2379C13.0535 32.0148 12.795 32.9834 13.2696 33.458C14.0726 34.261 15.3744 34.261 16.1774 33.458C16.9804 32.655 16.9804 31.3531 16.1774 30.5501C16.0076 30.3803 15.8154 30.2464 15.6104 30.1484Z" fill="black"/>
<path fill-rule="evenodd" clip-rule="evenodd" d="M24.3945 19.6889C20.5043 15.6605 18.8885 10.4092 21.9561 7.44692C25.0237 4.48461 30.2154 6.28265 34.1056 10.311C37.9957 14.3394 39.6115 19.5907 36.5439 22.5531C33.4764 25.5154 28.2846 23.7173 24.3945 19.6889ZM31.9475 12.395C29.0702 9.41542 25.5299 8.16625 24.0401 9.60494C22.5503 11.0436 23.6751 14.6254 26.5525 17.605C29.4299 20.5846 32.9701 21.8337 34.46 20.395C35.9498 18.9564 34.8249 15.3746 31.9475 12.395Z" fill="black"/>
<path fill-rule="evenodd" clip-rule="evenodd" d="M27.6315 16.5629C26.5577 15.451 26.0628 13.9073 27.166 12.8419C28.2692 11.7766 29.7947 12.325 30.8685 13.437C31.9423 14.5489 32.4372 16.0926 31.334 17.158C30.2308 18.2233 28.7053 17.6749 27.6315 16.5629ZM29.7895 14.479C29.214 13.883 28.506 13.6332 28.208 13.9209C27.9101 14.2087 28.135 14.925 28.7105 15.5209C29.286 16.1169 29.994 16.3667 30.292 16.079C30.59 15.7912 30.365 15.0749 29.7895 14.479Z" fill="black"/>
</svg>
