<svg width="45" height="45" viewBox="0 0 45 45" fill="none" xmlns="http://www.w3.org/2000/svg">
<g clip-path="url(#clip0_0_382)">
<path fill-rule="evenodd" clip-rule="evenodd" d="M10.5 31.7183H33V33H12.7426C11.504 33 10.5 33.8391 10.5 34.8741V31.7183ZM10.5 35.7818V37.1259C10.5 38.1609 11.504 39 12.7426 39H30.7574C31.996 39 33 38.1609 33 37.1259V35.7818H10.5Z" fill="black"/>
<path fill-rule="evenodd" clip-rule="evenodd" d="M27.3739 6L33.6603 11.5344V18H10.6101V7.83871C10.6101 6.82322 11.6387 6 12.9075 6H27.3739ZM18.7279 9H13.6095V17.9925H30.66V14.0745L26.046 9H20.5156L22.7279 11.2123H18.7279V9Z" fill="black"/>
<path fill-rule="evenodd" clip-rule="evenodd" d="M8.2974 18.3302H35.9729C38.0701 18.3302 39.7703 20.0304 39.7703 22.1276V32.1604C39.7703 33.8172 38.4271 35.1604 36.7703 35.1604H32.1602V33.1846H12.11V35.1604H7.5C5.84315 35.1604 4.5 33.8172 4.5 32.1604V22.1276C4.5 20.0304 6.20015 18.3302 8.2974 18.3302ZM35.9729 21.3302H8.2974C7.85701 21.3302 7.5 21.6872 7.5 22.1276V32.1604L9.291 32.16L9.30609 32.1156C9.71143 31.053 10.7034 30.2801 11.8861 30.1929L12.11 30.1846H32.1602C33.4405 30.1846 34.5335 30.9866 34.9642 32.1156L34.9785 32.16L36.7703 32.1604V22.1276C36.7703 21.6872 36.4133 21.3302 35.9729 21.3302Z" fill="black"/>
<circle cx="24.7085" cy="18.5251" r="0.76834" fill="black"/>
</g>
<defs>
<clipPath id="clip0_0_382">
<rect width="35.2703" height="33" fill="white" transform="translate(4.5 6)"/>
</clipPath>
</defs>
</svg>
