<svg width="45" height="45" viewBox="0 0 45 45" fill="none" xmlns="http://www.w3.org/2000/svg">
<path fill-rule="evenodd" clip-rule="evenodd" d="M11.5449 3H15.4541C16.8471 3 17.6037 4.07137 17.5735 5.40924L17.5647 6.63616L17.5725 9.444L17.874 10.3563L18.3875 11.9453L18.6946 12.9253L19.1026 14.2775L19.3395 15.101L19.5485 15.8626L19.8095 16.8897L19.9486 17.4982L20.0599 18.0461L20.1435 18.5339L20.1994 18.9619C20.3646 20.5247 20.2729 21.2139 19.818 22.2259L19.7084 22.4787L19.6125 22.7175L19.788 26.5886L19.8373 27.3021L19.8867 27.7924L19.9184 28.0446L20.5355 32.3475L20.7583 34.016L20.8652 34.9713L20.9446 35.8468C21.0757 37.5191 21.0386 38.7241 20.8107 39.534C20.4101 40.9544 19.348 41.8398 17.8739 41.9921L17.6963 41.9998L13.5231 41.9335L9.30272 41.9998L9.12509 41.9921C7.65055 41.8398 6.58855 40.9538 6.18925 39.5331C5.94263 38.6567 5.91946 37.3157 6.09186 35.4129L6.18522 34.4944L6.24212 34.0045L6.46406 32.345L6.82717 29.8131L6.91072 29.1922L6.99083 28.4871L7.06746 27.698L7.14054 26.8251L7.21003 25.8688L7.27589 24.8292L7.33805 23.7066L7.3845 22.7145L7.33384 22.5815L7.08422 21.9997C6.71378 21.1048 6.64699 20.4057 6.7996 18.9623L6.82407 18.7556L6.89378 18.2977L6.99123 17.7799C7.00979 17.6885 7.0295 17.5947 7.05038 17.4983L7.18954 16.8898L7.35657 16.2204L7.55151 15.4896L7.77443 14.6971L8.16135 13.3917L8.61148 11.9453L8.94678 10.9019L9.426 9.444L9.4337 6.18329L9.42554 5.41141C9.39526 4.07137 10.1519 3 11.5449 3ZM14.565 6H12.432L12.4238 9.94153L12.1707 10.7001L11.5252 12.6833L11.1066 14.0207L10.7443 15.2283L10.5342 15.9607L10.3491 16.6345L10.1189 17.5345L9.9969 18.0603L9.90025 18.5263L9.82893 18.932C9.80939 19.0572 9.79408 19.1723 9.78301 19.2773L9.75783 19.524L9.72512 19.9221C9.69444 20.4369 9.74876 20.6199 9.9185 20.996L10.0369 21.2667C10.22 21.699 10.3323 22.041 10.3782 22.3459L10.3934 22.6371C10.3837 22.8507 10.3739 23.0608 10.3638 23.2675L10.269 25.0341L10.2007 26.1086L10.1281 27.1008L10.0113 28.4352L9.92809 29.2227L9.84048 29.9286L9.4365 32.7506L9.21908 34.3754C9.202 34.5172 9.18587 34.656 9.17068 34.7918L9.0907 35.5698L9.03264 36.2733C9.01687 36.4951 9.00465 36.7042 8.99588 36.9002L8.97979 37.4486C8.97283 38.0418 9.0068 38.4706 9.07722 38.7209C9.12362 38.886 9.1549 38.9482 9.26219 38.9799L9.3585 38.9985L13.5231 38.9339L17.64 38.9985L17.7373 38.9798C17.8234 38.9543 17.8609 38.9092 17.8963 38.8077L17.9231 38.7205C18.0035 38.4348 18.0363 37.9157 18.0148 37.186L17.9885 36.5996C17.9824 36.4953 17.9754 36.3879 17.9675 36.2774L17.9095 35.5764C17.8981 35.4534 17.8857 35.3273 17.8724 35.1981L17.7814 34.3874L17.6405 33.3205L17.4807 32.1616L16.951 28.4896L16.8654 27.7544L16.8386 27.4386L16.7936 26.7721L16.6068 22.6368L16.622 22.3459C16.6771 21.98 16.8279 21.5608 17.0817 20.996L17.1338 20.8772C17.2456 20.6133 17.2899 20.4305 17.281 20.0822L17.2605 19.7373C17.2496 19.6051 17.2346 19.4535 17.216 19.2769L17.1962 19.1119L17.1376 18.7364L17.0536 18.3006L16.9443 17.8047C16.9239 17.7171 16.9026 17.627 16.8801 17.5344L16.7329 16.9492L16.4648 15.9607L16.1402 14.8403L15.6196 13.1434L14.999 11.2172L14.5752 9.94127L14.5692 8.75112L14.565 6Z" fill="black"/>
<path fill-rule="evenodd" clip-rule="evenodd" d="M22.5 13.5H36.7774C37.9564 13.5 39 14.3954 38.9967 15.7201L37.479 38.3799C37.479 39.6053 36.4337 40.5 35.2551 40.5H24.8253C23.9175 40.5 23.2178 39.7 23.3386 38.8003C23.3527 38.6956 23.3647 38.5767 23.3748 38.4438L23.3986 38.0032C23.4016 37.9228 23.404 37.8389 23.4059 37.7516L23.411 37.1866L23.4034 36.54L23.3829 35.8131L23.3385 34.8045L23.232 34.5197C22.9105 33.6186 22.6461 32.6264 22.4372 31.5431L22.3186 30.8821L21.9944 29.0156L21.9194 28.5081L21.8727 28.0282L21.6845 24.5365C21.6688 24.2291 21.748 23.9243 21.9115 23.6635C22.5869 22.5856 22.9108 21.5561 22.9108 20.5555C22.9108 20.1907 22.81 19.6868 22.6136 19.0816C22.4734 18.6494 22.2906 18.1821 22.0643 17.6647L21.4483 16.3249L21.1196 15.5863L21.0828 15.4915C20.7448 14.517 21.4685 13.5 22.5 13.5ZM34.5345 37.5L35.9415 16.5H24.828L25.0016 16.9051C25.1216 17.195 25.2305 17.4752 25.3284 17.7491L25.4671 18.1556C25.7523 19.0343 25.9108 19.8268 25.9108 20.5555C25.9108 21.8581 25.5794 23.1482 24.9319 24.4154L24.7035 24.8355L24.8545 27.6581L24.9013 28.1789L24.973 28.6449L25.3806 30.9628C25.5974 32.0904 25.8777 33.0829 26.2188 33.9396C26.2793 34.0913 26.3145 34.2519 26.3232 34.415C26.3331 34.6017 26.3422 34.7838 26.3504 34.9613L26.3899 35.9716L26.4091 36.8733L26.409 37.5H34.5345Z" fill="black"/>
<path fill-rule="evenodd" clip-rule="evenodd" d="M24.4572 19.6502H38.3377V25.96H22.9319L24.4572 19.6502ZM35.337 22.959V22.65H26.817L26.742 22.959H35.337Z" fill="black"/>
</svg>
