<svg width="45" height="45" viewBox="0 0 45 45" fill="none" xmlns="http://www.w3.org/2000/svg">
<path fill-rule="evenodd" clip-rule="evenodd" d="M19.5 6.3V16.128L18 17.334V6.3C18 5.30589 17.3284 4.5 16.5 4.5C15.6716 4.5 15 5.30589 15 6.3V17.334L13.5 16.128V6.3C13.5 5.30589 12.8284 4.5 12 4.5C11.1716 4.5 10.5 5.30589 10.5 6.3V17.1C10.5026 17.7021 10.7559 18.2628 11.175 18.594L15 21.672V38.7C15 39.6941 15.6716 40.5 16.5 40.5C17.3284 40.5 18 39.6941 18 38.7V21.672L21.825 18.594C22.2441 18.2628 22.4974 17.7021 22.5 17.1V6.3C22.5 5.30589 21.8284 4.5 21 4.5C20.1716 4.5 19.5 5.30589 19.5 6.3ZM33 4.5C28.8579 4.5 25.5 8.52944 25.5 13.5V24.3C25.5 25.2941 26.1716 26.1 27 26.1H31.5V38.7C31.5 39.6941 32.1716 40.5 33 40.5C33.8284 40.5 34.5 39.6941 34.5 38.7V6.3C34.5 5.30589 33.8284 4.5 33 4.5V4.5ZM28.5 22.5V13.5C28.499 11.2106 29.7012 9.16918 31.5 8.40602V22.5H28.5Z" fill="black"/>
<mask id="mask0_0_470" style="mask-type:luminance" maskUnits="userSpaceOnUse" x="10" y="4" width="25" height="37">
<path fill-rule="evenodd" clip-rule="evenodd" d="M19.5 6.3V16.128L18 17.334V6.3C18 5.30589 17.3284 4.5 16.5 4.5C15.6716 4.5 15 5.30589 15 6.3V17.334L13.5 16.128V6.3C13.5 5.30589 12.8284 4.5 12 4.5C11.1716 4.5 10.5 5.30589 10.5 6.3V17.1C10.5026 17.7021 10.7559 18.2628 11.175 18.594L15 21.672V38.7C15 39.6941 15.6716 40.5 16.5 40.5C17.3284 40.5 18 39.6941 18 38.7V21.672L21.825 18.594C22.2441 18.2628 22.4974 17.7021 22.5 17.1V6.3C22.5 5.30589 21.8284 4.5 21 4.5C20.1716 4.5 19.5 5.30589 19.5 6.3ZM33 4.5C28.8579 4.5 25.5 8.52944 25.5 13.5V24.3C25.5 25.2941 26.1716 26.1 27 26.1H31.5V38.7C31.5 39.6941 32.1716 40.5 33 40.5C33.8284 40.5 34.5 39.6941 34.5 38.7V6.3C34.5 5.30589 33.8284 4.5 33 4.5V4.5ZM28.5 22.5V13.5C28.499 11.2106 29.7012 9.16918 31.5 8.40602V22.5H28.5Z" fill="white"/>
</mask>
<g mask="url(#mask0_0_470)">
</g>
</svg>
