<svg width="45" height="45" viewBox="0 0 45 45" fill="none" xmlns="http://www.w3.org/2000/svg">
<path fill-rule="evenodd" clip-rule="evenodd" d="M22.5 10.5C15.7374 10.5 9.46954 15.1378 6.1377 22.6125C5.9541 23.019 5.9541 23.481 6.1377 23.8875C9.46954 31.3622 15.7374 36 22.5 36C29.2626 36 35.5305 31.3622 38.8623 23.8875C39.0459 23.481 39.0459 23.019 38.8623 22.6125C35.5305 15.1378 29.2626 10.5 22.5 10.5ZM9.46959 23.25C12.3231 17.3372 17.2714 13.6875 22.5001 13.6875C27.7287 13.6875 32.677 17.3372 35.5305 23.25C32.677 29.1628 27.7287 32.8125 22.5001 32.8125C17.2714 32.8125 12.3231 29.1628 9.46959 23.25ZM15.9024 23.25C15.9024 26.7708 18.8563 29.625 22.5001 29.625C26.1439 29.625 29.0978 26.7708 29.0978 23.25C29.0978 21.5592 28.4027 19.9377 27.1654 18.7422C25.9281 17.5466 24.2499 16.875 22.5001 16.875C18.8563 16.875 15.9024 19.7292 15.9024 23.25ZM19.2012 23.25C19.2012 21.4896 20.6782 20.0625 22.5001 20.0625C24.322 20.0625 25.7989 21.4896 25.7989 23.25C25.7989 25.0104 24.322 26.4375 22.5001 26.4375C20.6782 26.4375 19.2012 25.0104 19.2012 23.25Z" fill="black"/>
</svg>
