<svg width="45" height="45" viewBox="0 0 45 45" fill="none" xmlns="http://www.w3.org/2000/svg">
<path fill-rule="evenodd" clip-rule="evenodd" d="M38.901 18.2412C38.6043 19.9307 37.6454 21.4265 36.1816 22.5001C37.6452 23.5736 38.6043 25.0694 38.901 26.759C39.4765 30.0376 37.4876 33.4977 34.3728 34.6364C32.7676 35.223 30.9983 35.137 29.3408 34.4005C29.1471 36.2103 28.3369 37.7922 27.0283 38.8951C25.7586 39.965 24.1293 40.5 22.5 40.5C20.8707 40.5 19.2414 39.9652 17.9718 38.8951C16.6633 37.7925 15.8529 36.2103 15.6591 34.4005C14.0016 35.1369 12.2325 35.2228 10.6272 34.6364C7.51245 33.4977 5.52338 30.0376 6.09905 26.759C6.39565 25.0695 7.35466 23.5736 8.81827 22.5001C7.35466 21.4265 6.39551 19.9307 6.09905 18.2412C5.52338 14.9626 7.51245 11.5024 10.6272 10.3638C12.2325 9.77719 14.0016 9.86311 15.6591 10.5996C15.8529 8.78985 16.6631 7.20778 17.9718 6.10503C20.5113 3.96492 24.4892 3.96506 27.0283 6.10503C28.3368 7.20778 29.1471 8.78985 29.3408 10.5996C30.9983 9.86324 32.7676 9.77733 34.3728 10.3638C37.4876 11.5024 39.4765 14.9626 38.901 18.2412ZM22.513 19.5001C20.8587 19.5001 19.513 20.8458 19.513 22.5001C19.513 24.1542 20.8587 25.5001 22.513 25.5001C24.1673 25.5001 25.513 24.1543 25.513 22.5001C25.513 20.8458 24.1673 19.5001 22.513 19.5001ZM20.1751 8.60041C21.4351 7.53816 23.5648 7.53816 24.8248 8.60041C26.5115 10.0219 26.2475 13.0866 24.1216 16.8037C23.5984 16.6905 23.0563 16.6295 22.5 16.6295C21.9437 16.6295 21.4013 16.6905 20.8783 16.8037C18.7522 13.0866 18.4883 10.0217 20.1751 8.60041ZM17.6779 17.7557C15.558 14.1453 13.0726 12.431 11.0246 13.1658C9.49472 13.7159 8.44111 15.5184 8.7239 17.1021C9.10224 19.2215 11.8479 20.4897 16.0717 20.4986C16.4071 19.4706 16.9599 18.5381 17.6779 17.7557ZM11.0245 31.8341C9.4947 31.2841 8.44109 29.4816 8.72372 27.898C9.10206 25.7786 11.8477 24.5105 16.0715 24.5016C16.4071 25.5295 16.9598 26.4619 17.6778 27.2444C15.5577 30.8545 13.072 32.5695 11.0245 31.8341ZM20.1751 36.3997C21.4351 37.462 23.5648 37.462 24.8248 36.3997C26.5115 34.9782 26.2477 31.9134 24.1214 28.1964C23.5984 28.3097 23.0561 28.3707 22.4998 28.3707C21.9435 28.3707 21.4013 28.3097 20.8782 28.1964C18.7522 31.9135 18.4883 34.9782 20.1751 36.3997ZM33.9754 31.8336C31.928 32.5702 29.442 30.8543 27.322 27.2441C28.0399 26.4618 28.5928 25.5293 28.9282 24.5014C33.1519 24.5103 35.8975 25.7784 36.276 27.8977C36.5588 29.4813 35.5052 31.2837 33.9754 31.8336ZM28.9282 20.4986C33.1519 20.4897 35.8975 19.2216 36.276 17.1023C36.5588 15.5187 35.5052 13.7163 33.9754 13.1664C31.9279 12.4298 29.4419 14.1458 27.322 17.7559C28.0399 18.5384 28.5926 19.4707 28.9282 20.4986Z" fill="black"/>
</svg>
