<svg width="45" height="45" viewBox="0 0 45 45" fill="none" xmlns="http://www.w3.org/2000/svg">
<path fill-rule="evenodd" clip-rule="evenodd" d="M40.6475 19.6937C40.0546 21.2583 38.264 23.3665 36.2668 25.3128L35.5549 25.9919C35.3158 26.2153 35.0755 26.4352 34.8355 26.6506L34.1184 27.2821L33.4131 27.8795L32.7294 28.4358C32.6178 28.5247 32.5075 28.6116 32.3987 28.6964L31.7655 29.1783C31.5615 29.3296 31.3652 29.4712 31.1781 29.6019L30.6462 29.9604C30.3122 30.1761 30.0216 30.3438 29.7874 30.4543C28.0022 31.287 24.3061 30.4669 23.256 28.829L23.2042 28.7403L23.1164 28.7486C21.117 28.8706 19.389 26.7103 18.6183 23.8257L18.5394 23.5139C18.3849 22.867 18.4817 22.1881 18.8035 21.6128L18.9347 21.4022L19.801 20.145L8.70432 19.4012C7.10231 19.3624 5.92214 18.3345 5.63057 16.9613L5.59028 16.7293C5.39097 15.2614 6.27031 13.9225 7.84206 13.7422L8.07127 13.7245L14.0839 13.8042L12.3184 13.2271L11.215 12.8507L10.591 12.6244L10.1488 12.448C8.85793 11.8901 8.17098 10.5298 8.31841 9.19809C8.47738 7.76219 9.58744 6.74487 11.1326 6.98239L11.3562 7.02495L18.6117 9.11216L15.638 6.84186C14.5394 5.99163 14.2594 4.61 14.798 3.49207L14.9085 3.28574C15.6066 2.10732 17.0281 1.73163 18.1431 2.46048L18.3259 2.59223L26.6703 7.55818C27.614 8.12286 28.6613 8.49358 29.7509 8.64881C30.4558 8.74878 31.3488 8.80535 32.3986 8.82324L33.3361 8.82921C33.4985 8.82866 33.664 8.82736 33.8323 8.8253L34.8768 8.80408L35.9871 8.76558L37.1588 8.71043L38.3877 8.63932C38.597 8.62617 38.8085 8.61238 39.0221 8.59797C39.6164 8.55766 39.9928 8.86388 40.2278 9.27245C40.3229 9.43785 40.3887 9.6163 40.4448 9.82655C40.4764 9.9449 40.5055 10.0775 40.5327 10.2247L40.6085 10.7103L40.6768 11.3083L40.7376 12.0259L40.7882 12.8304L40.8281 13.7068L40.8639 14.9321L40.8788 16.0309L40.8784 16.7183L40.8617 17.6598L40.8395 18.2148L40.8083 18.7015L40.7678 19.111C40.7452 19.295 40.7191 19.4467 40.6892 19.5613L40.6582 19.6633L38.5617 18.9052L40.6475 19.6937ZM8.10539 16.0617C7.93359 16.069 7.87235 16.1566 7.90739 16.4147C7.95221 16.7448 8.18073 16.9907 8.6312 17.0517L24.058 18.085L20.86 22.7293C20.8108 22.8006 20.7942 22.8888 20.8137 22.9705C21.2318 24.7191 22.0364 25.9361 22.6526 26.2926L22.7276 26.3312L22.6843 26.2442L22.4247 25.799L22.3573 25.6797C22.1375 25.2856 21.9736 24.942 21.8542 24.5935C21.641 23.9711 21.5889 23.3841 21.786 22.8103C21.9147 22.4427 22.2344 22.0365 22.7508 21.5193L23.1752 21.1094L23.6738 20.651C24.0835 20.2797 24.5894 20.0317 25.1329 19.9358C29.756 19.1194 31.978 23.6952 28.3918 27.2259L28.1866 27.4209L27.84 27.739L27.2702 27.7283L26.9594 27.7376C26.6382 27.7536 26.3174 27.7879 26.0263 27.8438L25.8356 27.8848L25.7036 27.9197L25.7482 27.9405C25.8904 28.0045 26.051 28.0662 26.2249 28.1231L26.495 28.2044C27.4477 28.4676 28.4448 28.5003 28.7943 28.3372C29.0408 28.221 29.3923 28.0021 29.817 27.704L30.3597 27.3098C30.4554 27.2383 30.5534 27.164 30.6536 27.0871L31.2786 26.5958L31.9432 26.0511L32.6351 25.462L33.342 24.8376L34.0516 24.1867L34.7517 23.5185C36.3647 21.9462 37.7997 20.3059 38.3555 19.1135L38.4606 18.868L38.4776 18.7619L38.4935 18.5503L38.5142 18.0622L38.5327 17.1575L38.5368 16.0534L38.528 15.154L38.5067 14.2396L38.4916 13.8014L38.454 12.9705C38.4469 12.8377 38.4394 12.7081 38.4315 12.5818L38.3798 11.8683C38.3704 11.7571 38.3607 11.6501 38.3506 11.5475L38.2853 10.9886L37.2018 11.05L35.9067 11.1096L34.6827 11.149C32.7041 11.1974 31.0381 11.1575 29.7684 11.0087L29.4218 10.9639C28.1984 10.7896 27.017 10.4038 25.9313 9.82568L25.472 9.56621L17.0085 4.51857L16.9587 4.47362L16.9345 4.43853L16.9204 4.47749C16.8424 4.6092 16.8512 4.76572 16.9747 4.90593L17.0628 4.98777L29.9125 14.7929L10.7764 9.28925L10.6983 9.27314C10.6726 9.27173 10.6636 9.28391 10.657 9.32611L10.6426 9.4554C10.6026 9.81647 10.7837 10.175 11.0766 10.3016L11.4721 10.4579L12.0603 10.6693L12.8291 10.932L14.1148 11.3557L16.5895 12.1453L18.5759 12.7653L22.4697 13.9587L30.402 16.3557L8.10539 16.0617ZM23.9953 23.5765L23.9956 23.5773C23.9952 23.5773 23.9951 23.5771 23.9953 23.5765ZM23.9956 23.5773L23.998 23.5834L24.0362 23.7405C24.0444 23.7688 24.0544 23.8005 24.0664 23.8357C24.1161 23.9808 24.1898 24.1456 24.2902 24.3382L24.4947 24.7081L24.7028 25.0637C24.8 25.2293 24.8869 25.4003 24.9611 25.5739L25.0042 25.6859L25.3223 25.6027L25.5852 25.5474C25.8585 25.4949 26.1388 25.4572 26.4205 25.4316L26.9068 25.3995L26.9681 25.3366C28.6166 23.5401 27.8201 21.9514 25.7504 22.2069L25.5392 22.2386C25.4299 22.2579 25.3274 22.3082 25.2432 22.3844L24.8385 22.7614L24.005 23.5703C23.9999 23.5748 23.9967 23.5771 23.9956 23.5773Z" fill="black"/>
<path fill-rule="evenodd" clip-rule="evenodd" d="M19.423 29.6225L19.2077 29.6087L19.1561 29.609L18.9696 29.6224L18.7608 29.6623C18.3524 29.7636 18.0015 29.9916 17.7524 30.3151L17.6321 30.4934L17.5279 30.6962L17.461 30.8814C17.2161 31.6897 17.5523 32.5566 18.2915 32.9772C18.928 33.3394 19.7212 33.2854 20.3021 32.8403C20.8842 32.3943 21.1384 31.6432 20.9451 30.938C20.7521 30.2336 20.1511 29.7147 19.423 29.6225ZM22.0542 32.4322L22.2695 32.446C22.9976 32.5382 23.5986 33.0571 23.7917 33.7615C23.9849 34.4667 23.7307 35.2178 23.1486 35.6638C22.5678 36.1089 21.7745 36.1629 21.1381 35.8007C20.3988 35.38 20.0626 34.5131 20.3075 33.7049L20.3744 33.5197L20.4786 33.3169L20.5989 33.1386C20.8481 32.8151 21.1989 32.5871 21.6073 32.4858L21.8161 32.4459L22.0026 32.4325L22.0542 32.4322ZM17.8172 37.3566L17.9487 37.2025C18.5764 36.5488 19.6012 36.4569 20.3387 36.9976C21.1463 37.5897 21.3173 38.7207 20.7199 39.5225C20.1239 40.3223 18.9888 40.4912 18.1832 39.9006C17.7956 39.6165 17.5374 39.1908 17.4658 38.7172C17.4063 38.3238 17.4794 37.9226 17.686 37.5535L17.8172 37.3566ZM13.9513 38.3594C13.329 38.7515 13.0067 39.4787 13.1363 40.2001C13.3125 41.1699 14.2374 41.8207 15.2151 41.6634C15.9436 41.5444 16.5267 41.0019 16.6923 40.2882C16.858 39.5741 16.5725 38.8318 15.9705 38.4093C15.4298 38.0299 14.7299 37.976 14.1426 38.2543L13.9513 38.3594ZM23.6929 38.0935L23.4793 38.0791L23.2681 38.0895C22.7796 38.142 22.3271 38.3904 22.0223 38.7861L21.902 38.9644C21.3899 39.8514 21.6918 40.9534 22.5614 41.4482C23.1978 41.8103 23.9911 41.7564 24.572 41.3113C25.1541 40.8653 25.4082 40.1142 25.215 39.409L25.1525 39.2217C24.9117 38.6137 24.3548 38.1773 23.6929 38.0935Z" fill="black"/>
</svg>
