<svg width="45" height="45" viewBox="0 0 45 45" fill="none" xmlns="http://www.w3.org/2000/svg">
<path fill-rule="evenodd" clip-rule="evenodd" d="M24.6215 4.32507C24.5348 3.57906 23.9008 3 23.1316 3C22.3031 3 21.6316 3.67157 21.6316 4.5V9.23684L21.6417 9.41177C21.7283 10.1578 22.3623 10.7368 23.1316 10.7368C23.96 10.7368 24.6316 10.0653 24.6316 9.23684V4.5L24.6215 4.32507ZM37.0695 7.93044C36.4838 7.34466 35.534 7.34466 34.9482 7.93044L32.492 10.3867L32.3672 10.528C31.9096 11.1165 31.9512 11.9673 32.492 12.508C33.0778 13.0938 34.0275 13.0938 34.6133 12.508L37.0695 10.0518L37.1943 9.91045C37.6519 9.32202 37.6103 8.47117 37.0695 7.93044ZM12.7538 13.2275C12.168 13.8132 11.2182 13.8132 10.6324 13.2275L8.17618 10.7712L8.05139 10.6299C7.59386 10.0414 7.63545 9.19059 8.17618 8.64987C8.76196 8.06408 9.71171 8.06408 10.2975 8.64987L12.7538 11.1061L12.8785 11.2474C13.3361 11.8359 13.2945 12.6867 12.7538 13.2275ZM12.9474 21.8679C12.9474 16.2437 17.5068 11.6842 23.1308 11.6842C28.7561 11.6842 33.3158 16.2434 33.3158 21.8679C33.3158 27.4925 28.7561 32.0517 23.1308 32.0517C17.5068 32.0517 12.9474 27.4922 12.9474 21.8679ZM30.3158 21.8679C30.3158 17.9003 27.0993 14.6842 23.1308 14.6842C19.1636 14.6842 15.9474 17.9005 15.9474 21.8679C15.9474 25.8354 19.1636 29.0517 23.1308 29.0517C27.0993 29.0517 30.3158 25.8355 30.3158 21.8679ZM34.9482 35.8064C35.534 36.3922 36.4838 36.3922 37.0695 35.8064C37.6103 35.2657 37.6519 34.4148 37.1943 33.8264L37.0695 33.6851L34.6133 31.2288C34.0275 30.643 33.0778 30.643 32.492 31.2288C31.9512 31.7695 31.9096 32.6204 32.3672 33.2088L32.492 33.3501L34.9482 35.8064ZM10.6324 30.5094C11.2182 29.9236 12.168 29.9236 12.7538 30.5094C13.2945 31.0501 13.3361 31.901 12.8785 32.4894L12.7538 32.6307L10.2975 35.087C9.71171 35.6728 8.76196 35.6728 8.17618 35.087C7.63545 34.5462 7.59386 33.6954 8.05139 33.107L8.17618 32.9657L10.6324 30.5094ZM12 21.8684C12 22.6377 11.4209 23.2717 10.6749 23.3583L10.5 23.3684H5.76315C4.93473 23.3684 4.26315 22.6968 4.26315 21.8684C4.26315 21.0992 4.84221 20.4652 5.58822 20.3785L5.76315 20.3684H10.5C11.3284 20.3684 12 21.04 12 21.8684ZM40.6749 23.3583C41.4209 23.2717 42 22.6377 42 21.8684C42 21.04 41.3284 20.3684 40.5 20.3684H35.7632L35.5882 20.3785C34.8422 20.4652 34.2632 21.0992 34.2632 21.8684C34.2632 22.6968 34.9347 23.3684 35.7632 23.3684H40.5L40.6749 23.3583ZM23.1316 33C23.9008 33 24.5348 33.5791 24.6215 34.3251L24.6316 34.5V39.2368C24.6316 40.0653 23.96 40.7368 23.1316 40.7368C22.3623 40.7368 21.7283 40.1578 21.6417 39.4118L21.6316 39.2368V34.5C21.6316 33.6716 22.3031 33 23.1316 33Z" fill="black"/>
</svg>
