<svg width="45" height="45" viewBox="0 0 45 45" fill="none" xmlns="http://www.w3.org/2000/svg">
<path d="M31.9888 14.7743C31.7976 14.6802 31.6116 14.5769 31.4313 14.465C30.9069 14.1345 30.4262 13.7451 29.9994 13.3052C28.9315 12.1403 28.5327 10.9585 28.3858 10.1311H28.3917C28.269 9.44435 28.3197 9 28.3274 9H23.4636V26.9305C23.4636 27.1712 23.4636 27.4091 23.453 27.6443C23.453 27.6735 23.4501 27.7005 23.4483 27.732C23.4483 27.7449 23.4483 27.7584 23.4453 27.7719C23.4453 27.7753 23.4453 27.7787 23.4453 27.7821C23.3941 28.4254 23.1778 29.0469 22.8154 29.5918C22.4531 30.1367 21.9558 30.5884 21.3674 30.9072C20.7542 31.2398 20.0606 31.4143 19.355 31.4134C17.0889 31.4134 15.2523 29.6517 15.2523 27.4761C15.2523 25.3004 17.0889 23.5388 19.355 23.5388C19.784 23.5384 20.2103 23.6028 20.6182 23.7295L20.6241 19.0081C19.3859 18.8556 18.1281 18.9494 16.9299 19.2836C15.7316 19.6178 14.6191 20.1851 13.6623 20.9497C12.824 21.6441 12.1192 22.4727 11.5797 23.3982C11.3744 23.7356 10.5998 25.0918 10.506 27.2927C10.447 28.542 10.8405 29.8362 11.0281 30.3711V30.3824C11.1461 30.6974 11.6033 31.7722 12.3485 32.6784C12.9493 33.4052 13.6592 34.0438 14.4553 34.5733V34.5621L14.4671 34.5733C16.8217 36.0988 19.4323 35.9987 19.4323 35.9987C19.8842 35.9812 21.3981 35.9987 23.1173 35.2219C25.0241 34.3607 26.1097 33.0777 26.1097 33.0777C26.8032 32.3111 27.3546 31.4375 27.7404 30.4943C28.1805 29.3913 28.3274 28.0684 28.3274 27.5396V18.0271C28.3864 18.0609 29.1722 18.5564 29.1722 18.5564C29.1722 18.5564 30.3044 19.2482 32.0708 19.6988C33.3381 20.0194 35.0455 20.0869 35.0455 20.0869V15.4836C34.4472 15.5455 33.2325 15.3655 31.9888 14.7743Z" fill="black"/>
</svg>
