<svg width="45" height="45" viewBox="0 0 45 45" fill="none" xmlns="http://www.w3.org/2000/svg">
<path d="M22.5 8.99999C29.9439 8.99999 36 15.0561 36 22.5C36 29.9439 29.9439 36 22.5 36C15.0561 36 8.99999 29.9439 8.99999 22.5C8.99999 15.0561 15.0561 8.99999 22.5 8.99999ZM22.5 6.29999C13.5535 6.29999 6.29999 13.5535 6.29999 22.5C6.29999 31.4464 13.5535 38.7 22.5 38.7C31.4464 38.7 38.7 31.4464 38.7 22.5C38.7 13.5535 31.4464 6.29999 22.5 6.29999ZM23.85 22.5V15.4C23.85 14.8477 23.4023 14.4 22.85 14.4H22.5C22.3714 14.4 22.2551 14.4 22.1498 14.4C21.5975 14.4 21.15 14.8477 21.15 15.4V24.2C21.15 24.7523 21.5977 25.2 22.15 25.2H29.6C30.1523 25.2 30.6 24.7523 30.6 24.2V23.5C30.6 22.9477 30.1523 22.5 29.6 22.5H23.85Z" fill="black" stroke="black" stroke-width="0.5"/>
</svg>
