<svg width="45" height="45" viewBox="0 0 45 45" fill="none" xmlns="http://www.w3.org/2000/svg">
<path fill-rule="evenodd" clip-rule="evenodd" d="M11.85 19.5H34.65C37.0524 19.5 39 21.4476 39 23.85V34.65C39 37.0524 37.0524 39 34.65 39H11.85C9.44756 39 7.5 37.0524 7.5 34.65V23.85C7.5 21.4476 9.44756 19.5 11.85 19.5ZM34.65 22.5H11.85C11.1044 22.5 10.5 23.1044 10.5 23.85V34.65C10.5 35.3956 11.1044 36 11.85 36H34.65C35.3956 36 36 35.3956 36 34.65V23.85C36 23.1044 35.3956 22.5 34.65 22.5Z" fill="black"/>
<rect x="12" y="13.5" width="22.5" height="3" rx="0.95" fill="black"/>
<rect x="15" y="7.5" width="16.5" height="3" rx="0.95" fill="black"/>
</svg>
