<svg width="45" height="45" viewBox="0 0 45 45" fill="none" xmlns="http://www.w3.org/2000/svg">
<path d="M7.5 37.05L6.55761 36.7155C6.42859 37.079 6.5201 37.4843 6.79278 37.757C7.06546 38.0298 7.4707 38.1214 7.83422 37.9925L7.5 37.05ZM26.595 27.51L25.8884 26.8024L25.8879 26.8029L26.595 27.51ZM17.055 17.955L16.3484 17.2474L16.3479 17.2479L17.055 17.955ZM16.3496 26.2089C16.7411 26.5985 17.3743 26.5969 17.7638 26.2054C18.1534 25.8139 18.1519 25.1808 17.7604 24.7912L17.055 25.5L16.3496 26.2089ZM14.6854 21.7312C14.2939 21.3416 13.6607 21.3432 13.2712 21.7347C12.8816 22.1262 12.8831 22.7593 13.2746 23.1489L13.98 22.44L14.6854 21.7312ZM26.3979 27.7072C26.7884 28.0977 27.4216 28.0977 27.8121 27.7072C28.2026 27.3166 28.2026 26.6835 27.8121 26.2929L27.105 27L26.3979 27.7072ZM24.1221 22.6029C23.7316 22.2124 23.0984 22.2124 22.7079 22.6029C22.3174 22.9935 22.3174 23.6266 22.7079 24.0172L23.415 23.31L24.1221 22.6029ZM7.5 37.05C7.83422 37.9925 7.83435 37.9925 7.83454 37.9924C7.83468 37.9924 7.83492 37.9923 7.8352 37.9922C7.83575 37.992 7.83653 37.9917 7.83753 37.9914C7.83953 37.9907 7.84243 37.9896 7.8462 37.9883C7.85375 37.9856 7.86483 37.9816 7.87933 37.9765C7.90833 37.9661 7.95104 37.9508 8.00669 37.9307C8.11797 37.8905 8.28102 37.8314 8.48964 37.7546C8.90683 37.6012 9.5065 37.3777 10.2391 37.0961C11.7035 36.5333 13.7026 35.7373 15.8386 34.8054C17.9725 33.8744 20.2556 32.8024 22.2836 31.6867C24.2924 30.5815 26.1254 29.3939 27.3021 28.2172L26.595 27.51L25.8879 26.8029C24.9196 27.7712 23.2932 28.8486 21.3195 29.9344C19.365 31.0096 17.1425 32.0544 15.0389 32.9722C12.9374 33.8891 10.9671 34.6737 9.52155 35.2293C8.79913 35.5069 8.20864 35.7271 7.79942 35.8775C7.59484 35.9527 7.43562 36.0105 7.32794 36.0494C7.27411 36.0688 7.23316 36.0835 7.20587 36.0933C7.19223 36.0981 7.182 36.1018 7.17529 36.1042C7.17193 36.1054 7.16945 36.1062 7.16786 36.1068C7.16707 36.1071 7.1665 36.1073 7.16615 36.1074C7.16598 36.1075 7.16588 36.1075 7.1658 36.1075C7.16576 36.1076 7.16578 36.1076 7.5 37.05ZM26.595 27.51L27.3015 28.2177C30.3309 25.1931 30.3348 20.2854 27.3102 17.256L26.6025 17.9625L25.8948 18.6691C28.139 20.9168 28.1362 24.5582 25.8884 26.8024L26.595 27.51ZM26.6025 17.9625L27.3102 17.256C24.2855 14.2266 19.3778 14.2228 16.3484 17.2474L17.055 17.955L17.7616 18.6627C20.0093 16.4185 23.6507 16.4214 25.8948 18.6691L26.6025 17.9625ZM17.055 17.955L16.3479 17.2479C15.1678 18.428 13.9774 20.2625 12.87 22.2722C11.7522 24.3009 10.6787 26.5836 9.74677 28.7166C8.81388 30.8517 8.01738 32.8494 7.45429 34.3127C7.17261 35.0447 6.94899 35.6439 6.79556 36.0607C6.71883 36.2691 6.65963 36.432 6.61947 36.5432C6.59939 36.5988 6.58407 36.6415 6.5737 36.6705C6.56851 36.6849 6.56456 36.696 6.56187 36.7035C6.56053 36.7073 6.5595 36.7102 6.55879 36.7122C6.55843 36.7132 6.55816 36.714 6.55796 36.7145C6.55786 36.7148 6.55777 36.7151 6.55773 36.7152C6.55766 36.7154 6.55761 36.7155 7.5 37.05C8.44239 37.3846 8.44238 37.3846 8.44239 37.3846C8.44243 37.3845 8.44246 37.3844 8.44252 37.3842C8.44264 37.3839 8.44285 37.3833 8.44313 37.3825C8.44369 37.3809 8.44457 37.3784 8.44577 37.3751C8.44816 37.3684 8.4518 37.3582 8.45668 37.3445C8.46644 37.3173 8.48112 37.2764 8.50055 37.2226C8.5394 37.115 8.5972 36.956 8.67243 36.7516C8.82292 36.3428 9.04309 35.7528 9.32086 35.031C9.87668 33.5866 10.6617 31.6178 11.5795 29.5173C12.4982 27.4146 13.5444 25.1926 14.6217 23.2374C15.7095 21.2633 16.7897 19.6346 17.7621 18.6622L17.055 17.955ZM17.055 25.5L17.7604 24.7912L14.6854 21.7312L13.98 22.44L13.2746 23.1489L16.3496 26.2089L17.055 25.5ZM27.105 27L27.8121 26.2929L24.1221 22.6029L23.415 23.31L22.7079 24.0172L26.3979 27.7072L27.105 27Z" fill="black"/>
<path fill-rule="evenodd" clip-rule="evenodd" d="M37.095 18C37.095 18 35.1 15 31.845 15C29.385 15 26.595 18 26.595 18C26.595 18 28.59 21 31.845 21C35.1 21 37.095 18 37.095 18Z" stroke="black" stroke-width="2" stroke-linecap="round" stroke-linejoin="round"/>
<path fill-rule="evenodd" clip-rule="evenodd" d="M26.595 7.5C26.595 7.5 23.595 9.495 23.595 12.75C23.595 16.005 26.595 18 26.595 18C26.595 18 29.595 15.24 29.595 12.75C29.595 9.495 26.595 7.5 26.595 7.5Z" stroke="black" stroke-width="2" stroke-linecap="round" stroke-linejoin="round"/>
</svg>
