<svg width="45" height="45" viewBox="0 0 45 45" fill="none" xmlns="http://www.w3.org/2000/svg">
<path d="M25.8333 25.8333C26.4316 25.2349 27.3752 25.1922 28.0228 25.7051L28.1667 25.8333L37.1667 34.8333C37.8111 35.4776 37.8111 36.5224 37.1667 37.1667C36.5684 37.7651 35.6248 37.8078 34.9772 37.2949L34.8333 37.1667L25.8333 28.1667C25.1889 27.5224 25.1889 26.4776 25.8333 25.8333Z" fill="black"/>
<path fill-rule="evenodd" clip-rule="evenodd" d="M8.06863 18.7186C8.06863 12.0084 13.5084 6.56863 20.2186 6.56863C26.9289 6.56863 32.3686 12.0084 32.3686 18.7186C32.3686 25.4289 26.9289 30.8686 20.2186 30.8686C13.5084 30.8686 8.06863 25.4289 8.06863 18.7186ZM29.0686 18.7186C29.0686 13.8309 25.1064 9.86863 20.2186 9.86863C15.3309 9.86863 11.3686 13.8309 11.3686 18.7186C11.3686 23.6064 15.3309 27.5686 20.2186 27.5686C25.1064 27.5686 29.0686 23.6064 29.0686 18.7186Z" fill="black"/>
<path d="M20.25 13.125C19.8887 13.125 19.5492 13.2686 19.2989 13.519L19.1827 13.6513C19.0046 13.8831 18.9049 14.169 18.9049 14.4701L18.9045 17.4045L15.9701 17.4049L15.7826 17.4188C15.4729 17.4681 15.2172 17.6006 15.019 17.7989C14.7686 18.0492 14.625 18.3887 14.625 18.75C14.625 19.1113 14.7686 19.4508 15.019 19.7011L15.1513 19.8173C15.3831 19.9954 15.669 20.0951 15.9701 20.0951L18.9045 20.094L18.9049 23.0299L18.9188 23.2174C18.9681 23.5271 19.1006 23.7828 19.2989 23.981C19.5492 24.2314 19.8887 24.375 20.25 24.375C20.6113 24.375 20.9508 24.2314 21.2011 23.981L21.3173 23.8487C21.4954 23.6169 21.5951 23.3309 21.5951 23.0299L21.594 20.094L24.5299 20.0951L24.7174 20.0812C25.0271 20.0319 25.2828 19.8994 25.481 19.7011C25.7314 19.4508 25.875 19.1113 25.875 18.75C25.875 18.3887 25.7314 18.0492 25.481 17.7989L25.3487 17.6827C25.1169 17.5046 24.8309 17.4049 24.5299 17.4049L21.594 17.4045L21.5951 14.4701L21.5812 14.2826C21.5319 13.9729 21.3994 13.7172 21.2011 13.519C20.9508 13.2686 20.6113 13.125 20.25 13.125Z" fill="black"/>
</svg>
